G04 (created by PCBNEW (2013-jul-07)-stable) date Thu 14 Aug 2014 04:05:27 PM EDT*
%MOIN*%
G04 Gerber Fmt 3.4, Leading zero omitted, Abs format*
%FSLAX34Y34*%
G01*
G70*
G90*
G04 APERTURE LIST*
%ADD10C,0.00590551*%
%ADD11R,0.0590551X0.0590551*%
%ADD12O,0.0590551X0.0669291*%
%ADD13R,0.055X0.055*%
%ADD14C,0.055*%
%ADD15O,0.0669291X0.0590551*%
%ADD16C,0.035*%
%ADD17C,0.01*%
%ADD18C,0.0011811*%
G04 APERTURE END LIST*
G54D10*
G54D11*
X88200Y-57500D03*
G54D12*
X89200Y-57500D03*
X90200Y-57500D03*
X91200Y-57500D03*
X92200Y-57500D03*
X93200Y-57500D03*
X94200Y-57500D03*
X95200Y-57500D03*
G54D13*
X98900Y-50400D03*
G54D14*
X99900Y-50400D03*
X100900Y-50400D03*
X101900Y-50400D03*
G54D12*
X94560Y-56290D03*
X93560Y-56290D03*
X92560Y-56290D03*
X91560Y-56290D03*
X90560Y-56290D03*
X89560Y-56290D03*
X88560Y-56290D03*
X87560Y-56290D03*
X86560Y-56290D03*
X85560Y-56290D03*
X84560Y-56290D03*
X83560Y-56290D03*
X94560Y-50290D03*
X93560Y-50290D03*
X92560Y-50290D03*
X91560Y-50290D03*
X90560Y-50290D03*
X89560Y-50290D03*
X88560Y-50290D03*
X87560Y-50290D03*
X86560Y-50290D03*
X85560Y-50290D03*
X84560Y-50290D03*
X83560Y-50290D03*
G54D15*
X82560Y-50790D03*
X82560Y-51790D03*
X82560Y-52790D03*
X82560Y-53790D03*
X82560Y-54790D03*
X82560Y-55790D03*
G54D12*
X87060Y-51290D03*
X88060Y-51290D03*
X91060Y-51290D03*
X92060Y-51290D03*
G54D15*
X101900Y-53400D03*
X81500Y-53400D03*
G54D16*
X96000Y-56000D03*
X96600Y-56600D03*
X100300Y-57500D03*
X98400Y-56300D03*
X99000Y-51700D03*
X95800Y-51500D03*
X94100Y-52600D03*
G54D17*
X81500Y-53400D02*
X81500Y-50800D01*
X83970Y-49700D02*
X84560Y-50290D01*
X82600Y-49700D02*
X83970Y-49700D01*
X81500Y-50800D02*
X82600Y-49700D01*
X95200Y-57500D02*
X94700Y-58000D01*
X86560Y-57160D02*
X86560Y-56290D01*
X87400Y-58000D02*
X86560Y-57160D01*
X94700Y-58000D02*
X87400Y-58000D01*
X82560Y-54790D02*
X82590Y-54790D01*
X85870Y-55600D02*
X86560Y-56290D01*
X83400Y-55600D02*
X85870Y-55600D01*
X82590Y-54790D02*
X83400Y-55600D01*
X81500Y-53400D02*
X81500Y-53730D01*
X81500Y-53730D02*
X82560Y-54790D01*
X96600Y-56600D02*
X96000Y-56000D01*
X100200Y-57600D02*
X100300Y-57500D01*
X99700Y-57600D02*
X100200Y-57600D01*
X98400Y-56300D02*
X99700Y-57600D01*
X95800Y-51500D02*
X98800Y-51500D01*
X98800Y-51500D02*
X99000Y-51700D01*
X95800Y-51700D02*
X95800Y-51500D01*
X94100Y-52600D02*
X95800Y-51700D01*
X99900Y-50400D02*
X99900Y-50100D01*
X88270Y-57000D02*
X87560Y-56290D01*
X95900Y-57000D02*
X88270Y-57000D01*
X96900Y-58000D02*
X95900Y-57000D01*
X102100Y-58000D02*
X96900Y-58000D01*
X102400Y-57700D02*
X102100Y-58000D01*
X102400Y-50000D02*
X102400Y-57700D01*
X102200Y-49800D02*
X102400Y-50000D01*
X100200Y-49800D02*
X102200Y-49800D01*
X99900Y-50100D02*
X100200Y-49800D01*
G54D10*
G36*
X102244Y-57635D02*
X102035Y-57844D01*
X101280Y-57844D01*
X101280Y-50324D01*
X101223Y-50184D01*
X101116Y-50077D01*
X100976Y-50019D01*
X100824Y-50019D01*
X100684Y-50076D01*
X100577Y-50183D01*
X100519Y-50323D01*
X100519Y-50475D01*
X100576Y-50615D01*
X100683Y-50722D01*
X100823Y-50780D01*
X100975Y-50780D01*
X101115Y-50723D01*
X101222Y-50616D01*
X101280Y-50476D01*
X101280Y-50324D01*
X101280Y-57844D01*
X100580Y-57844D01*
X100580Y-57444D01*
X100538Y-57341D01*
X100459Y-57261D01*
X100356Y-57219D01*
X100244Y-57219D01*
X100141Y-57261D01*
X100061Y-57340D01*
X100019Y-57443D01*
X100019Y-57444D01*
X99764Y-57444D01*
X99280Y-56960D01*
X99280Y-51644D01*
X99280Y-51644D01*
X99280Y-50654D01*
X99280Y-50104D01*
X99264Y-50065D01*
X99235Y-50035D01*
X99196Y-50019D01*
X99154Y-50019D01*
X98604Y-50019D01*
X98565Y-50035D01*
X98535Y-50064D01*
X98519Y-50103D01*
X98519Y-50145D01*
X98519Y-50695D01*
X98535Y-50734D01*
X98564Y-50764D01*
X98603Y-50780D01*
X98645Y-50780D01*
X99195Y-50780D01*
X99234Y-50764D01*
X99264Y-50735D01*
X99280Y-50696D01*
X99280Y-50654D01*
X99280Y-51644D01*
X99238Y-51541D01*
X99159Y-51461D01*
X99056Y-51419D01*
X98944Y-51419D01*
X98940Y-51420D01*
X98910Y-51389D01*
X98859Y-51355D01*
X98800Y-51344D01*
X96039Y-51344D01*
X96038Y-51341D01*
X95959Y-51261D01*
X95856Y-51219D01*
X95744Y-51219D01*
X95641Y-51261D01*
X95561Y-51340D01*
X95519Y-51443D01*
X95519Y-51555D01*
X95558Y-51651D01*
X94961Y-51967D01*
X94961Y-50338D01*
X94961Y-50241D01*
X94930Y-50088D01*
X94843Y-49958D01*
X94713Y-49871D01*
X94560Y-49840D01*
X94406Y-49871D01*
X94276Y-49958D01*
X94189Y-50088D01*
X94158Y-50241D01*
X94158Y-50338D01*
X94189Y-50491D01*
X94276Y-50621D01*
X94406Y-50708D01*
X94560Y-50739D01*
X94713Y-50708D01*
X94843Y-50621D01*
X94930Y-50491D01*
X94961Y-50338D01*
X94961Y-51967D01*
X94235Y-52351D01*
X94156Y-52319D01*
X94044Y-52319D01*
X93961Y-52353D01*
X93961Y-50338D01*
X93961Y-50241D01*
X93930Y-50088D01*
X93843Y-49958D01*
X93713Y-49871D01*
X93560Y-49840D01*
X93406Y-49871D01*
X93276Y-49958D01*
X93189Y-50088D01*
X93158Y-50241D01*
X93158Y-50338D01*
X93189Y-50491D01*
X93276Y-50621D01*
X93406Y-50708D01*
X93560Y-50739D01*
X93713Y-50708D01*
X93843Y-50621D01*
X93930Y-50491D01*
X93961Y-50338D01*
X93961Y-52353D01*
X93941Y-52361D01*
X93861Y-52440D01*
X93819Y-52543D01*
X93819Y-52655D01*
X93861Y-52758D01*
X93940Y-52838D01*
X94043Y-52880D01*
X94155Y-52880D01*
X94258Y-52838D01*
X94338Y-52759D01*
X94380Y-52656D01*
X94380Y-52627D01*
X95872Y-51837D01*
X95890Y-51823D01*
X95910Y-51810D01*
X95914Y-51803D01*
X95920Y-51799D01*
X95930Y-51779D01*
X95944Y-51759D01*
X95945Y-51752D01*
X95948Y-51745D01*
X95949Y-51742D01*
X95958Y-51738D01*
X96038Y-51659D01*
X96039Y-51655D01*
X98719Y-51655D01*
X98719Y-51755D01*
X98761Y-51858D01*
X98840Y-51938D01*
X98943Y-51980D01*
X99055Y-51980D01*
X99158Y-51938D01*
X99238Y-51859D01*
X99280Y-51756D01*
X99280Y-51644D01*
X99280Y-56960D01*
X98679Y-56359D01*
X98680Y-56356D01*
X98680Y-56244D01*
X98638Y-56141D01*
X98559Y-56061D01*
X98456Y-56019D01*
X98344Y-56019D01*
X98241Y-56061D01*
X98161Y-56140D01*
X98119Y-56243D01*
X98119Y-56355D01*
X98161Y-56458D01*
X98240Y-56538D01*
X98343Y-56580D01*
X98455Y-56580D01*
X98459Y-56579D01*
X99589Y-57710D01*
X99640Y-57744D01*
X99640Y-57744D01*
X99700Y-57755D01*
X100183Y-57755D01*
X100243Y-57780D01*
X100355Y-57780D01*
X100458Y-57738D01*
X100538Y-57659D01*
X100580Y-57556D01*
X100580Y-57444D01*
X100580Y-57844D01*
X96964Y-57844D01*
X96880Y-57760D01*
X96880Y-56544D01*
X96838Y-56441D01*
X96759Y-56361D01*
X96656Y-56319D01*
X96544Y-56319D01*
X96540Y-56320D01*
X96279Y-56059D01*
X96280Y-56056D01*
X96280Y-55944D01*
X96238Y-55841D01*
X96159Y-55761D01*
X96056Y-55719D01*
X95944Y-55719D01*
X95841Y-55761D01*
X95761Y-55840D01*
X95719Y-55943D01*
X95719Y-56055D01*
X95761Y-56158D01*
X95840Y-56238D01*
X95943Y-56280D01*
X96055Y-56280D01*
X96059Y-56279D01*
X96320Y-56540D01*
X96319Y-56543D01*
X96319Y-56655D01*
X96361Y-56758D01*
X96440Y-56838D01*
X96543Y-56880D01*
X96655Y-56880D01*
X96758Y-56838D01*
X96838Y-56759D01*
X96880Y-56656D01*
X96880Y-56544D01*
X96880Y-57760D01*
X96010Y-56889D01*
X95959Y-56855D01*
X95900Y-56844D01*
X94961Y-56844D01*
X94961Y-56338D01*
X94961Y-56241D01*
X94930Y-56088D01*
X94843Y-55958D01*
X94713Y-55871D01*
X94560Y-55840D01*
X94406Y-55871D01*
X94276Y-55958D01*
X94189Y-56088D01*
X94158Y-56241D01*
X94158Y-56338D01*
X94189Y-56491D01*
X94276Y-56621D01*
X94406Y-56708D01*
X94560Y-56739D01*
X94713Y-56708D01*
X94843Y-56621D01*
X94930Y-56491D01*
X94961Y-56338D01*
X94961Y-56844D01*
X93961Y-56844D01*
X93961Y-56338D01*
X93961Y-56241D01*
X93930Y-56088D01*
X93843Y-55958D01*
X93713Y-55871D01*
X93560Y-55840D01*
X93406Y-55871D01*
X93276Y-55958D01*
X93189Y-56088D01*
X93158Y-56241D01*
X93158Y-56338D01*
X93189Y-56491D01*
X93276Y-56621D01*
X93406Y-56708D01*
X93560Y-56739D01*
X93713Y-56708D01*
X93843Y-56621D01*
X93930Y-56491D01*
X93961Y-56338D01*
X93961Y-56844D01*
X92961Y-56844D01*
X92961Y-56338D01*
X92961Y-56241D01*
X92961Y-50338D01*
X92961Y-50241D01*
X92930Y-50088D01*
X92843Y-49958D01*
X92713Y-49871D01*
X92560Y-49840D01*
X92406Y-49871D01*
X92276Y-49958D01*
X92189Y-50088D01*
X92158Y-50241D01*
X92158Y-50338D01*
X92189Y-50491D01*
X92276Y-50621D01*
X92406Y-50708D01*
X92560Y-50739D01*
X92713Y-50708D01*
X92843Y-50621D01*
X92930Y-50491D01*
X92961Y-50338D01*
X92961Y-56241D01*
X92930Y-56088D01*
X92843Y-55958D01*
X92713Y-55871D01*
X92560Y-55840D01*
X92461Y-55860D01*
X92461Y-51338D01*
X92461Y-51241D01*
X92430Y-51088D01*
X92343Y-50958D01*
X92213Y-50871D01*
X92060Y-50840D01*
X91961Y-50860D01*
X91961Y-50338D01*
X91961Y-50241D01*
X91930Y-50088D01*
X91843Y-49958D01*
X91713Y-49871D01*
X91560Y-49840D01*
X91406Y-49871D01*
X91276Y-49958D01*
X91189Y-50088D01*
X91158Y-50241D01*
X91158Y-50338D01*
X91189Y-50491D01*
X91276Y-50621D01*
X91406Y-50708D01*
X91560Y-50739D01*
X91713Y-50708D01*
X91843Y-50621D01*
X91930Y-50491D01*
X91961Y-50338D01*
X91961Y-50860D01*
X91906Y-50871D01*
X91776Y-50958D01*
X91689Y-51088D01*
X91658Y-51241D01*
X91658Y-51338D01*
X91689Y-51491D01*
X91776Y-51621D01*
X91906Y-51708D01*
X92060Y-51739D01*
X92213Y-51708D01*
X92343Y-51621D01*
X92430Y-51491D01*
X92461Y-51338D01*
X92461Y-55860D01*
X92406Y-55871D01*
X92276Y-55958D01*
X92189Y-56088D01*
X92158Y-56241D01*
X92158Y-56338D01*
X92189Y-56491D01*
X92276Y-56621D01*
X92406Y-56708D01*
X92560Y-56739D01*
X92713Y-56708D01*
X92843Y-56621D01*
X92930Y-56491D01*
X92961Y-56338D01*
X92961Y-56844D01*
X91961Y-56844D01*
X91961Y-56338D01*
X91961Y-56241D01*
X91930Y-56088D01*
X91843Y-55958D01*
X91713Y-55871D01*
X91560Y-55840D01*
X91461Y-55860D01*
X91461Y-51338D01*
X91461Y-51241D01*
X91430Y-51088D01*
X91343Y-50958D01*
X91213Y-50871D01*
X91060Y-50840D01*
X90961Y-50860D01*
X90961Y-50338D01*
X90961Y-50241D01*
X90930Y-50088D01*
X90843Y-49958D01*
X90713Y-49871D01*
X90560Y-49840D01*
X90406Y-49871D01*
X90276Y-49958D01*
X90189Y-50088D01*
X90158Y-50241D01*
X90158Y-50338D01*
X90189Y-50491D01*
X90276Y-50621D01*
X90406Y-50708D01*
X90560Y-50739D01*
X90713Y-50708D01*
X90843Y-50621D01*
X90930Y-50491D01*
X90961Y-50338D01*
X90961Y-50860D01*
X90906Y-50871D01*
X90776Y-50958D01*
X90689Y-51088D01*
X90658Y-51241D01*
X90658Y-51338D01*
X90689Y-51491D01*
X90776Y-51621D01*
X90906Y-51708D01*
X91060Y-51739D01*
X91213Y-51708D01*
X91343Y-51621D01*
X91430Y-51491D01*
X91461Y-51338D01*
X91461Y-55860D01*
X91406Y-55871D01*
X91276Y-55958D01*
X91189Y-56088D01*
X91158Y-56241D01*
X91158Y-56338D01*
X91189Y-56491D01*
X91276Y-56621D01*
X91406Y-56708D01*
X91560Y-56739D01*
X91713Y-56708D01*
X91843Y-56621D01*
X91930Y-56491D01*
X91961Y-56338D01*
X91961Y-56844D01*
X90961Y-56844D01*
X90961Y-56338D01*
X90961Y-56241D01*
X90930Y-56088D01*
X90843Y-55958D01*
X90713Y-55871D01*
X90560Y-55840D01*
X90406Y-55871D01*
X90276Y-55958D01*
X90189Y-56088D01*
X90158Y-56241D01*
X90158Y-56338D01*
X90189Y-56491D01*
X90276Y-56621D01*
X90406Y-56708D01*
X90560Y-56739D01*
X90713Y-56708D01*
X90843Y-56621D01*
X90930Y-56491D01*
X90961Y-56338D01*
X90961Y-56844D01*
X89961Y-56844D01*
X89961Y-56338D01*
X89961Y-56241D01*
X89961Y-50338D01*
X89961Y-50241D01*
X89930Y-50088D01*
X89843Y-49958D01*
X89713Y-49871D01*
X89560Y-49840D01*
X89406Y-49871D01*
X89276Y-49958D01*
X89189Y-50088D01*
X89158Y-50241D01*
X89158Y-50338D01*
X89189Y-50491D01*
X89276Y-50621D01*
X89406Y-50708D01*
X89560Y-50739D01*
X89713Y-50708D01*
X89843Y-50621D01*
X89930Y-50491D01*
X89961Y-50338D01*
X89961Y-56241D01*
X89930Y-56088D01*
X89843Y-55958D01*
X89713Y-55871D01*
X89560Y-55840D01*
X89406Y-55871D01*
X89276Y-55958D01*
X89189Y-56088D01*
X89158Y-56241D01*
X89158Y-56338D01*
X89189Y-56491D01*
X89276Y-56621D01*
X89406Y-56708D01*
X89560Y-56739D01*
X89713Y-56708D01*
X89843Y-56621D01*
X89930Y-56491D01*
X89961Y-56338D01*
X89961Y-56844D01*
X88961Y-56844D01*
X88961Y-56338D01*
X88961Y-56241D01*
X88961Y-50338D01*
X88961Y-50241D01*
X88930Y-50088D01*
X88843Y-49958D01*
X88713Y-49871D01*
X88560Y-49840D01*
X88406Y-49871D01*
X88276Y-49958D01*
X88189Y-50088D01*
X88158Y-50241D01*
X88158Y-50338D01*
X88189Y-50491D01*
X88276Y-50621D01*
X88406Y-50708D01*
X88560Y-50739D01*
X88713Y-50708D01*
X88843Y-50621D01*
X88930Y-50491D01*
X88961Y-50338D01*
X88961Y-56241D01*
X88930Y-56088D01*
X88843Y-55958D01*
X88713Y-55871D01*
X88560Y-55840D01*
X88461Y-55860D01*
X88461Y-51338D01*
X88461Y-51241D01*
X88430Y-51088D01*
X88343Y-50958D01*
X88213Y-50871D01*
X88060Y-50840D01*
X87961Y-50860D01*
X87961Y-50338D01*
X87961Y-50241D01*
X87930Y-50088D01*
X87843Y-49958D01*
X87713Y-49871D01*
X87560Y-49840D01*
X87406Y-49871D01*
X87276Y-49958D01*
X87189Y-50088D01*
X87158Y-50241D01*
X87158Y-50338D01*
X87189Y-50491D01*
X87276Y-50621D01*
X87406Y-50708D01*
X87560Y-50739D01*
X87713Y-50708D01*
X87843Y-50621D01*
X87930Y-50491D01*
X87961Y-50338D01*
X87961Y-50860D01*
X87906Y-50871D01*
X87776Y-50958D01*
X87689Y-51088D01*
X87658Y-51241D01*
X87658Y-51338D01*
X87689Y-51491D01*
X87776Y-51621D01*
X87906Y-51708D01*
X88060Y-51739D01*
X88213Y-51708D01*
X88343Y-51621D01*
X88430Y-51491D01*
X88461Y-51338D01*
X88461Y-55860D01*
X88406Y-55871D01*
X88276Y-55958D01*
X88189Y-56088D01*
X88158Y-56241D01*
X88158Y-56338D01*
X88189Y-56491D01*
X88276Y-56621D01*
X88406Y-56708D01*
X88560Y-56739D01*
X88713Y-56708D01*
X88843Y-56621D01*
X88930Y-56491D01*
X88961Y-56338D01*
X88961Y-56844D01*
X88334Y-56844D01*
X87939Y-56448D01*
X87961Y-56338D01*
X87961Y-56241D01*
X87930Y-56088D01*
X87843Y-55958D01*
X87713Y-55871D01*
X87560Y-55840D01*
X87461Y-55860D01*
X87461Y-51338D01*
X87461Y-51241D01*
X87430Y-51088D01*
X87343Y-50958D01*
X87213Y-50871D01*
X87060Y-50840D01*
X86961Y-50860D01*
X86961Y-50338D01*
X86961Y-50241D01*
X86930Y-50088D01*
X86843Y-49958D01*
X86713Y-49871D01*
X86560Y-49840D01*
X86406Y-49871D01*
X86276Y-49958D01*
X86189Y-50088D01*
X86158Y-50241D01*
X86158Y-50338D01*
X86189Y-50491D01*
X86276Y-50621D01*
X86406Y-50708D01*
X86560Y-50739D01*
X86713Y-50708D01*
X86843Y-50621D01*
X86930Y-50491D01*
X86961Y-50338D01*
X86961Y-50860D01*
X86906Y-50871D01*
X86776Y-50958D01*
X86689Y-51088D01*
X86658Y-51241D01*
X86658Y-51338D01*
X86689Y-51491D01*
X86776Y-51621D01*
X86906Y-51708D01*
X87060Y-51739D01*
X87213Y-51708D01*
X87343Y-51621D01*
X87430Y-51491D01*
X87461Y-51338D01*
X87461Y-55860D01*
X87406Y-55871D01*
X87276Y-55958D01*
X87189Y-56088D01*
X87158Y-56241D01*
X87158Y-56338D01*
X87189Y-56491D01*
X87276Y-56621D01*
X87406Y-56708D01*
X87560Y-56739D01*
X87713Y-56708D01*
X87740Y-56690D01*
X88148Y-57098D01*
X87883Y-57098D01*
X87844Y-57114D01*
X87814Y-57144D01*
X87798Y-57183D01*
X87798Y-57225D01*
X87798Y-57816D01*
X87814Y-57855D01*
X87844Y-57885D01*
X87883Y-57901D01*
X87925Y-57901D01*
X88516Y-57901D01*
X88555Y-57885D01*
X88585Y-57855D01*
X88601Y-57816D01*
X88601Y-57774D01*
X88601Y-57183D01*
X88589Y-57155D01*
X88934Y-57155D01*
X88916Y-57168D01*
X88829Y-57298D01*
X88798Y-57451D01*
X88798Y-57548D01*
X88829Y-57701D01*
X88916Y-57831D01*
X89046Y-57918D01*
X89200Y-57949D01*
X89353Y-57918D01*
X89483Y-57831D01*
X89570Y-57701D01*
X89601Y-57548D01*
X89601Y-57451D01*
X89570Y-57298D01*
X89483Y-57168D01*
X89465Y-57155D01*
X89934Y-57155D01*
X89916Y-57168D01*
X89829Y-57298D01*
X89798Y-57451D01*
X89798Y-57548D01*
X89829Y-57701D01*
X89916Y-57831D01*
X90046Y-57918D01*
X90200Y-57949D01*
X90353Y-57918D01*
X90483Y-57831D01*
X90570Y-57701D01*
X90601Y-57548D01*
X90601Y-57451D01*
X90570Y-57298D01*
X90483Y-57168D01*
X90465Y-57155D01*
X90934Y-57155D01*
X90916Y-57168D01*
X90829Y-57298D01*
X90798Y-57451D01*
X90798Y-57548D01*
X90829Y-57701D01*
X90916Y-57831D01*
X91046Y-57918D01*
X91200Y-57949D01*
X91353Y-57918D01*
X91483Y-57831D01*
X91570Y-57701D01*
X91601Y-57548D01*
X91601Y-57451D01*
X91570Y-57298D01*
X91483Y-57168D01*
X91465Y-57155D01*
X91934Y-57155D01*
X91916Y-57168D01*
X91829Y-57298D01*
X91798Y-57451D01*
X91798Y-57548D01*
X91829Y-57701D01*
X91916Y-57831D01*
X92046Y-57918D01*
X92200Y-57949D01*
X92353Y-57918D01*
X92483Y-57831D01*
X92570Y-57701D01*
X92601Y-57548D01*
X92601Y-57451D01*
X92570Y-57298D01*
X92483Y-57168D01*
X92465Y-57155D01*
X92934Y-57155D01*
X92916Y-57168D01*
X92829Y-57298D01*
X92798Y-57451D01*
X92798Y-57548D01*
X92829Y-57701D01*
X92916Y-57831D01*
X93046Y-57918D01*
X93200Y-57949D01*
X93353Y-57918D01*
X93483Y-57831D01*
X93570Y-57701D01*
X93601Y-57548D01*
X93601Y-57451D01*
X93570Y-57298D01*
X93483Y-57168D01*
X93465Y-57155D01*
X93934Y-57155D01*
X93916Y-57168D01*
X93829Y-57298D01*
X93798Y-57451D01*
X93798Y-57548D01*
X93829Y-57701D01*
X93916Y-57831D01*
X94046Y-57918D01*
X94200Y-57949D01*
X94353Y-57918D01*
X94483Y-57831D01*
X94570Y-57701D01*
X94601Y-57548D01*
X94601Y-57451D01*
X94570Y-57298D01*
X94483Y-57168D01*
X94465Y-57155D01*
X94805Y-57155D01*
X94718Y-57328D01*
X94755Y-57405D01*
X95105Y-57405D01*
X95105Y-57398D01*
X95294Y-57398D01*
X95294Y-57405D01*
X95644Y-57405D01*
X95681Y-57328D01*
X95594Y-57155D01*
X95835Y-57155D01*
X96789Y-58110D01*
X96789Y-58110D01*
X96815Y-58127D01*
X96826Y-58135D01*
X95681Y-58135D01*
X95681Y-57671D01*
X95644Y-57594D01*
X95294Y-57594D01*
X95294Y-57979D01*
X95369Y-58010D01*
X95447Y-57972D01*
X95594Y-57845D01*
X95681Y-57671D01*
X95681Y-58135D01*
X95105Y-58135D01*
X95105Y-57979D01*
X95105Y-57594D01*
X94755Y-57594D01*
X94718Y-57671D01*
X94805Y-57845D01*
X94952Y-57972D01*
X95030Y-58010D01*
X95105Y-57979D01*
X95105Y-58135D01*
X87041Y-58135D01*
X87041Y-56461D01*
X87041Y-56118D01*
X86954Y-55944D01*
X86807Y-55817D01*
X86729Y-55779D01*
X86654Y-55810D01*
X86654Y-56195D01*
X87004Y-56195D01*
X87041Y-56118D01*
X87041Y-56461D01*
X87004Y-56384D01*
X86654Y-56384D01*
X86654Y-56769D01*
X86729Y-56800D01*
X86807Y-56762D01*
X86954Y-56635D01*
X87041Y-56461D01*
X87041Y-58135D01*
X86465Y-58135D01*
X86465Y-56769D01*
X86465Y-56384D01*
X86465Y-56195D01*
X86465Y-55810D01*
X86390Y-55779D01*
X86312Y-55817D01*
X86165Y-55944D01*
X86078Y-56118D01*
X86115Y-56195D01*
X86465Y-56195D01*
X86465Y-56384D01*
X86115Y-56384D01*
X86078Y-56461D01*
X86165Y-56635D01*
X86312Y-56762D01*
X86390Y-56800D01*
X86465Y-56769D01*
X86465Y-58135D01*
X85961Y-58135D01*
X85961Y-56338D01*
X85961Y-56241D01*
X85961Y-50338D01*
X85961Y-50241D01*
X85930Y-50088D01*
X85843Y-49958D01*
X85713Y-49871D01*
X85560Y-49840D01*
X85406Y-49871D01*
X85276Y-49958D01*
X85189Y-50088D01*
X85158Y-50241D01*
X85158Y-50338D01*
X85189Y-50491D01*
X85276Y-50621D01*
X85406Y-50708D01*
X85560Y-50739D01*
X85713Y-50708D01*
X85843Y-50621D01*
X85930Y-50491D01*
X85961Y-50338D01*
X85961Y-56241D01*
X85930Y-56088D01*
X85843Y-55958D01*
X85713Y-55871D01*
X85560Y-55840D01*
X85406Y-55871D01*
X85276Y-55958D01*
X85189Y-56088D01*
X85158Y-56241D01*
X85158Y-56338D01*
X85189Y-56491D01*
X85276Y-56621D01*
X85406Y-56708D01*
X85560Y-56739D01*
X85713Y-56708D01*
X85843Y-56621D01*
X85930Y-56491D01*
X85961Y-56338D01*
X85961Y-58135D01*
X85041Y-58135D01*
X85041Y-50461D01*
X85041Y-50118D01*
X84954Y-49944D01*
X84807Y-49817D01*
X84729Y-49779D01*
X84654Y-49810D01*
X84654Y-50195D01*
X85004Y-50195D01*
X85041Y-50118D01*
X85041Y-50461D01*
X85004Y-50384D01*
X84654Y-50384D01*
X84654Y-50769D01*
X84729Y-50800D01*
X84807Y-50762D01*
X84954Y-50635D01*
X85041Y-50461D01*
X85041Y-58135D01*
X84961Y-58135D01*
X84961Y-56338D01*
X84961Y-56241D01*
X84930Y-56088D01*
X84843Y-55958D01*
X84713Y-55871D01*
X84560Y-55840D01*
X84465Y-55859D01*
X84465Y-50769D01*
X84465Y-50384D01*
X84465Y-50195D01*
X84465Y-49810D01*
X84390Y-49779D01*
X84312Y-49817D01*
X84165Y-49944D01*
X84078Y-50118D01*
X84115Y-50195D01*
X84465Y-50195D01*
X84465Y-50384D01*
X84115Y-50384D01*
X84078Y-50461D01*
X84165Y-50635D01*
X84312Y-50762D01*
X84390Y-50800D01*
X84465Y-50769D01*
X84465Y-55859D01*
X84406Y-55871D01*
X84276Y-55958D01*
X84189Y-56088D01*
X84158Y-56241D01*
X84158Y-56338D01*
X84189Y-56491D01*
X84276Y-56621D01*
X84406Y-56708D01*
X84560Y-56739D01*
X84713Y-56708D01*
X84843Y-56621D01*
X84930Y-56491D01*
X84961Y-56338D01*
X84961Y-58135D01*
X83961Y-58135D01*
X83961Y-56338D01*
X83961Y-56241D01*
X83961Y-50338D01*
X83961Y-50241D01*
X83930Y-50088D01*
X83843Y-49958D01*
X83713Y-49871D01*
X83560Y-49840D01*
X83406Y-49871D01*
X83276Y-49958D01*
X83189Y-50088D01*
X83158Y-50241D01*
X83158Y-50338D01*
X83189Y-50491D01*
X83276Y-50621D01*
X83406Y-50708D01*
X83560Y-50739D01*
X83713Y-50708D01*
X83843Y-50621D01*
X83930Y-50491D01*
X83961Y-50338D01*
X83961Y-56241D01*
X83930Y-56088D01*
X83843Y-55958D01*
X83713Y-55871D01*
X83560Y-55840D01*
X83406Y-55871D01*
X83276Y-55958D01*
X83189Y-56088D01*
X83158Y-56241D01*
X83158Y-56338D01*
X83189Y-56491D01*
X83276Y-56621D01*
X83406Y-56708D01*
X83560Y-56739D01*
X83713Y-56708D01*
X83843Y-56621D01*
X83930Y-56491D01*
X83961Y-56338D01*
X83961Y-58135D01*
X83070Y-58135D01*
X83070Y-54959D01*
X83070Y-54620D01*
X83032Y-54542D01*
X83009Y-54515D01*
X83009Y-53790D01*
X83009Y-52790D01*
X83009Y-51790D01*
X83009Y-50790D01*
X82978Y-50636D01*
X82891Y-50506D01*
X82761Y-50419D01*
X82608Y-50388D01*
X82511Y-50388D01*
X82358Y-50419D01*
X82228Y-50506D01*
X82141Y-50636D01*
X82110Y-50790D01*
X82141Y-50943D01*
X82228Y-51073D01*
X82358Y-51160D01*
X82511Y-51191D01*
X82608Y-51191D01*
X82761Y-51160D01*
X82891Y-51073D01*
X82978Y-50943D01*
X83009Y-50790D01*
X83009Y-51790D01*
X82978Y-51636D01*
X82891Y-51506D01*
X82761Y-51419D01*
X82608Y-51388D01*
X82511Y-51388D01*
X82358Y-51419D01*
X82228Y-51506D01*
X82141Y-51636D01*
X82110Y-51790D01*
X82141Y-51943D01*
X82228Y-52073D01*
X82358Y-52160D01*
X82511Y-52191D01*
X82608Y-52191D01*
X82761Y-52160D01*
X82891Y-52073D01*
X82978Y-51943D01*
X83009Y-51790D01*
X83009Y-52790D01*
X82978Y-52636D01*
X82891Y-52506D01*
X82761Y-52419D01*
X82608Y-52388D01*
X82511Y-52388D01*
X82358Y-52419D01*
X82228Y-52506D01*
X82141Y-52636D01*
X82110Y-52790D01*
X82141Y-52943D01*
X82228Y-53073D01*
X82358Y-53160D01*
X82511Y-53191D01*
X82608Y-53191D01*
X82761Y-53160D01*
X82891Y-53073D01*
X82978Y-52943D01*
X83009Y-52790D01*
X83009Y-53790D01*
X82978Y-53636D01*
X82891Y-53506D01*
X82761Y-53419D01*
X82608Y-53388D01*
X82511Y-53388D01*
X82358Y-53419D01*
X82228Y-53506D01*
X82141Y-53636D01*
X82110Y-53790D01*
X82141Y-53943D01*
X82228Y-54073D01*
X82358Y-54160D01*
X82511Y-54191D01*
X82608Y-54191D01*
X82761Y-54160D01*
X82891Y-54073D01*
X82978Y-53943D01*
X83009Y-53790D01*
X83009Y-54515D01*
X82905Y-54395D01*
X82731Y-54308D01*
X82654Y-54345D01*
X82654Y-54695D01*
X83039Y-54695D01*
X83070Y-54620D01*
X83070Y-54959D01*
X83039Y-54884D01*
X82654Y-54884D01*
X82654Y-55234D01*
X82731Y-55271D01*
X82905Y-55184D01*
X83032Y-55037D01*
X83070Y-54959D01*
X83070Y-58135D01*
X83009Y-58135D01*
X83009Y-55790D01*
X82978Y-55636D01*
X82891Y-55506D01*
X82761Y-55419D01*
X82608Y-55388D01*
X82511Y-55388D01*
X82465Y-55397D01*
X82465Y-55234D01*
X82465Y-54884D01*
X82465Y-54695D01*
X82465Y-54345D01*
X82388Y-54308D01*
X82214Y-54395D01*
X82087Y-54542D01*
X82049Y-54620D01*
X82080Y-54695D01*
X82465Y-54695D01*
X82465Y-54884D01*
X82080Y-54884D01*
X82049Y-54959D01*
X82087Y-55037D01*
X82214Y-55184D01*
X82388Y-55271D01*
X82465Y-55234D01*
X82465Y-55397D01*
X82358Y-55419D01*
X82228Y-55506D01*
X82141Y-55636D01*
X82110Y-55790D01*
X82141Y-55943D01*
X82228Y-56073D01*
X82358Y-56160D01*
X82511Y-56191D01*
X82608Y-56191D01*
X82761Y-56160D01*
X82891Y-56073D01*
X82978Y-55943D01*
X83009Y-55790D01*
X83009Y-58135D01*
X82010Y-58135D01*
X82010Y-53569D01*
X82010Y-53230D01*
X81972Y-53152D01*
X81845Y-53005D01*
X81671Y-52918D01*
X81594Y-52955D01*
X81594Y-53305D01*
X81979Y-53305D01*
X82010Y-53230D01*
X82010Y-53569D01*
X81979Y-53494D01*
X81594Y-53494D01*
X81594Y-53844D01*
X81671Y-53881D01*
X81845Y-53794D01*
X81972Y-53647D01*
X82010Y-53569D01*
X82010Y-58135D01*
X81405Y-58135D01*
X81405Y-53844D01*
X81405Y-53494D01*
X81405Y-53305D01*
X81405Y-52955D01*
X81328Y-52918D01*
X81154Y-53005D01*
X81027Y-53152D01*
X80989Y-53230D01*
X81020Y-53305D01*
X81405Y-53305D01*
X81405Y-53494D01*
X81020Y-53494D01*
X80989Y-53569D01*
X81027Y-53647D01*
X81154Y-53794D01*
X81328Y-53881D01*
X81405Y-53844D01*
X81405Y-58135D01*
X80864Y-58135D01*
X80864Y-49664D01*
X100126Y-49664D01*
X100089Y-49689D01*
X99789Y-49989D01*
X99755Y-50040D01*
X99754Y-50048D01*
X99684Y-50076D01*
X99577Y-50183D01*
X99519Y-50323D01*
X99519Y-50475D01*
X99576Y-50615D01*
X99683Y-50722D01*
X99823Y-50780D01*
X99975Y-50780D01*
X100115Y-50723D01*
X100222Y-50616D01*
X100280Y-50476D01*
X100280Y-50324D01*
X100223Y-50184D01*
X100129Y-50090D01*
X100264Y-49955D01*
X101693Y-49955D01*
X101663Y-50030D01*
X101900Y-50266D01*
X101905Y-50261D01*
X102038Y-50394D01*
X102033Y-50400D01*
X102038Y-50405D01*
X101905Y-50538D01*
X101900Y-50533D01*
X101766Y-50666D01*
X101766Y-50400D01*
X101530Y-50163D01*
X101455Y-50193D01*
X101410Y-50379D01*
X101439Y-50568D01*
X101455Y-50606D01*
X101530Y-50636D01*
X101766Y-50400D01*
X101766Y-50666D01*
X101663Y-50769D01*
X101693Y-50844D01*
X101879Y-50889D01*
X102068Y-50860D01*
X102106Y-50844D01*
X102136Y-50769D01*
X102136Y-50769D01*
X102180Y-50813D01*
X102244Y-50749D01*
X102244Y-53134D01*
X102231Y-53116D01*
X102136Y-53052D01*
X102101Y-53029D01*
X101948Y-52998D01*
X101851Y-52998D01*
X101698Y-53029D01*
X101568Y-53116D01*
X101481Y-53246D01*
X101450Y-53400D01*
X101481Y-53553D01*
X101568Y-53683D01*
X101698Y-53770D01*
X101851Y-53801D01*
X101948Y-53801D01*
X102101Y-53770D01*
X102231Y-53683D01*
X102244Y-53665D01*
X102244Y-57635D01*
X102244Y-57635D01*
G37*
G54D18*
X102244Y-57635D02*
X102035Y-57844D01*
X101280Y-57844D01*
X101280Y-50324D01*
X101223Y-50184D01*
X101116Y-50077D01*
X100976Y-50019D01*
X100824Y-50019D01*
X100684Y-50076D01*
X100577Y-50183D01*
X100519Y-50323D01*
X100519Y-50475D01*
X100576Y-50615D01*
X100683Y-50722D01*
X100823Y-50780D01*
X100975Y-50780D01*
X101115Y-50723D01*
X101222Y-50616D01*
X101280Y-50476D01*
X101280Y-50324D01*
X101280Y-57844D01*
X100580Y-57844D01*
X100580Y-57444D01*
X100538Y-57341D01*
X100459Y-57261D01*
X100356Y-57219D01*
X100244Y-57219D01*
X100141Y-57261D01*
X100061Y-57340D01*
X100019Y-57443D01*
X100019Y-57444D01*
X99764Y-57444D01*
X99280Y-56960D01*
X99280Y-51644D01*
X99280Y-51644D01*
X99280Y-50654D01*
X99280Y-50104D01*
X99264Y-50065D01*
X99235Y-50035D01*
X99196Y-50019D01*
X99154Y-50019D01*
X98604Y-50019D01*
X98565Y-50035D01*
X98535Y-50064D01*
X98519Y-50103D01*
X98519Y-50145D01*
X98519Y-50695D01*
X98535Y-50734D01*
X98564Y-50764D01*
X98603Y-50780D01*
X98645Y-50780D01*
X99195Y-50780D01*
X99234Y-50764D01*
X99264Y-50735D01*
X99280Y-50696D01*
X99280Y-50654D01*
X99280Y-51644D01*
X99238Y-51541D01*
X99159Y-51461D01*
X99056Y-51419D01*
X98944Y-51419D01*
X98940Y-51420D01*
X98910Y-51389D01*
X98859Y-51355D01*
X98800Y-51344D01*
X96039Y-51344D01*
X96038Y-51341D01*
X95959Y-51261D01*
X95856Y-51219D01*
X95744Y-51219D01*
X95641Y-51261D01*
X95561Y-51340D01*
X95519Y-51443D01*
X95519Y-51555D01*
X95558Y-51651D01*
X94961Y-51967D01*
X94961Y-50338D01*
X94961Y-50241D01*
X94930Y-50088D01*
X94843Y-49958D01*
X94713Y-49871D01*
X94560Y-49840D01*
X94406Y-49871D01*
X94276Y-49958D01*
X94189Y-50088D01*
X94158Y-50241D01*
X94158Y-50338D01*
X94189Y-50491D01*
X94276Y-50621D01*
X94406Y-50708D01*
X94560Y-50739D01*
X94713Y-50708D01*
X94843Y-50621D01*
X94930Y-50491D01*
X94961Y-50338D01*
X94961Y-51967D01*
X94235Y-52351D01*
X94156Y-52319D01*
X94044Y-52319D01*
X93961Y-52353D01*
X93961Y-50338D01*
X93961Y-50241D01*
X93930Y-50088D01*
X93843Y-49958D01*
X93713Y-49871D01*
X93560Y-49840D01*
X93406Y-49871D01*
X93276Y-49958D01*
X93189Y-50088D01*
X93158Y-50241D01*
X93158Y-50338D01*
X93189Y-50491D01*
X93276Y-50621D01*
X93406Y-50708D01*
X93560Y-50739D01*
X93713Y-50708D01*
X93843Y-50621D01*
X93930Y-50491D01*
X93961Y-50338D01*
X93961Y-52353D01*
X93941Y-52361D01*
X93861Y-52440D01*
X93819Y-52543D01*
X93819Y-52655D01*
X93861Y-52758D01*
X93940Y-52838D01*
X94043Y-52880D01*
X94155Y-52880D01*
X94258Y-52838D01*
X94338Y-52759D01*
X94380Y-52656D01*
X94380Y-52627D01*
X95872Y-51837D01*
X95890Y-51823D01*
X95910Y-51810D01*
X95914Y-51803D01*
X95920Y-51799D01*
X95930Y-51779D01*
X95944Y-51759D01*
X95945Y-51752D01*
X95948Y-51745D01*
X95949Y-51742D01*
X95958Y-51738D01*
X96038Y-51659D01*
X96039Y-51655D01*
X98719Y-51655D01*
X98719Y-51755D01*
X98761Y-51858D01*
X98840Y-51938D01*
X98943Y-51980D01*
X99055Y-51980D01*
X99158Y-51938D01*
X99238Y-51859D01*
X99280Y-51756D01*
X99280Y-51644D01*
X99280Y-56960D01*
X98679Y-56359D01*
X98680Y-56356D01*
X98680Y-56244D01*
X98638Y-56141D01*
X98559Y-56061D01*
X98456Y-56019D01*
X98344Y-56019D01*
X98241Y-56061D01*
X98161Y-56140D01*
X98119Y-56243D01*
X98119Y-56355D01*
X98161Y-56458D01*
X98240Y-56538D01*
X98343Y-56580D01*
X98455Y-56580D01*
X98459Y-56579D01*
X99589Y-57710D01*
X99640Y-57744D01*
X99640Y-57744D01*
X99700Y-57755D01*
X100183Y-57755D01*
X100243Y-57780D01*
X100355Y-57780D01*
X100458Y-57738D01*
X100538Y-57659D01*
X100580Y-57556D01*
X100580Y-57444D01*
X100580Y-57844D01*
X96964Y-57844D01*
X96880Y-57760D01*
X96880Y-56544D01*
X96838Y-56441D01*
X96759Y-56361D01*
X96656Y-56319D01*
X96544Y-56319D01*
X96540Y-56320D01*
X96279Y-56059D01*
X96280Y-56056D01*
X96280Y-55944D01*
X96238Y-55841D01*
X96159Y-55761D01*
X96056Y-55719D01*
X95944Y-55719D01*
X95841Y-55761D01*
X95761Y-55840D01*
X95719Y-55943D01*
X95719Y-56055D01*
X95761Y-56158D01*
X95840Y-56238D01*
X95943Y-56280D01*
X96055Y-56280D01*
X96059Y-56279D01*
X96320Y-56540D01*
X96319Y-56543D01*
X96319Y-56655D01*
X96361Y-56758D01*
X96440Y-56838D01*
X96543Y-56880D01*
X96655Y-56880D01*
X96758Y-56838D01*
X96838Y-56759D01*
X96880Y-56656D01*
X96880Y-56544D01*
X96880Y-57760D01*
X96010Y-56889D01*
X95959Y-56855D01*
X95900Y-56844D01*
X94961Y-56844D01*
X94961Y-56338D01*
X94961Y-56241D01*
X94930Y-56088D01*
X94843Y-55958D01*
X94713Y-55871D01*
X94560Y-55840D01*
X94406Y-55871D01*
X94276Y-55958D01*
X94189Y-56088D01*
X94158Y-56241D01*
X94158Y-56338D01*
X94189Y-56491D01*
X94276Y-56621D01*
X94406Y-56708D01*
X94560Y-56739D01*
X94713Y-56708D01*
X94843Y-56621D01*
X94930Y-56491D01*
X94961Y-56338D01*
X94961Y-56844D01*
X93961Y-56844D01*
X93961Y-56338D01*
X93961Y-56241D01*
X93930Y-56088D01*
X93843Y-55958D01*
X93713Y-55871D01*
X93560Y-55840D01*
X93406Y-55871D01*
X93276Y-55958D01*
X93189Y-56088D01*
X93158Y-56241D01*
X93158Y-56338D01*
X93189Y-56491D01*
X93276Y-56621D01*
X93406Y-56708D01*
X93560Y-56739D01*
X93713Y-56708D01*
X93843Y-56621D01*
X93930Y-56491D01*
X93961Y-56338D01*
X93961Y-56844D01*
X92961Y-56844D01*
X92961Y-56338D01*
X92961Y-56241D01*
X92961Y-50338D01*
X92961Y-50241D01*
X92930Y-50088D01*
X92843Y-49958D01*
X92713Y-49871D01*
X92560Y-49840D01*
X92406Y-49871D01*
X92276Y-49958D01*
X92189Y-50088D01*
X92158Y-50241D01*
X92158Y-50338D01*
X92189Y-50491D01*
X92276Y-50621D01*
X92406Y-50708D01*
X92560Y-50739D01*
X92713Y-50708D01*
X92843Y-50621D01*
X92930Y-50491D01*
X92961Y-50338D01*
X92961Y-56241D01*
X92930Y-56088D01*
X92843Y-55958D01*
X92713Y-55871D01*
X92560Y-55840D01*
X92461Y-55860D01*
X92461Y-51338D01*
X92461Y-51241D01*
X92430Y-51088D01*
X92343Y-50958D01*
X92213Y-50871D01*
X92060Y-50840D01*
X91961Y-50860D01*
X91961Y-50338D01*
X91961Y-50241D01*
X91930Y-50088D01*
X91843Y-49958D01*
X91713Y-49871D01*
X91560Y-49840D01*
X91406Y-49871D01*
X91276Y-49958D01*
X91189Y-50088D01*
X91158Y-50241D01*
X91158Y-50338D01*
X91189Y-50491D01*
X91276Y-50621D01*
X91406Y-50708D01*
X91560Y-50739D01*
X91713Y-50708D01*
X91843Y-50621D01*
X91930Y-50491D01*
X91961Y-50338D01*
X91961Y-50860D01*
X91906Y-50871D01*
X91776Y-50958D01*
X91689Y-51088D01*
X91658Y-51241D01*
X91658Y-51338D01*
X91689Y-51491D01*
X91776Y-51621D01*
X91906Y-51708D01*
X92060Y-51739D01*
X92213Y-51708D01*
X92343Y-51621D01*
X92430Y-51491D01*
X92461Y-51338D01*
X92461Y-55860D01*
X92406Y-55871D01*
X92276Y-55958D01*
X92189Y-56088D01*
X92158Y-56241D01*
X92158Y-56338D01*
X92189Y-56491D01*
X92276Y-56621D01*
X92406Y-56708D01*
X92560Y-56739D01*
X92713Y-56708D01*
X92843Y-56621D01*
X92930Y-56491D01*
X92961Y-56338D01*
X92961Y-56844D01*
X91961Y-56844D01*
X91961Y-56338D01*
X91961Y-56241D01*
X91930Y-56088D01*
X91843Y-55958D01*
X91713Y-55871D01*
X91560Y-55840D01*
X91461Y-55860D01*
X91461Y-51338D01*
X91461Y-51241D01*
X91430Y-51088D01*
X91343Y-50958D01*
X91213Y-50871D01*
X91060Y-50840D01*
X90961Y-50860D01*
X90961Y-50338D01*
X90961Y-50241D01*
X90930Y-50088D01*
X90843Y-49958D01*
X90713Y-49871D01*
X90560Y-49840D01*
X90406Y-49871D01*
X90276Y-49958D01*
X90189Y-50088D01*
X90158Y-50241D01*
X90158Y-50338D01*
X90189Y-50491D01*
X90276Y-50621D01*
X90406Y-50708D01*
X90560Y-50739D01*
X90713Y-50708D01*
X90843Y-50621D01*
X90930Y-50491D01*
X90961Y-50338D01*
X90961Y-50860D01*
X90906Y-50871D01*
X90776Y-50958D01*
X90689Y-51088D01*
X90658Y-51241D01*
X90658Y-51338D01*
X90689Y-51491D01*
X90776Y-51621D01*
X90906Y-51708D01*
X91060Y-51739D01*
X91213Y-51708D01*
X91343Y-51621D01*
X91430Y-51491D01*
X91461Y-51338D01*
X91461Y-55860D01*
X91406Y-55871D01*
X91276Y-55958D01*
X91189Y-56088D01*
X91158Y-56241D01*
X91158Y-56338D01*
X91189Y-56491D01*
X91276Y-56621D01*
X91406Y-56708D01*
X91560Y-56739D01*
X91713Y-56708D01*
X91843Y-56621D01*
X91930Y-56491D01*
X91961Y-56338D01*
X91961Y-56844D01*
X90961Y-56844D01*
X90961Y-56338D01*
X90961Y-56241D01*
X90930Y-56088D01*
X90843Y-55958D01*
X90713Y-55871D01*
X90560Y-55840D01*
X90406Y-55871D01*
X90276Y-55958D01*
X90189Y-56088D01*
X90158Y-56241D01*
X90158Y-56338D01*
X90189Y-56491D01*
X90276Y-56621D01*
X90406Y-56708D01*
X90560Y-56739D01*
X90713Y-56708D01*
X90843Y-56621D01*
X90930Y-56491D01*
X90961Y-56338D01*
X90961Y-56844D01*
X89961Y-56844D01*
X89961Y-56338D01*
X89961Y-56241D01*
X89961Y-50338D01*
X89961Y-50241D01*
X89930Y-50088D01*
X89843Y-49958D01*
X89713Y-49871D01*
X89560Y-49840D01*
X89406Y-49871D01*
X89276Y-49958D01*
X89189Y-50088D01*
X89158Y-50241D01*
X89158Y-50338D01*
X89189Y-50491D01*
X89276Y-50621D01*
X89406Y-50708D01*
X89560Y-50739D01*
X89713Y-50708D01*
X89843Y-50621D01*
X89930Y-50491D01*
X89961Y-50338D01*
X89961Y-56241D01*
X89930Y-56088D01*
X89843Y-55958D01*
X89713Y-55871D01*
X89560Y-55840D01*
X89406Y-55871D01*
X89276Y-55958D01*
X89189Y-56088D01*
X89158Y-56241D01*
X89158Y-56338D01*
X89189Y-56491D01*
X89276Y-56621D01*
X89406Y-56708D01*
X89560Y-56739D01*
X89713Y-56708D01*
X89843Y-56621D01*
X89930Y-56491D01*
X89961Y-56338D01*
X89961Y-56844D01*
X88961Y-56844D01*
X88961Y-56338D01*
X88961Y-56241D01*
X88961Y-50338D01*
X88961Y-50241D01*
X88930Y-50088D01*
X88843Y-49958D01*
X88713Y-49871D01*
X88560Y-49840D01*
X88406Y-49871D01*
X88276Y-49958D01*
X88189Y-50088D01*
X88158Y-50241D01*
X88158Y-50338D01*
X88189Y-50491D01*
X88276Y-50621D01*
X88406Y-50708D01*
X88560Y-50739D01*
X88713Y-50708D01*
X88843Y-50621D01*
X88930Y-50491D01*
X88961Y-50338D01*
X88961Y-56241D01*
X88930Y-56088D01*
X88843Y-55958D01*
X88713Y-55871D01*
X88560Y-55840D01*
X88461Y-55860D01*
X88461Y-51338D01*
X88461Y-51241D01*
X88430Y-51088D01*
X88343Y-50958D01*
X88213Y-50871D01*
X88060Y-50840D01*
X87961Y-50860D01*
X87961Y-50338D01*
X87961Y-50241D01*
X87930Y-50088D01*
X87843Y-49958D01*
X87713Y-49871D01*
X87560Y-49840D01*
X87406Y-49871D01*
X87276Y-49958D01*
X87189Y-50088D01*
X87158Y-50241D01*
X87158Y-50338D01*
X87189Y-50491D01*
X87276Y-50621D01*
X87406Y-50708D01*
X87560Y-50739D01*
X87713Y-50708D01*
X87843Y-50621D01*
X87930Y-50491D01*
X87961Y-50338D01*
X87961Y-50860D01*
X87906Y-50871D01*
X87776Y-50958D01*
X87689Y-51088D01*
X87658Y-51241D01*
X87658Y-51338D01*
X87689Y-51491D01*
X87776Y-51621D01*
X87906Y-51708D01*
X88060Y-51739D01*
X88213Y-51708D01*
X88343Y-51621D01*
X88430Y-51491D01*
X88461Y-51338D01*
X88461Y-55860D01*
X88406Y-55871D01*
X88276Y-55958D01*
X88189Y-56088D01*
X88158Y-56241D01*
X88158Y-56338D01*
X88189Y-56491D01*
X88276Y-56621D01*
X88406Y-56708D01*
X88560Y-56739D01*
X88713Y-56708D01*
X88843Y-56621D01*
X88930Y-56491D01*
X88961Y-56338D01*
X88961Y-56844D01*
X88334Y-56844D01*
X87939Y-56448D01*
X87961Y-56338D01*
X87961Y-56241D01*
X87930Y-56088D01*
X87843Y-55958D01*
X87713Y-55871D01*
X87560Y-55840D01*
X87461Y-55860D01*
X87461Y-51338D01*
X87461Y-51241D01*
X87430Y-51088D01*
X87343Y-50958D01*
X87213Y-50871D01*
X87060Y-50840D01*
X86961Y-50860D01*
X86961Y-50338D01*
X86961Y-50241D01*
X86930Y-50088D01*
X86843Y-49958D01*
X86713Y-49871D01*
X86560Y-49840D01*
X86406Y-49871D01*
X86276Y-49958D01*
X86189Y-50088D01*
X86158Y-50241D01*
X86158Y-50338D01*
X86189Y-50491D01*
X86276Y-50621D01*
X86406Y-50708D01*
X86560Y-50739D01*
X86713Y-50708D01*
X86843Y-50621D01*
X86930Y-50491D01*
X86961Y-50338D01*
X86961Y-50860D01*
X86906Y-50871D01*
X86776Y-50958D01*
X86689Y-51088D01*
X86658Y-51241D01*
X86658Y-51338D01*
X86689Y-51491D01*
X86776Y-51621D01*
X86906Y-51708D01*
X87060Y-51739D01*
X87213Y-51708D01*
X87343Y-51621D01*
X87430Y-51491D01*
X87461Y-51338D01*
X87461Y-55860D01*
X87406Y-55871D01*
X87276Y-55958D01*
X87189Y-56088D01*
X87158Y-56241D01*
X87158Y-56338D01*
X87189Y-56491D01*
X87276Y-56621D01*
X87406Y-56708D01*
X87560Y-56739D01*
X87713Y-56708D01*
X87740Y-56690D01*
X88148Y-57098D01*
X87883Y-57098D01*
X87844Y-57114D01*
X87814Y-57144D01*
X87798Y-57183D01*
X87798Y-57225D01*
X87798Y-57816D01*
X87814Y-57855D01*
X87844Y-57885D01*
X87883Y-57901D01*
X87925Y-57901D01*
X88516Y-57901D01*
X88555Y-57885D01*
X88585Y-57855D01*
X88601Y-57816D01*
X88601Y-57774D01*
X88601Y-57183D01*
X88589Y-57155D01*
X88934Y-57155D01*
X88916Y-57168D01*
X88829Y-57298D01*
X88798Y-57451D01*
X88798Y-57548D01*
X88829Y-57701D01*
X88916Y-57831D01*
X89046Y-57918D01*
X89200Y-57949D01*
X89353Y-57918D01*
X89483Y-57831D01*
X89570Y-57701D01*
X89601Y-57548D01*
X89601Y-57451D01*
X89570Y-57298D01*
X89483Y-57168D01*
X89465Y-57155D01*
X89934Y-57155D01*
X89916Y-57168D01*
X89829Y-57298D01*
X89798Y-57451D01*
X89798Y-57548D01*
X89829Y-57701D01*
X89916Y-57831D01*
X90046Y-57918D01*
X90200Y-57949D01*
X90353Y-57918D01*
X90483Y-57831D01*
X90570Y-57701D01*
X90601Y-57548D01*
X90601Y-57451D01*
X90570Y-57298D01*
X90483Y-57168D01*
X90465Y-57155D01*
X90934Y-57155D01*
X90916Y-57168D01*
X90829Y-57298D01*
X90798Y-57451D01*
X90798Y-57548D01*
X90829Y-57701D01*
X90916Y-57831D01*
X91046Y-57918D01*
X91200Y-57949D01*
X91353Y-57918D01*
X91483Y-57831D01*
X91570Y-57701D01*
X91601Y-57548D01*
X91601Y-57451D01*
X91570Y-57298D01*
X91483Y-57168D01*
X91465Y-57155D01*
X91934Y-57155D01*
X91916Y-57168D01*
X91829Y-57298D01*
X91798Y-57451D01*
X91798Y-57548D01*
X91829Y-57701D01*
X91916Y-57831D01*
X92046Y-57918D01*
X92200Y-57949D01*
X92353Y-57918D01*
X92483Y-57831D01*
X92570Y-57701D01*
X92601Y-57548D01*
X92601Y-57451D01*
X92570Y-57298D01*
X92483Y-57168D01*
X92465Y-57155D01*
X92934Y-57155D01*
X92916Y-57168D01*
X92829Y-57298D01*
X92798Y-57451D01*
X92798Y-57548D01*
X92829Y-57701D01*
X92916Y-57831D01*
X93046Y-57918D01*
X93200Y-57949D01*
X93353Y-57918D01*
X93483Y-57831D01*
X93570Y-57701D01*
X93601Y-57548D01*
X93601Y-57451D01*
X93570Y-57298D01*
X93483Y-57168D01*
X93465Y-57155D01*
X93934Y-57155D01*
X93916Y-57168D01*
X93829Y-57298D01*
X93798Y-57451D01*
X93798Y-57548D01*
X93829Y-57701D01*
X93916Y-57831D01*
X94046Y-57918D01*
X94200Y-57949D01*
X94353Y-57918D01*
X94483Y-57831D01*
X94570Y-57701D01*
X94601Y-57548D01*
X94601Y-57451D01*
X94570Y-57298D01*
X94483Y-57168D01*
X94465Y-57155D01*
X94805Y-57155D01*
X94718Y-57328D01*
X94755Y-57405D01*
X95105Y-57405D01*
X95105Y-57398D01*
X95294Y-57398D01*
X95294Y-57405D01*
X95644Y-57405D01*
X95681Y-57328D01*
X95594Y-57155D01*
X95835Y-57155D01*
X96789Y-58110D01*
X96789Y-58110D01*
X96815Y-58127D01*
X96826Y-58135D01*
X95681Y-58135D01*
X95681Y-57671D01*
X95644Y-57594D01*
X95294Y-57594D01*
X95294Y-57979D01*
X95369Y-58010D01*
X95447Y-57972D01*
X95594Y-57845D01*
X95681Y-57671D01*
X95681Y-58135D01*
X95105Y-58135D01*
X95105Y-57979D01*
X95105Y-57594D01*
X94755Y-57594D01*
X94718Y-57671D01*
X94805Y-57845D01*
X94952Y-57972D01*
X95030Y-58010D01*
X95105Y-57979D01*
X95105Y-58135D01*
X87041Y-58135D01*
X87041Y-56461D01*
X87041Y-56118D01*
X86954Y-55944D01*
X86807Y-55817D01*
X86729Y-55779D01*
X86654Y-55810D01*
X86654Y-56195D01*
X87004Y-56195D01*
X87041Y-56118D01*
X87041Y-56461D01*
X87004Y-56384D01*
X86654Y-56384D01*
X86654Y-56769D01*
X86729Y-56800D01*
X86807Y-56762D01*
X86954Y-56635D01*
X87041Y-56461D01*
X87041Y-58135D01*
X86465Y-58135D01*
X86465Y-56769D01*
X86465Y-56384D01*
X86465Y-56195D01*
X86465Y-55810D01*
X86390Y-55779D01*
X86312Y-55817D01*
X86165Y-55944D01*
X86078Y-56118D01*
X86115Y-56195D01*
X86465Y-56195D01*
X86465Y-56384D01*
X86115Y-56384D01*
X86078Y-56461D01*
X86165Y-56635D01*
X86312Y-56762D01*
X86390Y-56800D01*
X86465Y-56769D01*
X86465Y-58135D01*
X85961Y-58135D01*
X85961Y-56338D01*
X85961Y-56241D01*
X85961Y-50338D01*
X85961Y-50241D01*
X85930Y-50088D01*
X85843Y-49958D01*
X85713Y-49871D01*
X85560Y-49840D01*
X85406Y-49871D01*
X85276Y-49958D01*
X85189Y-50088D01*
X85158Y-50241D01*
X85158Y-50338D01*
X85189Y-50491D01*
X85276Y-50621D01*
X85406Y-50708D01*
X85560Y-50739D01*
X85713Y-50708D01*
X85843Y-50621D01*
X85930Y-50491D01*
X85961Y-50338D01*
X85961Y-56241D01*
X85930Y-56088D01*
X85843Y-55958D01*
X85713Y-55871D01*
X85560Y-55840D01*
X85406Y-55871D01*
X85276Y-55958D01*
X85189Y-56088D01*
X85158Y-56241D01*
X85158Y-56338D01*
X85189Y-56491D01*
X85276Y-56621D01*
X85406Y-56708D01*
X85560Y-56739D01*
X85713Y-56708D01*
X85843Y-56621D01*
X85930Y-56491D01*
X85961Y-56338D01*
X85961Y-58135D01*
X85041Y-58135D01*
X85041Y-50461D01*
X85041Y-50118D01*
X84954Y-49944D01*
X84807Y-49817D01*
X84729Y-49779D01*
X84654Y-49810D01*
X84654Y-50195D01*
X85004Y-50195D01*
X85041Y-50118D01*
X85041Y-50461D01*
X85004Y-50384D01*
X84654Y-50384D01*
X84654Y-50769D01*
X84729Y-50800D01*
X84807Y-50762D01*
X84954Y-50635D01*
X85041Y-50461D01*
X85041Y-58135D01*
X84961Y-58135D01*
X84961Y-56338D01*
X84961Y-56241D01*
X84930Y-56088D01*
X84843Y-55958D01*
X84713Y-55871D01*
X84560Y-55840D01*
X84465Y-55859D01*
X84465Y-50769D01*
X84465Y-50384D01*
X84465Y-50195D01*
X84465Y-49810D01*
X84390Y-49779D01*
X84312Y-49817D01*
X84165Y-49944D01*
X84078Y-50118D01*
X84115Y-50195D01*
X84465Y-50195D01*
X84465Y-50384D01*
X84115Y-50384D01*
X84078Y-50461D01*
X84165Y-50635D01*
X84312Y-50762D01*
X84390Y-50800D01*
X84465Y-50769D01*
X84465Y-55859D01*
X84406Y-55871D01*
X84276Y-55958D01*
X84189Y-56088D01*
X84158Y-56241D01*
X84158Y-56338D01*
X84189Y-56491D01*
X84276Y-56621D01*
X84406Y-56708D01*
X84560Y-56739D01*
X84713Y-56708D01*
X84843Y-56621D01*
X84930Y-56491D01*
X84961Y-56338D01*
X84961Y-58135D01*
X83961Y-58135D01*
X83961Y-56338D01*
X83961Y-56241D01*
X83961Y-50338D01*
X83961Y-50241D01*
X83930Y-50088D01*
X83843Y-49958D01*
X83713Y-49871D01*
X83560Y-49840D01*
X83406Y-49871D01*
X83276Y-49958D01*
X83189Y-50088D01*
X83158Y-50241D01*
X83158Y-50338D01*
X83189Y-50491D01*
X83276Y-50621D01*
X83406Y-50708D01*
X83560Y-50739D01*
X83713Y-50708D01*
X83843Y-50621D01*
X83930Y-50491D01*
X83961Y-50338D01*
X83961Y-56241D01*
X83930Y-56088D01*
X83843Y-55958D01*
X83713Y-55871D01*
X83560Y-55840D01*
X83406Y-55871D01*
X83276Y-55958D01*
X83189Y-56088D01*
X83158Y-56241D01*
X83158Y-56338D01*
X83189Y-56491D01*
X83276Y-56621D01*
X83406Y-56708D01*
X83560Y-56739D01*
X83713Y-56708D01*
X83843Y-56621D01*
X83930Y-56491D01*
X83961Y-56338D01*
X83961Y-58135D01*
X83070Y-58135D01*
X83070Y-54959D01*
X83070Y-54620D01*
X83032Y-54542D01*
X83009Y-54515D01*
X83009Y-53790D01*
X83009Y-52790D01*
X83009Y-51790D01*
X83009Y-50790D01*
X82978Y-50636D01*
X82891Y-50506D01*
X82761Y-50419D01*
X82608Y-50388D01*
X82511Y-50388D01*
X82358Y-50419D01*
X82228Y-50506D01*
X82141Y-50636D01*
X82110Y-50790D01*
X82141Y-50943D01*
X82228Y-51073D01*
X82358Y-51160D01*
X82511Y-51191D01*
X82608Y-51191D01*
X82761Y-51160D01*
X82891Y-51073D01*
X82978Y-50943D01*
X83009Y-50790D01*
X83009Y-51790D01*
X82978Y-51636D01*
X82891Y-51506D01*
X82761Y-51419D01*
X82608Y-51388D01*
X82511Y-51388D01*
X82358Y-51419D01*
X82228Y-51506D01*
X82141Y-51636D01*
X82110Y-51790D01*
X82141Y-51943D01*
X82228Y-52073D01*
X82358Y-52160D01*
X82511Y-52191D01*
X82608Y-52191D01*
X82761Y-52160D01*
X82891Y-52073D01*
X82978Y-51943D01*
X83009Y-51790D01*
X83009Y-52790D01*
X82978Y-52636D01*
X82891Y-52506D01*
X82761Y-52419D01*
X82608Y-52388D01*
X82511Y-52388D01*
X82358Y-52419D01*
X82228Y-52506D01*
X82141Y-52636D01*
X82110Y-52790D01*
X82141Y-52943D01*
X82228Y-53073D01*
X82358Y-53160D01*
X82511Y-53191D01*
X82608Y-53191D01*
X82761Y-53160D01*
X82891Y-53073D01*
X82978Y-52943D01*
X83009Y-52790D01*
X83009Y-53790D01*
X82978Y-53636D01*
X82891Y-53506D01*
X82761Y-53419D01*
X82608Y-53388D01*
X82511Y-53388D01*
X82358Y-53419D01*
X82228Y-53506D01*
X82141Y-53636D01*
X82110Y-53790D01*
X82141Y-53943D01*
X82228Y-54073D01*
X82358Y-54160D01*
X82511Y-54191D01*
X82608Y-54191D01*
X82761Y-54160D01*
X82891Y-54073D01*
X82978Y-53943D01*
X83009Y-53790D01*
X83009Y-54515D01*
X82905Y-54395D01*
X82731Y-54308D01*
X82654Y-54345D01*
X82654Y-54695D01*
X83039Y-54695D01*
X83070Y-54620D01*
X83070Y-54959D01*
X83039Y-54884D01*
X82654Y-54884D01*
X82654Y-55234D01*
X82731Y-55271D01*
X82905Y-55184D01*
X83032Y-55037D01*
X83070Y-54959D01*
X83070Y-58135D01*
X83009Y-58135D01*
X83009Y-55790D01*
X82978Y-55636D01*
X82891Y-55506D01*
X82761Y-55419D01*
X82608Y-55388D01*
X82511Y-55388D01*
X82465Y-55397D01*
X82465Y-55234D01*
X82465Y-54884D01*
X82465Y-54695D01*
X82465Y-54345D01*
X82388Y-54308D01*
X82214Y-54395D01*
X82087Y-54542D01*
X82049Y-54620D01*
X82080Y-54695D01*
X82465Y-54695D01*
X82465Y-54884D01*
X82080Y-54884D01*
X82049Y-54959D01*
X82087Y-55037D01*
X82214Y-55184D01*
X82388Y-55271D01*
X82465Y-55234D01*
X82465Y-55397D01*
X82358Y-55419D01*
X82228Y-55506D01*
X82141Y-55636D01*
X82110Y-55790D01*
X82141Y-55943D01*
X82228Y-56073D01*
X82358Y-56160D01*
X82511Y-56191D01*
X82608Y-56191D01*
X82761Y-56160D01*
X82891Y-56073D01*
X82978Y-55943D01*
X83009Y-55790D01*
X83009Y-58135D01*
X82010Y-58135D01*
X82010Y-53569D01*
X82010Y-53230D01*
X81972Y-53152D01*
X81845Y-53005D01*
X81671Y-52918D01*
X81594Y-52955D01*
X81594Y-53305D01*
X81979Y-53305D01*
X82010Y-53230D01*
X82010Y-53569D01*
X81979Y-53494D01*
X81594Y-53494D01*
X81594Y-53844D01*
X81671Y-53881D01*
X81845Y-53794D01*
X81972Y-53647D01*
X82010Y-53569D01*
X82010Y-58135D01*
X81405Y-58135D01*
X81405Y-53844D01*
X81405Y-53494D01*
X81405Y-53305D01*
X81405Y-52955D01*
X81328Y-52918D01*
X81154Y-53005D01*
X81027Y-53152D01*
X80989Y-53230D01*
X81020Y-53305D01*
X81405Y-53305D01*
X81405Y-53494D01*
X81020Y-53494D01*
X80989Y-53569D01*
X81027Y-53647D01*
X81154Y-53794D01*
X81328Y-53881D01*
X81405Y-53844D01*
X81405Y-58135D01*
X80864Y-58135D01*
X80864Y-49664D01*
X100126Y-49664D01*
X100089Y-49689D01*
X99789Y-49989D01*
X99755Y-50040D01*
X99754Y-50048D01*
X99684Y-50076D01*
X99577Y-50183D01*
X99519Y-50323D01*
X99519Y-50475D01*
X99576Y-50615D01*
X99683Y-50722D01*
X99823Y-50780D01*
X99975Y-50780D01*
X100115Y-50723D01*
X100222Y-50616D01*
X100280Y-50476D01*
X100280Y-50324D01*
X100223Y-50184D01*
X100129Y-50090D01*
X100264Y-49955D01*
X101693Y-49955D01*
X101663Y-50030D01*
X101900Y-50266D01*
X101905Y-50261D01*
X102038Y-50394D01*
X102033Y-50400D01*
X102038Y-50405D01*
X101905Y-50538D01*
X101900Y-50533D01*
X101766Y-50666D01*
X101766Y-50400D01*
X101530Y-50163D01*
X101455Y-50193D01*
X101410Y-50379D01*
X101439Y-50568D01*
X101455Y-50606D01*
X101530Y-50636D01*
X101766Y-50400D01*
X101766Y-50666D01*
X101663Y-50769D01*
X101693Y-50844D01*
X101879Y-50889D01*
X102068Y-50860D01*
X102106Y-50844D01*
X102136Y-50769D01*
X102136Y-50769D01*
X102180Y-50813D01*
X102244Y-50749D01*
X102244Y-53134D01*
X102231Y-53116D01*
X102136Y-53052D01*
X102101Y-53029D01*
X101948Y-52998D01*
X101851Y-52998D01*
X101698Y-53029D01*
X101568Y-53116D01*
X101481Y-53246D01*
X101450Y-53400D01*
X101481Y-53553D01*
X101568Y-53683D01*
X101698Y-53770D01*
X101851Y-53801D01*
X101948Y-53801D01*
X102101Y-53770D01*
X102231Y-53683D01*
X102244Y-53665D01*
X102244Y-57635D01*
M02*
