M48
INCH,TZ
T1C0.025
T2C0.032
T3C0.039
%
G90
G05
T1
X094100Y-052600
X095800Y-051500
X096000Y-056000
X096600Y-056600
X098400Y-056300
X099000Y-051700
X100300Y-057500
T2
X098900Y-050400
X099900Y-050400
X100900Y-050400
X101900Y-050400
T3
X081500Y-053400
X082560Y-050790
X082560Y-051790
X082560Y-052790
X082560Y-053790
X082560Y-054790
X082560Y-055790
X083560Y-050290
X083560Y-056290
X084560Y-050290
X084560Y-056290
X085560Y-050290
X085560Y-056290
X086560Y-050290
X086560Y-056290
X087060Y-051290
X087560Y-050290
X087560Y-056290
X088060Y-051290
X088200Y-057500
X088560Y-050290
X088560Y-056290
X089200Y-057500
X089560Y-050290
X089560Y-056290
X090200Y-057500
X090560Y-050290
X090560Y-056290
X091060Y-051290
X091200Y-057500
X091560Y-050290
X091560Y-056290
X092060Y-051290
X092200Y-057500
X092560Y-050290
X092560Y-056290
X093200Y-057500
X093560Y-050290
X093560Y-056290
X094200Y-057500
X094560Y-050290
X094560Y-056290
X095200Y-057500
X101900Y-053400
T0
M30
