G04 (created by PCBNEW (2013-jul-07)-stable) date Thu 14 Aug 2014 04:05:27 PM EDT*
%MOIN*%
G04 Gerber Fmt 3.4, Leading zero omitted, Abs format*
%FSLAX34Y34*%
G01*
G70*
G90*
G04 APERTURE LIST*
%ADD10C,0.00590551*%
%ADD11C,0.00787402*%
%ADD12R,0.0590551X0.0590551*%
%ADD13O,0.0590551X0.0669291*%
%ADD14R,0.055X0.055*%
%ADD15C,0.055*%
%ADD16R,0.106X0.063*%
%ADD17R,0.0512X0.059*%
%ADD18O,0.0669291X0.0590551*%
%ADD19R,0.0393X0.0275*%
%ADD20R,0.0629X0.0511*%
%ADD21R,0.0511X0.059*%
%ADD22R,0.019685X0.023622*%
%ADD23R,0.023622X0.019685*%
G04 APERTURE END LIST*
G54D10*
X80995Y-57235D02*
X81136Y-57235D01*
X80967Y-57319D02*
X81066Y-57024D01*
X81164Y-57319D01*
X81262Y-57319D02*
X81262Y-57122D01*
X81262Y-57178D02*
X81276Y-57150D01*
X81291Y-57136D01*
X81319Y-57122D01*
X81347Y-57122D01*
X81572Y-57319D02*
X81572Y-57024D01*
X81572Y-57305D02*
X81544Y-57319D01*
X81487Y-57319D01*
X81459Y-57305D01*
X81445Y-57291D01*
X81431Y-57263D01*
X81431Y-57178D01*
X81445Y-57150D01*
X81459Y-57136D01*
X81487Y-57122D01*
X81544Y-57122D01*
X81572Y-57136D01*
X81839Y-57122D02*
X81839Y-57319D01*
X81712Y-57122D02*
X81712Y-57277D01*
X81726Y-57305D01*
X81755Y-57319D01*
X81797Y-57319D01*
X81825Y-57305D01*
X81839Y-57291D01*
X81979Y-57319D02*
X81979Y-57122D01*
X81979Y-57024D02*
X81965Y-57038D01*
X81979Y-57052D01*
X81994Y-57038D01*
X81979Y-57024D01*
X81979Y-57052D01*
X82120Y-57122D02*
X82120Y-57319D01*
X82120Y-57150D02*
X82134Y-57136D01*
X82162Y-57122D01*
X82204Y-57122D01*
X82233Y-57136D01*
X82247Y-57164D01*
X82247Y-57319D01*
X82429Y-57319D02*
X82401Y-57305D01*
X82387Y-57291D01*
X82373Y-57263D01*
X82373Y-57178D01*
X82387Y-57150D01*
X82401Y-57136D01*
X82429Y-57122D01*
X82472Y-57122D01*
X82500Y-57136D01*
X82514Y-57150D01*
X82528Y-57178D01*
X82528Y-57263D01*
X82514Y-57291D01*
X82500Y-57305D01*
X82472Y-57319D01*
X82429Y-57319D01*
X82879Y-57319D02*
X82879Y-57024D01*
X82992Y-57024D01*
X83020Y-57038D01*
X83034Y-57052D01*
X83048Y-57080D01*
X83048Y-57122D01*
X83034Y-57150D01*
X83020Y-57164D01*
X82992Y-57178D01*
X82879Y-57178D01*
X83175Y-57319D02*
X83175Y-57122D01*
X83175Y-57178D02*
X83189Y-57150D01*
X83203Y-57136D01*
X83231Y-57122D01*
X83259Y-57122D01*
X83470Y-57305D02*
X83442Y-57319D01*
X83386Y-57319D01*
X83357Y-57305D01*
X83343Y-57277D01*
X83343Y-57164D01*
X83357Y-57136D01*
X83386Y-57122D01*
X83442Y-57122D01*
X83470Y-57136D01*
X83484Y-57164D01*
X83484Y-57192D01*
X83343Y-57221D01*
X83596Y-57305D02*
X83625Y-57319D01*
X83681Y-57319D01*
X83709Y-57305D01*
X83723Y-57277D01*
X83723Y-57263D01*
X83709Y-57235D01*
X83681Y-57221D01*
X83639Y-57221D01*
X83611Y-57207D01*
X83596Y-57178D01*
X83596Y-57164D01*
X83611Y-57136D01*
X83639Y-57122D01*
X83681Y-57122D01*
X83709Y-57136D01*
X83835Y-57305D02*
X83864Y-57319D01*
X83920Y-57319D01*
X83948Y-57305D01*
X83962Y-57277D01*
X83962Y-57263D01*
X83948Y-57235D01*
X83920Y-57221D01*
X83878Y-57221D01*
X83850Y-57207D01*
X83835Y-57178D01*
X83835Y-57164D01*
X83850Y-57136D01*
X83878Y-57122D01*
X83920Y-57122D01*
X83948Y-57136D01*
X84215Y-57122D02*
X84215Y-57319D01*
X84089Y-57122D02*
X84089Y-57277D01*
X84103Y-57305D01*
X84131Y-57319D01*
X84173Y-57319D01*
X84201Y-57305D01*
X84215Y-57291D01*
X84356Y-57319D02*
X84356Y-57122D01*
X84356Y-57178D02*
X84370Y-57150D01*
X84384Y-57136D01*
X84412Y-57122D01*
X84440Y-57122D01*
X84651Y-57305D02*
X84623Y-57319D01*
X84567Y-57319D01*
X84539Y-57305D01*
X84524Y-57277D01*
X84524Y-57164D01*
X84539Y-57136D01*
X84567Y-57122D01*
X84623Y-57122D01*
X84651Y-57136D01*
X84665Y-57164D01*
X84665Y-57192D01*
X84524Y-57221D01*
X84974Y-57024D02*
X85143Y-57024D01*
X85059Y-57319D02*
X85059Y-57024D01*
X85354Y-57305D02*
X85326Y-57319D01*
X85270Y-57319D01*
X85242Y-57305D01*
X85228Y-57277D01*
X85228Y-57164D01*
X85242Y-57136D01*
X85270Y-57122D01*
X85326Y-57122D01*
X85354Y-57136D01*
X85368Y-57164D01*
X85368Y-57192D01*
X85228Y-57221D01*
X85495Y-57319D02*
X85495Y-57122D01*
X85495Y-57150D02*
X85509Y-57136D01*
X85537Y-57122D01*
X85579Y-57122D01*
X85607Y-57136D01*
X85621Y-57164D01*
X85621Y-57319D01*
X85621Y-57164D02*
X85635Y-57136D01*
X85663Y-57122D01*
X85706Y-57122D01*
X85734Y-57136D01*
X85748Y-57164D01*
X85748Y-57319D01*
X85888Y-57122D02*
X85888Y-57417D01*
X85888Y-57136D02*
X85916Y-57122D01*
X85973Y-57122D01*
X86001Y-57136D01*
X86015Y-57150D01*
X86029Y-57178D01*
X86029Y-57263D01*
X86015Y-57291D01*
X86001Y-57305D01*
X85973Y-57319D01*
X85916Y-57319D01*
X85888Y-57305D01*
X86268Y-57305D02*
X86240Y-57319D01*
X86184Y-57319D01*
X86156Y-57305D01*
X86141Y-57277D01*
X86141Y-57164D01*
X86156Y-57136D01*
X86184Y-57122D01*
X86240Y-57122D01*
X86268Y-57136D01*
X86282Y-57164D01*
X86282Y-57192D01*
X86141Y-57221D01*
X86409Y-57319D02*
X86409Y-57122D01*
X86409Y-57178D02*
X86423Y-57150D01*
X86437Y-57136D01*
X86465Y-57122D01*
X86493Y-57122D01*
X86718Y-57319D02*
X86718Y-57164D01*
X86704Y-57136D01*
X86676Y-57122D01*
X86620Y-57122D01*
X86591Y-57136D01*
X86718Y-57305D02*
X86690Y-57319D01*
X86620Y-57319D01*
X86591Y-57305D01*
X86577Y-57277D01*
X86577Y-57249D01*
X86591Y-57221D01*
X86620Y-57207D01*
X86690Y-57207D01*
X86718Y-57192D01*
X86816Y-57122D02*
X86929Y-57122D01*
X86859Y-57024D02*
X86859Y-57277D01*
X86873Y-57305D01*
X86901Y-57319D01*
X86929Y-57319D01*
X87154Y-57122D02*
X87154Y-57319D01*
X87027Y-57122D02*
X87027Y-57277D01*
X87041Y-57305D01*
X87069Y-57319D01*
X87112Y-57319D01*
X87140Y-57305D01*
X87154Y-57291D01*
X87294Y-57319D02*
X87294Y-57122D01*
X87294Y-57178D02*
X87308Y-57150D01*
X87323Y-57136D01*
X87351Y-57122D01*
X87379Y-57122D01*
X87590Y-57305D02*
X87562Y-57319D01*
X87505Y-57319D01*
X87477Y-57305D01*
X87463Y-57277D01*
X87463Y-57164D01*
X87477Y-57136D01*
X87505Y-57122D01*
X87562Y-57122D01*
X87590Y-57136D01*
X87604Y-57164D01*
X87604Y-57192D01*
X87463Y-57221D01*
X82486Y-57791D02*
X82486Y-57496D01*
X82486Y-57637D02*
X82654Y-57637D01*
X82654Y-57791D02*
X82654Y-57496D01*
X82922Y-57595D02*
X82922Y-57791D01*
X82795Y-57595D02*
X82795Y-57749D01*
X82809Y-57777D01*
X82837Y-57791D01*
X82879Y-57791D01*
X82907Y-57777D01*
X82922Y-57763D01*
X83062Y-57791D02*
X83062Y-57595D01*
X83062Y-57623D02*
X83076Y-57609D01*
X83104Y-57595D01*
X83147Y-57595D01*
X83175Y-57609D01*
X83189Y-57637D01*
X83189Y-57791D01*
X83189Y-57637D02*
X83203Y-57609D01*
X83231Y-57595D01*
X83273Y-57595D01*
X83301Y-57609D01*
X83315Y-57637D01*
X83315Y-57791D01*
X83456Y-57791D02*
X83456Y-57595D01*
X83456Y-57496D02*
X83442Y-57510D01*
X83456Y-57524D01*
X83470Y-57510D01*
X83456Y-57496D01*
X83456Y-57524D01*
X83723Y-57791D02*
X83723Y-57496D01*
X83723Y-57777D02*
X83695Y-57791D01*
X83639Y-57791D01*
X83611Y-57777D01*
X83596Y-57763D01*
X83582Y-57735D01*
X83582Y-57651D01*
X83596Y-57623D01*
X83611Y-57609D01*
X83639Y-57595D01*
X83695Y-57595D01*
X83723Y-57609D01*
X83864Y-57791D02*
X83864Y-57595D01*
X83864Y-57496D02*
X83850Y-57510D01*
X83864Y-57524D01*
X83878Y-57510D01*
X83864Y-57496D01*
X83864Y-57524D01*
X83962Y-57595D02*
X84075Y-57595D01*
X84004Y-57496D02*
X84004Y-57749D01*
X84018Y-57777D01*
X84046Y-57791D01*
X84075Y-57791D01*
X84145Y-57595D02*
X84215Y-57791D01*
X84285Y-57595D02*
X84215Y-57791D01*
X84187Y-57862D01*
X84173Y-57876D01*
X84145Y-57890D01*
X84623Y-57791D02*
X84623Y-57496D01*
X84721Y-57707D01*
X84820Y-57496D01*
X84820Y-57791D01*
X85003Y-57791D02*
X84974Y-57777D01*
X84960Y-57763D01*
X84946Y-57735D01*
X84946Y-57651D01*
X84960Y-57623D01*
X84974Y-57609D01*
X85003Y-57595D01*
X85045Y-57595D01*
X85073Y-57609D01*
X85087Y-57623D01*
X85101Y-57651D01*
X85101Y-57735D01*
X85087Y-57763D01*
X85073Y-57777D01*
X85045Y-57791D01*
X85003Y-57791D01*
X85228Y-57595D02*
X85228Y-57791D01*
X85228Y-57623D02*
X85242Y-57609D01*
X85270Y-57595D01*
X85312Y-57595D01*
X85340Y-57609D01*
X85354Y-57637D01*
X85354Y-57791D01*
X85495Y-57791D02*
X85495Y-57595D01*
X85495Y-57496D02*
X85481Y-57510D01*
X85495Y-57524D01*
X85509Y-57510D01*
X85495Y-57496D01*
X85495Y-57524D01*
X85593Y-57595D02*
X85706Y-57595D01*
X85635Y-57496D02*
X85635Y-57749D01*
X85649Y-57777D01*
X85677Y-57791D01*
X85706Y-57791D01*
X85846Y-57791D02*
X85818Y-57777D01*
X85804Y-57763D01*
X85790Y-57735D01*
X85790Y-57651D01*
X85804Y-57623D01*
X85818Y-57609D01*
X85846Y-57595D01*
X85888Y-57595D01*
X85916Y-57609D01*
X85931Y-57623D01*
X85945Y-57651D01*
X85945Y-57735D01*
X85931Y-57763D01*
X85916Y-57777D01*
X85888Y-57791D01*
X85846Y-57791D01*
X86071Y-57791D02*
X86071Y-57595D01*
X86071Y-57651D02*
X86085Y-57623D01*
X86099Y-57609D01*
X86127Y-57595D01*
X86156Y-57595D01*
X87800Y-53135D02*
X87940Y-53135D01*
X87771Y-53219D02*
X87870Y-52924D01*
X87968Y-53219D01*
X88235Y-53219D02*
X88137Y-53078D01*
X88067Y-53219D02*
X88067Y-52924D01*
X88179Y-52924D01*
X88207Y-52938D01*
X88221Y-52952D01*
X88235Y-52980D01*
X88235Y-53022D01*
X88221Y-53050D01*
X88207Y-53064D01*
X88179Y-53078D01*
X88067Y-53078D01*
X88362Y-53219D02*
X88362Y-52924D01*
X88432Y-52924D01*
X88475Y-52938D01*
X88503Y-52966D01*
X88517Y-52994D01*
X88531Y-53050D01*
X88531Y-53092D01*
X88517Y-53149D01*
X88503Y-53177D01*
X88475Y-53205D01*
X88432Y-53219D01*
X88362Y-53219D01*
X88657Y-52924D02*
X88657Y-53163D01*
X88671Y-53191D01*
X88685Y-53205D01*
X88714Y-53219D01*
X88770Y-53219D01*
X88798Y-53205D01*
X88812Y-53191D01*
X88826Y-53163D01*
X88826Y-52924D01*
X88967Y-53219D02*
X88967Y-52924D01*
X89107Y-53219D02*
X89107Y-52924D01*
X89276Y-53219D01*
X89276Y-52924D01*
X89473Y-52924D02*
X89529Y-52924D01*
X89557Y-52938D01*
X89585Y-52966D01*
X89599Y-53022D01*
X89599Y-53121D01*
X89585Y-53177D01*
X89557Y-53205D01*
X89529Y-53219D01*
X89473Y-53219D01*
X89445Y-53205D01*
X89417Y-53177D01*
X89403Y-53121D01*
X89403Y-53022D01*
X89417Y-52966D01*
X89445Y-52938D01*
X89473Y-52924D01*
X87743Y-53691D02*
X87743Y-53396D01*
X87856Y-53396D01*
X87884Y-53410D01*
X87898Y-53424D01*
X87912Y-53452D01*
X87912Y-53495D01*
X87898Y-53523D01*
X87884Y-53537D01*
X87856Y-53551D01*
X87743Y-53551D01*
X88207Y-53691D02*
X88109Y-53551D01*
X88039Y-53691D02*
X88039Y-53396D01*
X88151Y-53396D01*
X88179Y-53410D01*
X88193Y-53424D01*
X88207Y-53452D01*
X88207Y-53495D01*
X88193Y-53523D01*
X88179Y-53537D01*
X88151Y-53551D01*
X88039Y-53551D01*
X88390Y-53396D02*
X88446Y-53396D01*
X88475Y-53410D01*
X88503Y-53438D01*
X88517Y-53495D01*
X88517Y-53593D01*
X88503Y-53649D01*
X88475Y-53677D01*
X88446Y-53691D01*
X88390Y-53691D01*
X88362Y-53677D01*
X88334Y-53649D01*
X88320Y-53593D01*
X88320Y-53495D01*
X88334Y-53438D01*
X88362Y-53410D01*
X88390Y-53396D01*
X88868Y-53691D02*
X88868Y-53396D01*
X88967Y-53607D01*
X89065Y-53396D01*
X89065Y-53691D01*
X89206Y-53691D02*
X89206Y-53396D01*
X89346Y-53691D02*
X89346Y-53396D01*
X89515Y-53691D01*
X89515Y-53396D01*
X89656Y-53691D02*
X89656Y-53396D01*
G54D11*
X98400Y-55300D02*
X98200Y-55100D01*
X98400Y-55400D02*
X98400Y-55300D01*
X98600Y-55600D02*
X98400Y-55400D01*
G54D10*
X97975Y-54724D02*
X97975Y-54963D01*
X97989Y-54991D01*
X98003Y-55005D01*
X98031Y-55019D01*
X98087Y-55019D01*
X98115Y-55005D01*
X98129Y-54991D01*
X98143Y-54963D01*
X98143Y-54724D01*
X98439Y-55019D02*
X98270Y-55019D01*
X98354Y-55019D02*
X98354Y-54724D01*
X98326Y-54766D01*
X98298Y-54794D01*
X98270Y-54808D01*
X97150Y-55191D02*
X97136Y-55205D01*
X97094Y-55219D01*
X97066Y-55219D01*
X97024Y-55205D01*
X96996Y-55177D01*
X96982Y-55149D01*
X96967Y-55092D01*
X96967Y-55050D01*
X96982Y-54994D01*
X96996Y-54966D01*
X97024Y-54938D01*
X97066Y-54924D01*
X97094Y-54924D01*
X97136Y-54938D01*
X97150Y-54952D01*
X97432Y-55219D02*
X97263Y-55219D01*
X97347Y-55219D02*
X97347Y-54924D01*
X97319Y-54966D01*
X97291Y-54994D01*
X97263Y-55008D01*
X97850Y-57819D02*
X97710Y-57819D01*
X97710Y-57524D01*
X98103Y-57819D02*
X97935Y-57819D01*
X98019Y-57819D02*
X98019Y-57524D01*
X97991Y-57566D01*
X97963Y-57594D01*
X97935Y-57608D01*
X101519Y-56517D02*
X101224Y-56517D01*
X101224Y-56447D01*
X101238Y-56405D01*
X101266Y-56377D01*
X101294Y-56363D01*
X101350Y-56349D01*
X101392Y-56349D01*
X101449Y-56363D01*
X101477Y-56377D01*
X101505Y-56405D01*
X101519Y-56447D01*
X101519Y-56517D01*
X101519Y-56067D02*
X101519Y-56236D01*
X101519Y-56152D02*
X101224Y-56152D01*
X101266Y-56180D01*
X101294Y-56208D01*
X101308Y-56236D01*
X99250Y-54591D02*
X99236Y-54605D01*
X99194Y-54619D01*
X99166Y-54619D01*
X99124Y-54605D01*
X99096Y-54577D01*
X99082Y-54549D01*
X99067Y-54492D01*
X99067Y-54450D01*
X99082Y-54394D01*
X99096Y-54366D01*
X99124Y-54338D01*
X99166Y-54324D01*
X99194Y-54324D01*
X99236Y-54338D01*
X99250Y-54352D01*
X99363Y-54352D02*
X99377Y-54338D01*
X99405Y-54324D01*
X99475Y-54324D01*
X99503Y-54338D01*
X99517Y-54352D01*
X99532Y-54380D01*
X99532Y-54408D01*
X99517Y-54450D01*
X99349Y-54619D01*
X99532Y-54619D01*
X96750Y-51791D02*
X96736Y-51805D01*
X96694Y-51819D01*
X96666Y-51819D01*
X96624Y-51805D01*
X96596Y-51777D01*
X96582Y-51749D01*
X96567Y-51692D01*
X96567Y-51650D01*
X96582Y-51594D01*
X96596Y-51566D01*
X96624Y-51538D01*
X96666Y-51524D01*
X96694Y-51524D01*
X96736Y-51538D01*
X96750Y-51552D01*
X96849Y-51524D02*
X97032Y-51524D01*
X96933Y-51636D01*
X96975Y-51636D01*
X97003Y-51650D01*
X97017Y-51664D01*
X97032Y-51692D01*
X97032Y-51763D01*
X97017Y-51791D01*
X97003Y-51805D01*
X96975Y-51819D01*
X96891Y-51819D01*
X96863Y-51805D01*
X96849Y-51791D01*
X99874Y-51319D02*
X99874Y-51024D01*
X99944Y-51024D01*
X99986Y-51038D01*
X100014Y-51066D01*
X100028Y-51094D01*
X100043Y-51150D01*
X100043Y-51192D01*
X100028Y-51249D01*
X100014Y-51277D01*
X99986Y-51305D01*
X99944Y-51319D01*
X99874Y-51319D01*
X100169Y-51319D02*
X100169Y-51024D01*
X100169Y-51164D02*
X100338Y-51164D01*
X100338Y-51319D02*
X100338Y-51024D01*
X100436Y-51024D02*
X100605Y-51024D01*
X100521Y-51319D02*
X100521Y-51024D01*
X100689Y-51052D02*
X100703Y-51038D01*
X100732Y-51024D01*
X100802Y-51024D01*
X100830Y-51038D01*
X100844Y-51052D01*
X100858Y-51080D01*
X100858Y-51108D01*
X100844Y-51150D01*
X100675Y-51319D01*
X100858Y-51319D01*
X100971Y-51052D02*
X100985Y-51038D01*
X101013Y-51024D01*
X101083Y-51024D01*
X101111Y-51038D01*
X101125Y-51052D01*
X101139Y-51080D01*
X101139Y-51108D01*
X101125Y-51150D01*
X100956Y-51319D01*
X101139Y-51319D01*
X94750Y-52719D02*
X94652Y-52578D01*
X94582Y-52719D02*
X94582Y-52424D01*
X94694Y-52424D01*
X94722Y-52438D01*
X94736Y-52452D01*
X94750Y-52480D01*
X94750Y-52522D01*
X94736Y-52550D01*
X94722Y-52564D01*
X94694Y-52578D01*
X94582Y-52578D01*
X95032Y-52719D02*
X94863Y-52719D01*
X94947Y-52719D02*
X94947Y-52424D01*
X94919Y-52466D01*
X94891Y-52494D01*
X94863Y-52508D01*
X94750Y-53619D02*
X94652Y-53478D01*
X94582Y-53619D02*
X94582Y-53324D01*
X94694Y-53324D01*
X94722Y-53338D01*
X94736Y-53352D01*
X94750Y-53380D01*
X94750Y-53422D01*
X94736Y-53450D01*
X94722Y-53464D01*
X94694Y-53478D01*
X94582Y-53478D01*
X94863Y-53352D02*
X94877Y-53338D01*
X94905Y-53324D01*
X94975Y-53324D01*
X95003Y-53338D01*
X95017Y-53352D01*
X95032Y-53380D01*
X95032Y-53408D01*
X95017Y-53450D01*
X94849Y-53619D01*
X95032Y-53619D01*
X98964Y-53817D02*
X98978Y-53774D01*
X98992Y-53760D01*
X99021Y-53746D01*
X99063Y-53746D01*
X99091Y-53760D01*
X99105Y-53774D01*
X99119Y-53803D01*
X99119Y-53915D01*
X98824Y-53915D01*
X98824Y-53817D01*
X98838Y-53788D01*
X98852Y-53774D01*
X98880Y-53760D01*
X98908Y-53760D01*
X98936Y-53774D01*
X98950Y-53788D01*
X98964Y-53817D01*
X98964Y-53915D01*
X99119Y-53620D02*
X98824Y-53620D01*
X99035Y-53521D01*
X98824Y-53423D01*
X99119Y-53423D01*
X99119Y-53282D02*
X98824Y-53282D01*
X98824Y-53170D01*
X98838Y-53142D01*
X98852Y-53128D01*
X98880Y-53114D01*
X98922Y-53114D01*
X98950Y-53128D01*
X98964Y-53142D01*
X98978Y-53170D01*
X98978Y-53282D01*
X99119Y-52832D02*
X99119Y-53001D01*
X99119Y-52917D02*
X98824Y-52917D01*
X98866Y-52945D01*
X98894Y-52973D01*
X98908Y-53001D01*
X98950Y-52664D02*
X98936Y-52692D01*
X98922Y-52706D01*
X98894Y-52720D01*
X98880Y-52720D01*
X98852Y-52706D01*
X98838Y-52692D01*
X98824Y-52664D01*
X98824Y-52607D01*
X98838Y-52579D01*
X98852Y-52565D01*
X98880Y-52551D01*
X98894Y-52551D01*
X98922Y-52565D01*
X98936Y-52579D01*
X98950Y-52607D01*
X98950Y-52664D01*
X98964Y-52692D01*
X98978Y-52706D01*
X99007Y-52720D01*
X99063Y-52720D01*
X99091Y-52706D01*
X99105Y-52692D01*
X99119Y-52664D01*
X99119Y-52607D01*
X99105Y-52579D01*
X99091Y-52565D01*
X99063Y-52551D01*
X99007Y-52551D01*
X98978Y-52565D01*
X98964Y-52579D01*
X98950Y-52607D01*
X98824Y-52368D02*
X98824Y-52340D01*
X98838Y-52312D01*
X98852Y-52298D01*
X98880Y-52284D01*
X98936Y-52270D01*
X99007Y-52270D01*
X99063Y-52284D01*
X99091Y-52298D01*
X99105Y-52312D01*
X99119Y-52340D01*
X99119Y-52368D01*
X99105Y-52396D01*
X99091Y-52411D01*
X99063Y-52425D01*
X99007Y-52439D01*
X98936Y-52439D01*
X98880Y-52425D01*
X98852Y-52411D01*
X98838Y-52396D01*
X98824Y-52368D01*
G54D12*
X88200Y-57500D03*
G54D13*
X89200Y-57500D03*
X90200Y-57500D03*
X91200Y-57500D03*
X92200Y-57500D03*
X93200Y-57500D03*
X94200Y-57500D03*
X95200Y-57500D03*
G54D14*
X98900Y-50400D03*
G54D15*
X99900Y-50400D03*
X100900Y-50400D03*
X101900Y-50400D03*
G54D16*
X97700Y-56850D03*
X97700Y-55750D03*
G54D17*
X99675Y-55100D03*
X98925Y-55100D03*
X97525Y-51700D03*
X98275Y-51700D03*
G54D13*
X94560Y-56290D03*
X93560Y-56290D03*
X92560Y-56290D03*
X91560Y-56290D03*
X90560Y-56290D03*
X89560Y-56290D03*
X88560Y-56290D03*
X87560Y-56290D03*
X86560Y-56290D03*
X85560Y-56290D03*
X84560Y-56290D03*
X83560Y-56290D03*
X94560Y-50290D03*
X93560Y-50290D03*
X92560Y-50290D03*
X91560Y-50290D03*
X90560Y-50290D03*
X89560Y-50290D03*
X88560Y-50290D03*
X87560Y-50290D03*
X86560Y-50290D03*
X85560Y-50290D03*
X84560Y-50290D03*
X83560Y-50290D03*
G54D18*
X82560Y-50790D03*
X82560Y-51790D03*
X82560Y-52790D03*
X82560Y-53790D03*
X82560Y-54790D03*
X82560Y-55790D03*
G54D13*
X87060Y-51290D03*
X88060Y-51290D03*
X91060Y-51290D03*
X92060Y-51290D03*
G54D19*
X99772Y-56674D03*
X99772Y-56300D03*
X99772Y-55926D03*
X98828Y-55926D03*
X98828Y-56674D03*
G54D20*
X100700Y-56890D03*
X100700Y-55710D03*
G54D21*
X99634Y-57500D03*
X98966Y-57500D03*
X95766Y-52600D03*
X96434Y-52600D03*
X95766Y-53500D03*
X96434Y-53500D03*
G54D22*
X98470Y-53690D03*
X98470Y-53100D03*
X98470Y-52510D03*
G54D23*
X97900Y-53700D03*
G54D22*
X97330Y-53690D03*
X97330Y-53100D03*
X97330Y-52510D03*
G54D18*
X101900Y-53400D03*
X81500Y-53400D03*
M02*
