G04 (created by PCBNEW (2013-jul-07)-stable) date Thu 14 Aug 2014 04:05:27 PM EDT*
%MOIN*%
G04 Gerber Fmt 3.4, Leading zero omitted, Abs format*
%FSLAX34Y34*%
G01*
G70*
G90*
G04 APERTURE LIST*
%ADD10C,0.00590551*%
%ADD11C,0.012*%
%ADD12C,0.005*%
%ADD13C,0.0026*%
%ADD14C,0.01*%
%ADD15C,0.004*%
%ADD16C,0.006*%
%ADD17C,0.002*%
G04 APERTURE END LIST*
G54D10*
G54D11*
X87700Y-57000D02*
X95700Y-57000D01*
X95700Y-57000D02*
X95700Y-58000D01*
X95700Y-58000D02*
X87700Y-58000D01*
X87700Y-58000D02*
X87700Y-57000D01*
X88700Y-58000D02*
X88700Y-57000D01*
X98400Y-49900D02*
X98400Y-49900D01*
X98400Y-50900D02*
X98400Y-49900D01*
X98400Y-49900D02*
X98400Y-49900D01*
X98400Y-49900D02*
X102400Y-49900D01*
X102400Y-49900D02*
X102400Y-50900D01*
X102400Y-50900D02*
X98400Y-50900D01*
X99400Y-50900D02*
X99400Y-49900D01*
G54D12*
X98190Y-55670D02*
X97210Y-55670D01*
X97210Y-56930D02*
X98190Y-56930D01*
X98190Y-56750D02*
X97210Y-56750D01*
X97210Y-55850D02*
X98190Y-55850D01*
X97210Y-55670D02*
X97210Y-56930D01*
X98190Y-56930D02*
X98190Y-55670D01*
X99550Y-54850D02*
X99550Y-55350D01*
X99050Y-54850D02*
X99050Y-55340D01*
X98900Y-54850D02*
X99700Y-54850D01*
X99700Y-54850D02*
X99700Y-55350D01*
X99700Y-55350D02*
X98900Y-55350D01*
X98900Y-55350D02*
X98900Y-54850D01*
X97650Y-51950D02*
X97650Y-51450D01*
X98150Y-51950D02*
X98150Y-51460D01*
X98300Y-51950D02*
X97500Y-51950D01*
X97500Y-51950D02*
X97500Y-51450D01*
X97500Y-51450D02*
X98300Y-51450D01*
X98300Y-51450D02*
X98300Y-51950D01*
G54D10*
X82010Y-49770D02*
X82020Y-56820D01*
X95120Y-56820D02*
X95110Y-49770D01*
X82020Y-56820D02*
X95120Y-56820D01*
X82010Y-49770D02*
X95110Y-49770D01*
G54D13*
X99890Y-56772D02*
X99890Y-56575D01*
X99890Y-56575D02*
X99634Y-56575D01*
X99634Y-56772D02*
X99634Y-56575D01*
X99890Y-56772D02*
X99634Y-56772D01*
X99890Y-56398D02*
X99890Y-56202D01*
X99890Y-56202D02*
X99634Y-56202D01*
X99634Y-56398D02*
X99634Y-56202D01*
X99890Y-56398D02*
X99634Y-56398D01*
X99890Y-56025D02*
X99890Y-55828D01*
X99890Y-55828D02*
X99634Y-55828D01*
X99634Y-56025D02*
X99634Y-55828D01*
X99890Y-56025D02*
X99634Y-56025D01*
X98966Y-56025D02*
X98966Y-55828D01*
X98966Y-55828D02*
X98710Y-55828D01*
X98710Y-56025D02*
X98710Y-55828D01*
X98966Y-56025D02*
X98710Y-56025D01*
X98966Y-56772D02*
X98966Y-56575D01*
X98966Y-56575D02*
X98710Y-56575D01*
X98710Y-56772D02*
X98710Y-56575D01*
X98966Y-56772D02*
X98710Y-56772D01*
G54D12*
X98982Y-55682D02*
X99618Y-55682D01*
G54D14*
X99618Y-55741D02*
X99618Y-56859D01*
G54D12*
X99618Y-56918D02*
X98982Y-56918D01*
G54D14*
X98982Y-56859D02*
X98982Y-56466D01*
X98982Y-56466D02*
X98982Y-56134D01*
X98982Y-56134D02*
X98982Y-55741D01*
G54D12*
X98986Y-56910D02*
X98986Y-56851D01*
X99614Y-56910D02*
X99614Y-56851D01*
X99614Y-55671D02*
X99614Y-55749D01*
X98986Y-55690D02*
X98986Y-55749D01*
G54D13*
X100857Y-56378D02*
X100857Y-56222D01*
X100857Y-56222D02*
X100543Y-56222D01*
X100543Y-56378D02*
X100543Y-56222D01*
X100857Y-56378D02*
X100543Y-56378D01*
X100818Y-55828D02*
X100818Y-55592D01*
X100818Y-55592D02*
X100582Y-55592D01*
X100582Y-55828D02*
X100582Y-55592D01*
X100818Y-55828D02*
X100582Y-55828D01*
X100818Y-57008D02*
X100818Y-56772D01*
X100818Y-56772D02*
X100582Y-56772D01*
X100582Y-57008D02*
X100582Y-56772D01*
X100818Y-57008D02*
X100582Y-57008D01*
X101014Y-56811D02*
X101014Y-56575D01*
X101014Y-56575D02*
X100386Y-56575D01*
X100386Y-56811D02*
X100386Y-56575D01*
X101014Y-56811D02*
X100386Y-56811D01*
X101014Y-56025D02*
X101014Y-55789D01*
X101014Y-55789D02*
X100386Y-55789D01*
X100386Y-56025D02*
X100386Y-55789D01*
X101014Y-56025D02*
X100386Y-56025D01*
X100975Y-56082D02*
X100975Y-56004D01*
X100975Y-56004D02*
X100425Y-56004D01*
X100425Y-56082D02*
X100425Y-56004D01*
X100975Y-56082D02*
X100425Y-56082D01*
G54D15*
X100407Y-56680D02*
X100407Y-55920D01*
X100993Y-56680D02*
X100993Y-55920D01*
G54D14*
X100440Y-56580D02*
X100440Y-56020D01*
X100960Y-56580D02*
X100960Y-56020D01*
X100440Y-56020D02*
X100960Y-56020D01*
G54D13*
X99140Y-57225D02*
X98885Y-57225D01*
X98885Y-57225D02*
X98885Y-57776D01*
X99140Y-57776D02*
X98885Y-57776D01*
X99140Y-57225D02*
X99140Y-57776D01*
X99720Y-57225D02*
X99464Y-57225D01*
X99464Y-57225D02*
X99464Y-57776D01*
X99720Y-57776D02*
X99464Y-57776D01*
X99720Y-57225D02*
X99720Y-57776D01*
X99378Y-57304D02*
X99222Y-57304D01*
X99222Y-57304D02*
X99222Y-57696D01*
X99378Y-57696D02*
X99222Y-57696D01*
X99378Y-57304D02*
X99378Y-57696D01*
G54D16*
X99461Y-57750D02*
X99139Y-57750D01*
X99461Y-57250D02*
X99139Y-57250D01*
G54D17*
X100076Y-57887D02*
X98524Y-57887D01*
X98524Y-57887D02*
X98524Y-57113D01*
X98524Y-57113D02*
X100076Y-57113D01*
X100076Y-57113D02*
X100076Y-57887D01*
G54D13*
X96260Y-52875D02*
X96515Y-52875D01*
X96515Y-52875D02*
X96515Y-52324D01*
X96260Y-52324D02*
X96515Y-52324D01*
X96260Y-52875D02*
X96260Y-52324D01*
X95680Y-52875D02*
X95936Y-52875D01*
X95936Y-52875D02*
X95936Y-52324D01*
X95680Y-52324D02*
X95936Y-52324D01*
X95680Y-52875D02*
X95680Y-52324D01*
X96022Y-52796D02*
X96178Y-52796D01*
X96178Y-52796D02*
X96178Y-52404D01*
X96022Y-52404D02*
X96178Y-52404D01*
X96022Y-52796D02*
X96022Y-52404D01*
G54D16*
X95939Y-52350D02*
X96261Y-52350D01*
X95939Y-52850D02*
X96261Y-52850D01*
G54D17*
X95324Y-52213D02*
X96876Y-52213D01*
X96876Y-52213D02*
X96876Y-52987D01*
X96876Y-52987D02*
X95324Y-52987D01*
X95324Y-52987D02*
X95324Y-52213D01*
G54D13*
X96260Y-53775D02*
X96515Y-53775D01*
X96515Y-53775D02*
X96515Y-53224D01*
X96260Y-53224D02*
X96515Y-53224D01*
X96260Y-53775D02*
X96260Y-53224D01*
X95680Y-53775D02*
X95936Y-53775D01*
X95936Y-53775D02*
X95936Y-53224D01*
X95680Y-53224D02*
X95936Y-53224D01*
X95680Y-53775D02*
X95680Y-53224D01*
X96022Y-53696D02*
X96178Y-53696D01*
X96178Y-53696D02*
X96178Y-53304D01*
X96022Y-53304D02*
X96178Y-53304D01*
X96022Y-53696D02*
X96022Y-53304D01*
G54D16*
X95939Y-53250D02*
X96261Y-53250D01*
X95939Y-53750D02*
X96261Y-53750D01*
G54D17*
X95324Y-53113D02*
X96876Y-53113D01*
X96876Y-53113D02*
X96876Y-53887D01*
X96876Y-53887D02*
X95324Y-53887D01*
X95324Y-53887D02*
X95324Y-53113D01*
G54D10*
X97386Y-54010D02*
G75*
G03X97386Y-54010I-86J0D01*
G74*
G01*
X98610Y-53850D02*
X98610Y-52350D01*
X97190Y-53850D02*
X98610Y-53850D01*
X97190Y-52350D02*
X97190Y-53850D01*
X98610Y-52350D02*
X97190Y-52350D01*
M02*
