G04 (created by PCBNEW (2013-jul-07)-stable) date Thu 14 Aug 2014 04:05:27 PM EDT*
%MOIN*%
G04 Gerber Fmt 3.4, Leading zero omitted, Abs format*
%FSLAX34Y34*%
G01*
G70*
G90*
G04 APERTURE LIST*
%ADD10C,0.00590551*%
%ADD11R,0.0590551X0.0590551*%
%ADD12O,0.0590551X0.0669291*%
%ADD13R,0.055X0.055*%
%ADD14C,0.055*%
%ADD15R,0.106X0.063*%
%ADD16R,0.0512X0.059*%
%ADD17O,0.0669291X0.0590551*%
%ADD18R,0.0393X0.0275*%
%ADD19R,0.0629X0.0511*%
%ADD20R,0.0511X0.059*%
%ADD21R,0.019685X0.023622*%
%ADD22R,0.023622X0.019685*%
%ADD23C,0.035*%
%ADD24C,0.01*%
%ADD25C,0.0011811*%
G04 APERTURE END LIST*
G54D10*
G54D11*
X88200Y-57500D03*
G54D12*
X89200Y-57500D03*
X90200Y-57500D03*
X91200Y-57500D03*
X92200Y-57500D03*
X93200Y-57500D03*
X94200Y-57500D03*
X95200Y-57500D03*
G54D13*
X98900Y-50400D03*
G54D14*
X99900Y-50400D03*
X100900Y-50400D03*
X101900Y-50400D03*
G54D15*
X97700Y-56850D03*
X97700Y-55750D03*
G54D16*
X99675Y-55100D03*
X98925Y-55100D03*
X97525Y-51700D03*
X98275Y-51700D03*
G54D12*
X94560Y-56290D03*
X93560Y-56290D03*
X92560Y-56290D03*
X91560Y-56290D03*
X90560Y-56290D03*
X89560Y-56290D03*
X88560Y-56290D03*
X87560Y-56290D03*
X86560Y-56290D03*
X85560Y-56290D03*
X84560Y-56290D03*
X83560Y-56290D03*
X94560Y-50290D03*
X93560Y-50290D03*
X92560Y-50290D03*
X91560Y-50290D03*
X90560Y-50290D03*
X89560Y-50290D03*
X88560Y-50290D03*
X87560Y-50290D03*
X86560Y-50290D03*
X85560Y-50290D03*
X84560Y-50290D03*
X83560Y-50290D03*
G54D17*
X82560Y-50790D03*
X82560Y-51790D03*
X82560Y-52790D03*
X82560Y-53790D03*
X82560Y-54790D03*
X82560Y-55790D03*
G54D12*
X87060Y-51290D03*
X88060Y-51290D03*
X91060Y-51290D03*
X92060Y-51290D03*
G54D18*
X99772Y-56674D03*
X99772Y-56300D03*
X99772Y-55926D03*
X98828Y-55926D03*
X98828Y-56674D03*
G54D19*
X100700Y-56890D03*
X100700Y-55710D03*
G54D20*
X99634Y-57500D03*
X98966Y-57500D03*
X95766Y-52600D03*
X96434Y-52600D03*
X95766Y-53500D03*
X96434Y-53500D03*
G54D21*
X98470Y-53690D03*
X98470Y-53100D03*
X98470Y-52510D03*
G54D22*
X97900Y-53700D03*
G54D21*
X97330Y-53690D03*
X97330Y-53100D03*
X97330Y-52510D03*
G54D17*
X101900Y-53400D03*
X81500Y-53400D03*
G54D23*
X96000Y-56000D03*
X96600Y-56600D03*
X100300Y-57500D03*
X98400Y-56300D03*
X99000Y-51700D03*
X95800Y-51500D03*
X94100Y-52600D03*
G54D24*
X97525Y-51700D02*
X97525Y-51925D01*
X97900Y-52300D02*
X97900Y-53700D01*
X97525Y-51925D02*
X97900Y-52300D01*
X101900Y-50400D02*
X101900Y-50200D01*
X97525Y-50175D02*
X97525Y-51700D01*
X97900Y-49800D02*
X97525Y-50175D01*
X101500Y-49800D02*
X97900Y-49800D01*
X101900Y-50200D02*
X101500Y-49800D01*
X97700Y-55750D02*
X97700Y-54300D01*
X97700Y-54300D02*
X97900Y-54100D01*
X97900Y-54100D02*
X97900Y-53700D01*
X98828Y-55926D02*
X98828Y-55197D01*
X98828Y-55197D02*
X98925Y-55100D01*
X97700Y-55750D02*
X98652Y-55750D01*
X98652Y-55750D02*
X98828Y-55926D01*
X95200Y-57500D02*
X95200Y-57400D01*
X96850Y-55750D02*
X97700Y-55750D01*
X95200Y-57400D02*
X96850Y-55750D01*
X97700Y-56850D02*
X96850Y-56850D01*
X95700Y-55700D02*
X92700Y-55700D01*
X96000Y-56000D02*
X95700Y-55700D01*
X96850Y-56850D02*
X96600Y-56600D01*
X97700Y-56850D02*
X97850Y-56850D01*
X100100Y-57002D02*
X99772Y-56674D01*
X100100Y-57300D02*
X100100Y-57002D01*
X100300Y-57500D02*
X100100Y-57300D01*
X97850Y-56850D02*
X98400Y-56300D01*
X86560Y-50290D02*
X86560Y-55160D01*
X86560Y-55160D02*
X87100Y-55700D01*
X87100Y-55700D02*
X92700Y-55700D01*
X93100Y-57400D02*
X93200Y-57500D01*
X92700Y-55700D02*
X92900Y-55700D01*
X92900Y-55700D02*
X93100Y-55900D01*
X93100Y-55900D02*
X93100Y-57400D01*
X99000Y-51700D02*
X98275Y-51700D01*
X95766Y-52600D02*
X94100Y-52600D01*
X95800Y-51500D02*
X95800Y-51300D01*
X86560Y-50290D02*
X86560Y-50040D01*
X86560Y-50040D02*
X86900Y-49700D01*
X86900Y-49700D02*
X95000Y-49700D01*
X95000Y-49700D02*
X95800Y-50500D01*
X95800Y-50500D02*
X95800Y-51300D01*
X95800Y-51300D02*
X95800Y-51400D01*
X95766Y-53500D02*
X95766Y-52600D01*
X100700Y-55710D02*
X101890Y-55710D01*
X101810Y-52510D02*
X98470Y-52510D01*
X102400Y-53100D02*
X101810Y-52510D01*
X102400Y-55200D02*
X102400Y-53100D01*
X101890Y-55710D02*
X102400Y-55200D01*
X99772Y-56300D02*
X99772Y-56674D01*
X99772Y-56300D02*
X100110Y-56300D01*
X100110Y-56300D02*
X100700Y-55710D01*
X98275Y-51700D02*
X98275Y-52315D01*
X98275Y-52315D02*
X98470Y-52510D01*
X98470Y-52510D02*
X98470Y-53100D01*
X98900Y-50400D02*
X98900Y-51075D01*
X98900Y-51075D02*
X98275Y-51700D01*
X82560Y-53790D02*
X82560Y-53740D01*
X82560Y-53740D02*
X83300Y-53000D01*
X83300Y-53000D02*
X83300Y-51500D01*
X83300Y-51500D02*
X83800Y-51000D01*
X83800Y-51000D02*
X85850Y-51000D01*
X85850Y-51000D02*
X86560Y-50290D01*
X88200Y-57500D02*
X88200Y-56650D01*
X88200Y-56650D02*
X88560Y-56290D01*
X90200Y-57500D02*
X90200Y-56650D01*
X90200Y-56650D02*
X90560Y-56290D01*
X91200Y-57500D02*
X91200Y-56650D01*
X91200Y-56650D02*
X91560Y-56290D01*
X92200Y-57500D02*
X92200Y-56650D01*
X92200Y-56650D02*
X92560Y-56290D01*
X89200Y-57500D02*
X89200Y-56650D01*
X89200Y-56650D02*
X89560Y-56290D01*
X99675Y-55100D02*
X101600Y-55100D01*
X101900Y-54800D02*
X101900Y-53400D01*
X101600Y-55100D02*
X101900Y-54800D01*
X99634Y-57500D02*
X99634Y-57234D01*
X99675Y-55225D02*
X99675Y-55100D01*
X99300Y-55600D02*
X99675Y-55225D01*
X99300Y-56900D02*
X99300Y-55600D01*
X99634Y-57234D02*
X99300Y-56900D01*
X100100Y-58100D02*
X100400Y-58100D01*
X98826Y-56674D02*
X98400Y-57100D01*
X98400Y-57100D02*
X98400Y-57900D01*
X98400Y-57900D02*
X98600Y-58100D01*
X98600Y-58100D02*
X100100Y-58100D01*
X100700Y-56890D02*
X100700Y-57500D01*
X98826Y-56674D02*
X98828Y-56674D01*
X100700Y-57800D02*
X100700Y-57500D01*
X100400Y-58100D02*
X100700Y-57800D01*
X98966Y-57500D02*
X98966Y-56812D01*
X98966Y-56812D02*
X98828Y-56674D01*
X88060Y-51290D02*
X88590Y-51290D01*
X96434Y-53966D02*
X96434Y-53500D01*
X96300Y-54100D02*
X96434Y-53966D01*
X91400Y-54100D02*
X96300Y-54100D01*
X88590Y-51290D02*
X91400Y-54100D01*
X96434Y-53500D02*
X96800Y-53500D01*
X96990Y-53690D02*
X97330Y-53690D01*
X96800Y-53500D02*
X96990Y-53690D01*
X94700Y-51900D02*
X96200Y-51900D01*
X96434Y-52134D02*
X96434Y-52600D01*
X96200Y-51900D02*
X96434Y-52134D01*
X87060Y-51290D02*
X87060Y-51140D01*
X89700Y-51900D02*
X94700Y-51900D01*
X94700Y-51900D02*
X94800Y-51900D01*
X88600Y-50800D02*
X89700Y-51900D01*
X87400Y-50800D02*
X88600Y-50800D01*
X87060Y-51140D02*
X87400Y-50800D01*
X96434Y-52600D02*
X96700Y-52600D01*
X96700Y-52600D02*
X96900Y-52800D01*
X96900Y-52800D02*
X96900Y-53000D01*
X96900Y-53000D02*
X97000Y-53100D01*
X97000Y-53100D02*
X97330Y-53100D01*
G54D10*
G36*
X96278Y-52199D02*
X96200Y-52199D01*
X96195Y-52188D01*
X96137Y-52130D01*
X96062Y-52099D01*
X95911Y-52099D01*
X95860Y-52150D01*
X95860Y-52505D01*
X95867Y-52505D01*
X95867Y-52694D01*
X95860Y-52694D01*
X95860Y-53049D01*
X95860Y-53050D01*
X95860Y-53050D01*
X95860Y-53405D01*
X95867Y-53405D01*
X95867Y-53594D01*
X95860Y-53594D01*
X95860Y-53601D01*
X95671Y-53601D01*
X95671Y-53594D01*
X95671Y-53405D01*
X95671Y-53050D01*
X95671Y-53050D01*
X95671Y-53049D01*
X95671Y-52694D01*
X95671Y-52505D01*
X95671Y-52150D01*
X95620Y-52099D01*
X95469Y-52099D01*
X95394Y-52130D01*
X95336Y-52188D01*
X95304Y-52263D01*
X95304Y-52345D01*
X95304Y-52454D01*
X95356Y-52505D01*
X95671Y-52505D01*
X95671Y-52694D01*
X95356Y-52694D01*
X95304Y-52745D01*
X95304Y-52854D01*
X95304Y-52936D01*
X95336Y-53011D01*
X95374Y-53050D01*
X95336Y-53088D01*
X95304Y-53163D01*
X95304Y-53245D01*
X95304Y-53354D01*
X95356Y-53405D01*
X95671Y-53405D01*
X95671Y-53594D01*
X95356Y-53594D01*
X95304Y-53645D01*
X95304Y-53754D01*
X95304Y-53836D01*
X95336Y-53911D01*
X95368Y-53944D01*
X91464Y-53944D01*
X88700Y-51179D01*
X88649Y-51145D01*
X88590Y-51134D01*
X88439Y-51134D01*
X88430Y-51088D01*
X88343Y-50958D01*
X88340Y-50955D01*
X88535Y-50955D01*
X89589Y-52010D01*
X89589Y-52010D01*
X89640Y-52044D01*
X89700Y-52055D01*
X94700Y-52055D01*
X94800Y-52055D01*
X96135Y-52055D01*
X96278Y-52198D01*
X96278Y-52199D01*
X96278Y-52199D01*
G37*
G54D25*
X96278Y-52199D02*
X96200Y-52199D01*
X96195Y-52188D01*
X96137Y-52130D01*
X96062Y-52099D01*
X95911Y-52099D01*
X95860Y-52150D01*
X95860Y-52505D01*
X95867Y-52505D01*
X95867Y-52694D01*
X95860Y-52694D01*
X95860Y-53049D01*
X95860Y-53050D01*
X95860Y-53050D01*
X95860Y-53405D01*
X95867Y-53405D01*
X95867Y-53594D01*
X95860Y-53594D01*
X95860Y-53601D01*
X95671Y-53601D01*
X95671Y-53594D01*
X95671Y-53405D01*
X95671Y-53050D01*
X95671Y-53050D01*
X95671Y-53049D01*
X95671Y-52694D01*
X95671Y-52505D01*
X95671Y-52150D01*
X95620Y-52099D01*
X95469Y-52099D01*
X95394Y-52130D01*
X95336Y-52188D01*
X95304Y-52263D01*
X95304Y-52345D01*
X95304Y-52454D01*
X95356Y-52505D01*
X95671Y-52505D01*
X95671Y-52694D01*
X95356Y-52694D01*
X95304Y-52745D01*
X95304Y-52854D01*
X95304Y-52936D01*
X95336Y-53011D01*
X95374Y-53050D01*
X95336Y-53088D01*
X95304Y-53163D01*
X95304Y-53245D01*
X95304Y-53354D01*
X95356Y-53405D01*
X95671Y-53405D01*
X95671Y-53594D01*
X95356Y-53594D01*
X95304Y-53645D01*
X95304Y-53754D01*
X95304Y-53836D01*
X95336Y-53911D01*
X95368Y-53944D01*
X91464Y-53944D01*
X88700Y-51179D01*
X88649Y-51145D01*
X88590Y-51134D01*
X88439Y-51134D01*
X88430Y-51088D01*
X88343Y-50958D01*
X88340Y-50955D01*
X88535Y-50955D01*
X89589Y-52010D01*
X89589Y-52010D01*
X89640Y-52044D01*
X89700Y-52055D01*
X94700Y-52055D01*
X94800Y-52055D01*
X96135Y-52055D01*
X96278Y-52198D01*
X96278Y-52199D01*
G54D10*
G36*
X99306Y-57127D02*
X99299Y-57133D01*
X99281Y-57115D01*
X99242Y-57099D01*
X99200Y-57099D01*
X99121Y-57099D01*
X99121Y-56853D01*
X99130Y-56832D01*
X99130Y-56790D01*
X99130Y-56515D01*
X99114Y-56476D01*
X99084Y-56446D01*
X99045Y-56430D01*
X99003Y-56430D01*
X98610Y-56430D01*
X98571Y-56446D01*
X98541Y-56476D01*
X98525Y-56515D01*
X98525Y-56557D01*
X98525Y-56753D01*
X98435Y-56843D01*
X98435Y-56843D01*
X98435Y-56755D01*
X98384Y-56755D01*
X98435Y-56704D01*
X98435Y-56494D01*
X98404Y-56418D01*
X98346Y-56360D01*
X98271Y-56329D01*
X98189Y-56329D01*
X97845Y-56329D01*
X97794Y-56380D01*
X97794Y-56755D01*
X97801Y-56755D01*
X97801Y-56944D01*
X97794Y-56944D01*
X97794Y-57319D01*
X97845Y-57370D01*
X98189Y-57370D01*
X98244Y-57370D01*
X98244Y-57900D01*
X98255Y-57959D01*
X98289Y-58010D01*
X98414Y-58135D01*
X97605Y-58135D01*
X97605Y-57319D01*
X97605Y-56944D01*
X97605Y-56755D01*
X97605Y-56380D01*
X97554Y-56329D01*
X97210Y-56329D01*
X97128Y-56329D01*
X97053Y-56360D01*
X96995Y-56418D01*
X96964Y-56494D01*
X96964Y-56704D01*
X97015Y-56755D01*
X97605Y-56755D01*
X97605Y-56944D01*
X97015Y-56944D01*
X96964Y-56995D01*
X96964Y-57205D01*
X96995Y-57281D01*
X97053Y-57339D01*
X97128Y-57370D01*
X97210Y-57370D01*
X97554Y-57370D01*
X97605Y-57319D01*
X97605Y-58135D01*
X94601Y-58135D01*
X94601Y-57548D01*
X94601Y-57451D01*
X94570Y-57298D01*
X94483Y-57168D01*
X94353Y-57081D01*
X94200Y-57050D01*
X94046Y-57081D01*
X93961Y-57138D01*
X93961Y-56338D01*
X93961Y-56241D01*
X93930Y-56088D01*
X93843Y-55958D01*
X93713Y-55871D01*
X93560Y-55840D01*
X93406Y-55871D01*
X93276Y-55958D01*
X93189Y-56088D01*
X93158Y-56241D01*
X93158Y-56338D01*
X93189Y-56491D01*
X93276Y-56621D01*
X93406Y-56708D01*
X93560Y-56739D01*
X93713Y-56708D01*
X93843Y-56621D01*
X93930Y-56491D01*
X93961Y-56338D01*
X93961Y-57138D01*
X93916Y-57168D01*
X93829Y-57298D01*
X93798Y-57451D01*
X93798Y-57548D01*
X93829Y-57701D01*
X93916Y-57831D01*
X94046Y-57918D01*
X94200Y-57949D01*
X94353Y-57918D01*
X94483Y-57831D01*
X94570Y-57701D01*
X94601Y-57548D01*
X94601Y-58135D01*
X93681Y-58135D01*
X93681Y-57671D01*
X93681Y-57328D01*
X93594Y-57154D01*
X93447Y-57027D01*
X93369Y-56989D01*
X93294Y-57020D01*
X93294Y-57405D01*
X93644Y-57405D01*
X93681Y-57328D01*
X93681Y-57671D01*
X93644Y-57594D01*
X93294Y-57594D01*
X93294Y-57979D01*
X93369Y-58010D01*
X93447Y-57972D01*
X93594Y-57845D01*
X93681Y-57671D01*
X93681Y-58135D01*
X93105Y-58135D01*
X93105Y-57979D01*
X93105Y-57594D01*
X93105Y-57405D01*
X93105Y-57020D01*
X93030Y-56989D01*
X92961Y-57023D01*
X92961Y-56338D01*
X92961Y-56241D01*
X92930Y-56088D01*
X92843Y-55958D01*
X92713Y-55871D01*
X92560Y-55840D01*
X92406Y-55871D01*
X92276Y-55958D01*
X92189Y-56088D01*
X92158Y-56241D01*
X92158Y-56338D01*
X92180Y-56448D01*
X92089Y-56539D01*
X92055Y-56590D01*
X92044Y-56650D01*
X92044Y-57082D01*
X91961Y-57138D01*
X91961Y-56338D01*
X91961Y-56241D01*
X91930Y-56088D01*
X91843Y-55958D01*
X91713Y-55871D01*
X91560Y-55840D01*
X91406Y-55871D01*
X91276Y-55958D01*
X91189Y-56088D01*
X91158Y-56241D01*
X91158Y-56338D01*
X91180Y-56448D01*
X91089Y-56539D01*
X91055Y-56590D01*
X91044Y-56650D01*
X91044Y-57082D01*
X90961Y-57138D01*
X90961Y-56338D01*
X90961Y-56241D01*
X90930Y-56088D01*
X90843Y-55958D01*
X90713Y-55871D01*
X90560Y-55840D01*
X90406Y-55871D01*
X90276Y-55958D01*
X90189Y-56088D01*
X90158Y-56241D01*
X90158Y-56338D01*
X90180Y-56448D01*
X90089Y-56539D01*
X90055Y-56590D01*
X90044Y-56650D01*
X90044Y-57082D01*
X89961Y-57138D01*
X89961Y-56338D01*
X89961Y-56241D01*
X89930Y-56088D01*
X89843Y-55958D01*
X89713Y-55871D01*
X89560Y-55840D01*
X89406Y-55871D01*
X89276Y-55958D01*
X89189Y-56088D01*
X89158Y-56241D01*
X89158Y-56338D01*
X89180Y-56448D01*
X89089Y-56539D01*
X89055Y-56590D01*
X89044Y-56650D01*
X89044Y-57082D01*
X88961Y-57138D01*
X88961Y-56338D01*
X88961Y-56241D01*
X88930Y-56088D01*
X88843Y-55958D01*
X88713Y-55871D01*
X88560Y-55840D01*
X88406Y-55871D01*
X88276Y-55958D01*
X88189Y-56088D01*
X88158Y-56241D01*
X88158Y-56338D01*
X88180Y-56448D01*
X88089Y-56539D01*
X88055Y-56590D01*
X88044Y-56650D01*
X88044Y-57098D01*
X87961Y-57098D01*
X87961Y-56338D01*
X87961Y-56241D01*
X87930Y-56088D01*
X87843Y-55958D01*
X87713Y-55871D01*
X87560Y-55840D01*
X87406Y-55871D01*
X87276Y-55958D01*
X87189Y-56088D01*
X87158Y-56241D01*
X87158Y-56338D01*
X87189Y-56491D01*
X87276Y-56621D01*
X87406Y-56708D01*
X87560Y-56739D01*
X87713Y-56708D01*
X87843Y-56621D01*
X87930Y-56491D01*
X87961Y-56338D01*
X87961Y-57098D01*
X87883Y-57098D01*
X87844Y-57114D01*
X87814Y-57144D01*
X87798Y-57183D01*
X87798Y-57225D01*
X87798Y-57816D01*
X87814Y-57855D01*
X87844Y-57885D01*
X87883Y-57901D01*
X87925Y-57901D01*
X88516Y-57901D01*
X88555Y-57885D01*
X88585Y-57855D01*
X88601Y-57816D01*
X88601Y-57774D01*
X88601Y-57183D01*
X88585Y-57144D01*
X88555Y-57114D01*
X88516Y-57098D01*
X88474Y-57098D01*
X88355Y-57098D01*
X88355Y-56714D01*
X88379Y-56690D01*
X88406Y-56708D01*
X88560Y-56739D01*
X88713Y-56708D01*
X88843Y-56621D01*
X88930Y-56491D01*
X88961Y-56338D01*
X88961Y-57138D01*
X88916Y-57168D01*
X88829Y-57298D01*
X88798Y-57451D01*
X88798Y-57548D01*
X88829Y-57701D01*
X88916Y-57831D01*
X89046Y-57918D01*
X89200Y-57949D01*
X89353Y-57918D01*
X89483Y-57831D01*
X89570Y-57701D01*
X89601Y-57548D01*
X89601Y-57451D01*
X89570Y-57298D01*
X89483Y-57168D01*
X89355Y-57082D01*
X89355Y-56714D01*
X89379Y-56690D01*
X89406Y-56708D01*
X89560Y-56739D01*
X89713Y-56708D01*
X89843Y-56621D01*
X89930Y-56491D01*
X89961Y-56338D01*
X89961Y-57138D01*
X89916Y-57168D01*
X89829Y-57298D01*
X89798Y-57451D01*
X89798Y-57548D01*
X89829Y-57701D01*
X89916Y-57831D01*
X90046Y-57918D01*
X90200Y-57949D01*
X90353Y-57918D01*
X90483Y-57831D01*
X90570Y-57701D01*
X90601Y-57548D01*
X90601Y-57451D01*
X90570Y-57298D01*
X90483Y-57168D01*
X90355Y-57082D01*
X90355Y-56714D01*
X90379Y-56690D01*
X90406Y-56708D01*
X90560Y-56739D01*
X90713Y-56708D01*
X90843Y-56621D01*
X90930Y-56491D01*
X90961Y-56338D01*
X90961Y-57138D01*
X90916Y-57168D01*
X90829Y-57298D01*
X90798Y-57451D01*
X90798Y-57548D01*
X90829Y-57701D01*
X90916Y-57831D01*
X91046Y-57918D01*
X91200Y-57949D01*
X91353Y-57918D01*
X91483Y-57831D01*
X91570Y-57701D01*
X91601Y-57548D01*
X91601Y-57451D01*
X91570Y-57298D01*
X91483Y-57168D01*
X91355Y-57082D01*
X91355Y-56714D01*
X91379Y-56690D01*
X91406Y-56708D01*
X91560Y-56739D01*
X91713Y-56708D01*
X91843Y-56621D01*
X91930Y-56491D01*
X91961Y-56338D01*
X91961Y-57138D01*
X91916Y-57168D01*
X91829Y-57298D01*
X91798Y-57451D01*
X91798Y-57548D01*
X91829Y-57701D01*
X91916Y-57831D01*
X92046Y-57918D01*
X92200Y-57949D01*
X92353Y-57918D01*
X92483Y-57831D01*
X92570Y-57701D01*
X92601Y-57548D01*
X92601Y-57451D01*
X92570Y-57298D01*
X92483Y-57168D01*
X92355Y-57082D01*
X92355Y-56714D01*
X92379Y-56690D01*
X92406Y-56708D01*
X92560Y-56739D01*
X92713Y-56708D01*
X92843Y-56621D01*
X92930Y-56491D01*
X92961Y-56338D01*
X92961Y-57023D01*
X92952Y-57027D01*
X92805Y-57154D01*
X92718Y-57328D01*
X92755Y-57405D01*
X93105Y-57405D01*
X93105Y-57594D01*
X92755Y-57594D01*
X92718Y-57671D01*
X92805Y-57845D01*
X92952Y-57972D01*
X93030Y-58010D01*
X93105Y-57979D01*
X93105Y-58135D01*
X86961Y-58135D01*
X86961Y-56338D01*
X86961Y-56241D01*
X86930Y-56088D01*
X86843Y-55958D01*
X86713Y-55871D01*
X86560Y-55840D01*
X86465Y-55859D01*
X86465Y-50769D01*
X86465Y-50384D01*
X86465Y-50195D01*
X86465Y-49810D01*
X86390Y-49779D01*
X86312Y-49817D01*
X86165Y-49944D01*
X86078Y-50118D01*
X86115Y-50195D01*
X86465Y-50195D01*
X86465Y-50384D01*
X86115Y-50384D01*
X86078Y-50461D01*
X86165Y-50635D01*
X86312Y-50762D01*
X86390Y-50800D01*
X86465Y-50769D01*
X86465Y-55859D01*
X86406Y-55871D01*
X86276Y-55958D01*
X86189Y-56088D01*
X86158Y-56241D01*
X86158Y-56338D01*
X86189Y-56491D01*
X86276Y-56621D01*
X86406Y-56708D01*
X86560Y-56739D01*
X86713Y-56708D01*
X86843Y-56621D01*
X86930Y-56491D01*
X86961Y-56338D01*
X86961Y-58135D01*
X85961Y-58135D01*
X85961Y-56338D01*
X85961Y-56241D01*
X85961Y-50338D01*
X85961Y-50241D01*
X85930Y-50088D01*
X85843Y-49958D01*
X85713Y-49871D01*
X85560Y-49840D01*
X85406Y-49871D01*
X85276Y-49958D01*
X85189Y-50088D01*
X85158Y-50241D01*
X85158Y-50338D01*
X85189Y-50491D01*
X85276Y-50621D01*
X85406Y-50708D01*
X85560Y-50739D01*
X85713Y-50708D01*
X85843Y-50621D01*
X85930Y-50491D01*
X85961Y-50338D01*
X85961Y-56241D01*
X85930Y-56088D01*
X85843Y-55958D01*
X85713Y-55871D01*
X85560Y-55840D01*
X85406Y-55871D01*
X85276Y-55958D01*
X85189Y-56088D01*
X85158Y-56241D01*
X85158Y-56338D01*
X85189Y-56491D01*
X85276Y-56621D01*
X85406Y-56708D01*
X85560Y-56739D01*
X85713Y-56708D01*
X85843Y-56621D01*
X85930Y-56491D01*
X85961Y-56338D01*
X85961Y-58135D01*
X84961Y-58135D01*
X84961Y-56338D01*
X84961Y-56241D01*
X84961Y-50338D01*
X84961Y-50241D01*
X84930Y-50088D01*
X84843Y-49958D01*
X84713Y-49871D01*
X84560Y-49840D01*
X84406Y-49871D01*
X84276Y-49958D01*
X84189Y-50088D01*
X84158Y-50241D01*
X84158Y-50338D01*
X84189Y-50491D01*
X84276Y-50621D01*
X84406Y-50708D01*
X84560Y-50739D01*
X84713Y-50708D01*
X84843Y-50621D01*
X84930Y-50491D01*
X84961Y-50338D01*
X84961Y-56241D01*
X84930Y-56088D01*
X84843Y-55958D01*
X84713Y-55871D01*
X84560Y-55840D01*
X84406Y-55871D01*
X84276Y-55958D01*
X84189Y-56088D01*
X84158Y-56241D01*
X84158Y-56338D01*
X84189Y-56491D01*
X84276Y-56621D01*
X84406Y-56708D01*
X84560Y-56739D01*
X84713Y-56708D01*
X84843Y-56621D01*
X84930Y-56491D01*
X84961Y-56338D01*
X84961Y-58135D01*
X83961Y-58135D01*
X83961Y-56338D01*
X83961Y-56241D01*
X83961Y-50338D01*
X83961Y-50241D01*
X83930Y-50088D01*
X83843Y-49958D01*
X83713Y-49871D01*
X83560Y-49840D01*
X83406Y-49871D01*
X83276Y-49958D01*
X83189Y-50088D01*
X83158Y-50241D01*
X83158Y-50338D01*
X83189Y-50491D01*
X83276Y-50621D01*
X83406Y-50708D01*
X83560Y-50739D01*
X83713Y-50708D01*
X83843Y-50621D01*
X83930Y-50491D01*
X83961Y-50338D01*
X83961Y-56241D01*
X83930Y-56088D01*
X83843Y-55958D01*
X83713Y-55871D01*
X83560Y-55840D01*
X83406Y-55871D01*
X83276Y-55958D01*
X83189Y-56088D01*
X83158Y-56241D01*
X83158Y-56338D01*
X83189Y-56491D01*
X83276Y-56621D01*
X83406Y-56708D01*
X83560Y-56739D01*
X83713Y-56708D01*
X83843Y-56621D01*
X83930Y-56491D01*
X83961Y-56338D01*
X83961Y-58135D01*
X83070Y-58135D01*
X83070Y-53959D01*
X83070Y-53620D01*
X83032Y-53542D01*
X83009Y-53515D01*
X83009Y-52790D01*
X83009Y-51790D01*
X83009Y-50790D01*
X82978Y-50636D01*
X82891Y-50506D01*
X82761Y-50419D01*
X82608Y-50388D01*
X82511Y-50388D01*
X82358Y-50419D01*
X82228Y-50506D01*
X82141Y-50636D01*
X82110Y-50790D01*
X82141Y-50943D01*
X82228Y-51073D01*
X82358Y-51160D01*
X82511Y-51191D01*
X82608Y-51191D01*
X82761Y-51160D01*
X82891Y-51073D01*
X82978Y-50943D01*
X83009Y-50790D01*
X83009Y-51790D01*
X82978Y-51636D01*
X82891Y-51506D01*
X82761Y-51419D01*
X82608Y-51388D01*
X82511Y-51388D01*
X82358Y-51419D01*
X82228Y-51506D01*
X82141Y-51636D01*
X82110Y-51790D01*
X82141Y-51943D01*
X82228Y-52073D01*
X82358Y-52160D01*
X82511Y-52191D01*
X82608Y-52191D01*
X82761Y-52160D01*
X82891Y-52073D01*
X82978Y-51943D01*
X83009Y-51790D01*
X83009Y-52790D01*
X82978Y-52636D01*
X82891Y-52506D01*
X82761Y-52419D01*
X82608Y-52388D01*
X82511Y-52388D01*
X82358Y-52419D01*
X82228Y-52506D01*
X82141Y-52636D01*
X82110Y-52790D01*
X82141Y-52943D01*
X82228Y-53073D01*
X82358Y-53160D01*
X82511Y-53191D01*
X82608Y-53191D01*
X82761Y-53160D01*
X82891Y-53073D01*
X82978Y-52943D01*
X83009Y-52790D01*
X83009Y-53515D01*
X82905Y-53395D01*
X82731Y-53308D01*
X82654Y-53345D01*
X82654Y-53695D01*
X83039Y-53695D01*
X83070Y-53620D01*
X83070Y-53959D01*
X83039Y-53884D01*
X82654Y-53884D01*
X82654Y-54234D01*
X82731Y-54271D01*
X82905Y-54184D01*
X83032Y-54037D01*
X83070Y-53959D01*
X83070Y-58135D01*
X83009Y-58135D01*
X83009Y-55790D01*
X83009Y-54790D01*
X82978Y-54636D01*
X82891Y-54506D01*
X82761Y-54419D01*
X82608Y-54388D01*
X82511Y-54388D01*
X82465Y-54397D01*
X82465Y-54234D01*
X82465Y-53884D01*
X82465Y-53695D01*
X82465Y-53345D01*
X82388Y-53308D01*
X82214Y-53395D01*
X82087Y-53542D01*
X82049Y-53620D01*
X82080Y-53695D01*
X82465Y-53695D01*
X82465Y-53884D01*
X82080Y-53884D01*
X82049Y-53959D01*
X82087Y-54037D01*
X82214Y-54184D01*
X82388Y-54271D01*
X82465Y-54234D01*
X82465Y-54397D01*
X82358Y-54419D01*
X82228Y-54506D01*
X82141Y-54636D01*
X82110Y-54790D01*
X82141Y-54943D01*
X82228Y-55073D01*
X82358Y-55160D01*
X82511Y-55191D01*
X82608Y-55191D01*
X82761Y-55160D01*
X82891Y-55073D01*
X82978Y-54943D01*
X83009Y-54790D01*
X83009Y-55790D01*
X82978Y-55636D01*
X82891Y-55506D01*
X82761Y-55419D01*
X82608Y-55388D01*
X82511Y-55388D01*
X82358Y-55419D01*
X82228Y-55506D01*
X82141Y-55636D01*
X82110Y-55790D01*
X82141Y-55943D01*
X82228Y-56073D01*
X82358Y-56160D01*
X82511Y-56191D01*
X82608Y-56191D01*
X82761Y-56160D01*
X82891Y-56073D01*
X82978Y-55943D01*
X83009Y-55790D01*
X83009Y-58135D01*
X81949Y-58135D01*
X81949Y-53400D01*
X81918Y-53246D01*
X81831Y-53116D01*
X81701Y-53029D01*
X81548Y-52998D01*
X81451Y-52998D01*
X81298Y-53029D01*
X81168Y-53116D01*
X81081Y-53246D01*
X81050Y-53400D01*
X81081Y-53553D01*
X81168Y-53683D01*
X81298Y-53770D01*
X81451Y-53801D01*
X81548Y-53801D01*
X81701Y-53770D01*
X81831Y-53683D01*
X81918Y-53553D01*
X81949Y-53400D01*
X81949Y-58135D01*
X80864Y-58135D01*
X80864Y-49664D01*
X97826Y-49664D01*
X97815Y-49672D01*
X97789Y-49689D01*
X97414Y-50064D01*
X97380Y-50115D01*
X97369Y-50175D01*
X97369Y-51299D01*
X97248Y-51299D01*
X97209Y-51315D01*
X97179Y-51344D01*
X97163Y-51383D01*
X97163Y-51425D01*
X97163Y-52015D01*
X97179Y-52054D01*
X97208Y-52084D01*
X97247Y-52100D01*
X97289Y-52100D01*
X97480Y-52100D01*
X97744Y-52364D01*
X97744Y-53502D01*
X97721Y-53511D01*
X97692Y-53541D01*
X97676Y-53580D01*
X97675Y-53622D01*
X97675Y-53819D01*
X97692Y-53858D01*
X97721Y-53888D01*
X97744Y-53897D01*
X97744Y-54035D01*
X97589Y-54189D01*
X97555Y-54240D01*
X97544Y-54300D01*
X97544Y-55329D01*
X97534Y-55329D01*
X97534Y-53787D01*
X97534Y-53550D01*
X97518Y-53511D01*
X97488Y-53482D01*
X97449Y-53466D01*
X97407Y-53465D01*
X97210Y-53465D01*
X97171Y-53482D01*
X97141Y-53511D01*
X97132Y-53534D01*
X97054Y-53534D01*
X96910Y-53389D01*
X96859Y-53355D01*
X96800Y-53344D01*
X96795Y-53344D01*
X96795Y-53184D01*
X96779Y-53145D01*
X96749Y-53115D01*
X96710Y-53099D01*
X96668Y-53099D01*
X96200Y-53099D01*
X96195Y-53088D01*
X96157Y-53050D01*
X96195Y-53011D01*
X96200Y-53000D01*
X96710Y-53000D01*
X96744Y-52987D01*
X96744Y-53000D01*
X96755Y-53059D01*
X96789Y-53110D01*
X96889Y-53210D01*
X96940Y-53244D01*
X96940Y-53244D01*
X97000Y-53255D01*
X97132Y-53255D01*
X97141Y-53278D01*
X97171Y-53307D01*
X97210Y-53323D01*
X97252Y-53324D01*
X97449Y-53324D01*
X97488Y-53307D01*
X97518Y-53278D01*
X97534Y-53239D01*
X97534Y-53197D01*
X97534Y-52960D01*
X97534Y-52607D01*
X97534Y-52370D01*
X97518Y-52331D01*
X97488Y-52302D01*
X97449Y-52286D01*
X97407Y-52285D01*
X97210Y-52285D01*
X97171Y-52302D01*
X97141Y-52331D01*
X97125Y-52370D01*
X97125Y-52412D01*
X97125Y-52649D01*
X97141Y-52688D01*
X97171Y-52717D01*
X97210Y-52733D01*
X97252Y-52734D01*
X97449Y-52734D01*
X97488Y-52717D01*
X97518Y-52688D01*
X97534Y-52649D01*
X97534Y-52607D01*
X97534Y-52960D01*
X97518Y-52921D01*
X97488Y-52892D01*
X97449Y-52876D01*
X97407Y-52875D01*
X97210Y-52875D01*
X97171Y-52892D01*
X97141Y-52921D01*
X97132Y-52944D01*
X97064Y-52944D01*
X97055Y-52935D01*
X97055Y-52800D01*
X97044Y-52740D01*
X97010Y-52689D01*
X97010Y-52689D01*
X96810Y-52489D01*
X96795Y-52479D01*
X96795Y-52284D01*
X96779Y-52245D01*
X96749Y-52215D01*
X96710Y-52199D01*
X96668Y-52199D01*
X96589Y-52199D01*
X96589Y-52134D01*
X96589Y-52133D01*
X96578Y-52074D01*
X96544Y-52023D01*
X96544Y-52023D01*
X96310Y-51789D01*
X96259Y-51755D01*
X96200Y-51744D01*
X94961Y-51744D01*
X94961Y-50338D01*
X94961Y-50241D01*
X94930Y-50088D01*
X94843Y-49958D01*
X94713Y-49871D01*
X94560Y-49840D01*
X94406Y-49871D01*
X94276Y-49958D01*
X94189Y-50088D01*
X94158Y-50241D01*
X94158Y-50338D01*
X94189Y-50491D01*
X94276Y-50621D01*
X94406Y-50708D01*
X94560Y-50739D01*
X94713Y-50708D01*
X94843Y-50621D01*
X94930Y-50491D01*
X94961Y-50338D01*
X94961Y-51744D01*
X94800Y-51744D01*
X94700Y-51744D01*
X93961Y-51744D01*
X93961Y-50338D01*
X93961Y-50241D01*
X93930Y-50088D01*
X93843Y-49958D01*
X93713Y-49871D01*
X93560Y-49840D01*
X93406Y-49871D01*
X93276Y-49958D01*
X93189Y-50088D01*
X93158Y-50241D01*
X93158Y-50338D01*
X93189Y-50491D01*
X93276Y-50621D01*
X93406Y-50708D01*
X93560Y-50739D01*
X93713Y-50708D01*
X93843Y-50621D01*
X93930Y-50491D01*
X93961Y-50338D01*
X93961Y-51744D01*
X92961Y-51744D01*
X92961Y-50338D01*
X92961Y-50241D01*
X92930Y-50088D01*
X92843Y-49958D01*
X92713Y-49871D01*
X92560Y-49840D01*
X92406Y-49871D01*
X92276Y-49958D01*
X92189Y-50088D01*
X92158Y-50241D01*
X92158Y-50338D01*
X92189Y-50491D01*
X92276Y-50621D01*
X92406Y-50708D01*
X92560Y-50739D01*
X92713Y-50708D01*
X92843Y-50621D01*
X92930Y-50491D01*
X92961Y-50338D01*
X92961Y-51744D01*
X92461Y-51744D01*
X92461Y-51338D01*
X92461Y-51241D01*
X92430Y-51088D01*
X92343Y-50958D01*
X92213Y-50871D01*
X92060Y-50840D01*
X91961Y-50860D01*
X91961Y-50338D01*
X91961Y-50241D01*
X91930Y-50088D01*
X91843Y-49958D01*
X91713Y-49871D01*
X91560Y-49840D01*
X91406Y-49871D01*
X91276Y-49958D01*
X91189Y-50088D01*
X91158Y-50241D01*
X91158Y-50338D01*
X91189Y-50491D01*
X91276Y-50621D01*
X91406Y-50708D01*
X91560Y-50739D01*
X91713Y-50708D01*
X91843Y-50621D01*
X91930Y-50491D01*
X91961Y-50338D01*
X91961Y-50860D01*
X91906Y-50871D01*
X91776Y-50958D01*
X91689Y-51088D01*
X91658Y-51241D01*
X91658Y-51338D01*
X91689Y-51491D01*
X91776Y-51621D01*
X91906Y-51708D01*
X92060Y-51739D01*
X92213Y-51708D01*
X92343Y-51621D01*
X92430Y-51491D01*
X92461Y-51338D01*
X92461Y-51744D01*
X91461Y-51744D01*
X91461Y-51338D01*
X91461Y-51241D01*
X91430Y-51088D01*
X91343Y-50958D01*
X91213Y-50871D01*
X91060Y-50840D01*
X90961Y-50860D01*
X90961Y-50338D01*
X90961Y-50241D01*
X90930Y-50088D01*
X90843Y-49958D01*
X90713Y-49871D01*
X90560Y-49840D01*
X90406Y-49871D01*
X90276Y-49958D01*
X90189Y-50088D01*
X90158Y-50241D01*
X90158Y-50338D01*
X90189Y-50491D01*
X90276Y-50621D01*
X90406Y-50708D01*
X90560Y-50739D01*
X90713Y-50708D01*
X90843Y-50621D01*
X90930Y-50491D01*
X90961Y-50338D01*
X90961Y-50860D01*
X90906Y-50871D01*
X90776Y-50958D01*
X90689Y-51088D01*
X90658Y-51241D01*
X90658Y-51338D01*
X90689Y-51491D01*
X90776Y-51621D01*
X90906Y-51708D01*
X91060Y-51739D01*
X91213Y-51708D01*
X91343Y-51621D01*
X91430Y-51491D01*
X91461Y-51338D01*
X91461Y-51744D01*
X89961Y-51744D01*
X89961Y-50338D01*
X89961Y-50241D01*
X89930Y-50088D01*
X89843Y-49958D01*
X89713Y-49871D01*
X89560Y-49840D01*
X89406Y-49871D01*
X89276Y-49958D01*
X89189Y-50088D01*
X89158Y-50241D01*
X89158Y-50338D01*
X89189Y-50491D01*
X89276Y-50621D01*
X89406Y-50708D01*
X89560Y-50739D01*
X89713Y-50708D01*
X89843Y-50621D01*
X89930Y-50491D01*
X89961Y-50338D01*
X89961Y-51744D01*
X89764Y-51744D01*
X88722Y-50702D01*
X88843Y-50621D01*
X88930Y-50491D01*
X88961Y-50338D01*
X88961Y-50241D01*
X88930Y-50088D01*
X88843Y-49958D01*
X88713Y-49871D01*
X88560Y-49840D01*
X88406Y-49871D01*
X88276Y-49958D01*
X88189Y-50088D01*
X88158Y-50241D01*
X88158Y-50338D01*
X88189Y-50491D01*
X88276Y-50621D01*
X88309Y-50644D01*
X87810Y-50644D01*
X87843Y-50621D01*
X87930Y-50491D01*
X87961Y-50338D01*
X87961Y-50241D01*
X87930Y-50088D01*
X87843Y-49958D01*
X87713Y-49871D01*
X87560Y-49840D01*
X87406Y-49871D01*
X87276Y-49958D01*
X87189Y-50088D01*
X87158Y-50241D01*
X87158Y-50338D01*
X87189Y-50491D01*
X87276Y-50621D01*
X87333Y-50660D01*
X87289Y-50689D01*
X87125Y-50853D01*
X87060Y-50840D01*
X87041Y-50844D01*
X87041Y-50461D01*
X87041Y-50118D01*
X86954Y-49944D01*
X86807Y-49817D01*
X86729Y-49779D01*
X86654Y-49810D01*
X86654Y-50195D01*
X87004Y-50195D01*
X87041Y-50118D01*
X87041Y-50461D01*
X87004Y-50384D01*
X86654Y-50384D01*
X86654Y-50769D01*
X86729Y-50800D01*
X86807Y-50762D01*
X86954Y-50635D01*
X87041Y-50461D01*
X87041Y-50844D01*
X86906Y-50871D01*
X86776Y-50958D01*
X86689Y-51088D01*
X86658Y-51241D01*
X86658Y-51338D01*
X86689Y-51491D01*
X86776Y-51621D01*
X86906Y-51708D01*
X87060Y-51739D01*
X87213Y-51708D01*
X87343Y-51621D01*
X87430Y-51491D01*
X87461Y-51338D01*
X87461Y-51241D01*
X87430Y-51088D01*
X87391Y-51029D01*
X87464Y-50955D01*
X87779Y-50955D01*
X87776Y-50958D01*
X87689Y-51088D01*
X87658Y-51241D01*
X87658Y-51338D01*
X87689Y-51491D01*
X87776Y-51621D01*
X87906Y-51708D01*
X88060Y-51739D01*
X88213Y-51708D01*
X88343Y-51621D01*
X88430Y-51491D01*
X88439Y-51445D01*
X88525Y-51445D01*
X91289Y-54210D01*
X91289Y-54210D01*
X91340Y-54244D01*
X91399Y-54255D01*
X91400Y-54255D01*
X96300Y-54255D01*
X96359Y-54244D01*
X96359Y-54244D01*
X96410Y-54210D01*
X96544Y-54076D01*
X96544Y-54076D01*
X96578Y-54025D01*
X96589Y-53966D01*
X96589Y-53966D01*
X96589Y-53900D01*
X96710Y-53900D01*
X96749Y-53884D01*
X96779Y-53855D01*
X96795Y-53816D01*
X96795Y-53774D01*
X96795Y-53715D01*
X96879Y-53800D01*
X96879Y-53800D01*
X96930Y-53834D01*
X96990Y-53845D01*
X97132Y-53845D01*
X97141Y-53868D01*
X97171Y-53897D01*
X97210Y-53913D01*
X97252Y-53914D01*
X97449Y-53914D01*
X97488Y-53897D01*
X97518Y-53868D01*
X97534Y-53829D01*
X97534Y-53787D01*
X97534Y-55329D01*
X97149Y-55329D01*
X97110Y-55345D01*
X97080Y-55374D01*
X97064Y-55413D01*
X97064Y-55455D01*
X97064Y-55594D01*
X96850Y-55594D01*
X96790Y-55605D01*
X96739Y-55639D01*
X95307Y-57072D01*
X95200Y-57050D01*
X95046Y-57081D01*
X94961Y-57138D01*
X94961Y-56338D01*
X94961Y-56241D01*
X94930Y-56088D01*
X94843Y-55958D01*
X94713Y-55871D01*
X94560Y-55840D01*
X94406Y-55871D01*
X94276Y-55958D01*
X94189Y-56088D01*
X94158Y-56241D01*
X94158Y-56338D01*
X94189Y-56491D01*
X94276Y-56621D01*
X94406Y-56708D01*
X94560Y-56739D01*
X94713Y-56708D01*
X94843Y-56621D01*
X94930Y-56491D01*
X94961Y-56338D01*
X94961Y-57138D01*
X94916Y-57168D01*
X94829Y-57298D01*
X94798Y-57451D01*
X94798Y-57548D01*
X94829Y-57701D01*
X94916Y-57831D01*
X95046Y-57918D01*
X95200Y-57949D01*
X95353Y-57918D01*
X95483Y-57831D01*
X95570Y-57701D01*
X95601Y-57548D01*
X95601Y-57451D01*
X95570Y-57298D01*
X95551Y-57269D01*
X96914Y-55905D01*
X97064Y-55905D01*
X97064Y-56085D01*
X97080Y-56124D01*
X97109Y-56154D01*
X97148Y-56170D01*
X97190Y-56170D01*
X98250Y-56170D01*
X98289Y-56154D01*
X98319Y-56125D01*
X98335Y-56086D01*
X98335Y-56044D01*
X98335Y-55905D01*
X98525Y-55905D01*
X98525Y-56084D01*
X98541Y-56123D01*
X98571Y-56153D01*
X98610Y-56169D01*
X98652Y-56169D01*
X99045Y-56169D01*
X99084Y-56153D01*
X99114Y-56123D01*
X99130Y-56084D01*
X99130Y-56042D01*
X99130Y-55767D01*
X99114Y-55728D01*
X99084Y-55698D01*
X99045Y-55682D01*
X99003Y-55682D01*
X98983Y-55682D01*
X98983Y-55500D01*
X99182Y-55500D01*
X99155Y-55540D01*
X99144Y-55600D01*
X99144Y-56900D01*
X99155Y-56959D01*
X99189Y-57010D01*
X99306Y-57127D01*
X99306Y-57127D01*
G37*
G54D25*
X99306Y-57127D02*
X99299Y-57133D01*
X99281Y-57115D01*
X99242Y-57099D01*
X99200Y-57099D01*
X99121Y-57099D01*
X99121Y-56853D01*
X99130Y-56832D01*
X99130Y-56790D01*
X99130Y-56515D01*
X99114Y-56476D01*
X99084Y-56446D01*
X99045Y-56430D01*
X99003Y-56430D01*
X98610Y-56430D01*
X98571Y-56446D01*
X98541Y-56476D01*
X98525Y-56515D01*
X98525Y-56557D01*
X98525Y-56753D01*
X98435Y-56843D01*
X98435Y-56843D01*
X98435Y-56755D01*
X98384Y-56755D01*
X98435Y-56704D01*
X98435Y-56494D01*
X98404Y-56418D01*
X98346Y-56360D01*
X98271Y-56329D01*
X98189Y-56329D01*
X97845Y-56329D01*
X97794Y-56380D01*
X97794Y-56755D01*
X97801Y-56755D01*
X97801Y-56944D01*
X97794Y-56944D01*
X97794Y-57319D01*
X97845Y-57370D01*
X98189Y-57370D01*
X98244Y-57370D01*
X98244Y-57900D01*
X98255Y-57959D01*
X98289Y-58010D01*
X98414Y-58135D01*
X97605Y-58135D01*
X97605Y-57319D01*
X97605Y-56944D01*
X97605Y-56755D01*
X97605Y-56380D01*
X97554Y-56329D01*
X97210Y-56329D01*
X97128Y-56329D01*
X97053Y-56360D01*
X96995Y-56418D01*
X96964Y-56494D01*
X96964Y-56704D01*
X97015Y-56755D01*
X97605Y-56755D01*
X97605Y-56944D01*
X97015Y-56944D01*
X96964Y-56995D01*
X96964Y-57205D01*
X96995Y-57281D01*
X97053Y-57339D01*
X97128Y-57370D01*
X97210Y-57370D01*
X97554Y-57370D01*
X97605Y-57319D01*
X97605Y-58135D01*
X94601Y-58135D01*
X94601Y-57548D01*
X94601Y-57451D01*
X94570Y-57298D01*
X94483Y-57168D01*
X94353Y-57081D01*
X94200Y-57050D01*
X94046Y-57081D01*
X93961Y-57138D01*
X93961Y-56338D01*
X93961Y-56241D01*
X93930Y-56088D01*
X93843Y-55958D01*
X93713Y-55871D01*
X93560Y-55840D01*
X93406Y-55871D01*
X93276Y-55958D01*
X93189Y-56088D01*
X93158Y-56241D01*
X93158Y-56338D01*
X93189Y-56491D01*
X93276Y-56621D01*
X93406Y-56708D01*
X93560Y-56739D01*
X93713Y-56708D01*
X93843Y-56621D01*
X93930Y-56491D01*
X93961Y-56338D01*
X93961Y-57138D01*
X93916Y-57168D01*
X93829Y-57298D01*
X93798Y-57451D01*
X93798Y-57548D01*
X93829Y-57701D01*
X93916Y-57831D01*
X94046Y-57918D01*
X94200Y-57949D01*
X94353Y-57918D01*
X94483Y-57831D01*
X94570Y-57701D01*
X94601Y-57548D01*
X94601Y-58135D01*
X93681Y-58135D01*
X93681Y-57671D01*
X93681Y-57328D01*
X93594Y-57154D01*
X93447Y-57027D01*
X93369Y-56989D01*
X93294Y-57020D01*
X93294Y-57405D01*
X93644Y-57405D01*
X93681Y-57328D01*
X93681Y-57671D01*
X93644Y-57594D01*
X93294Y-57594D01*
X93294Y-57979D01*
X93369Y-58010D01*
X93447Y-57972D01*
X93594Y-57845D01*
X93681Y-57671D01*
X93681Y-58135D01*
X93105Y-58135D01*
X93105Y-57979D01*
X93105Y-57594D01*
X93105Y-57405D01*
X93105Y-57020D01*
X93030Y-56989D01*
X92961Y-57023D01*
X92961Y-56338D01*
X92961Y-56241D01*
X92930Y-56088D01*
X92843Y-55958D01*
X92713Y-55871D01*
X92560Y-55840D01*
X92406Y-55871D01*
X92276Y-55958D01*
X92189Y-56088D01*
X92158Y-56241D01*
X92158Y-56338D01*
X92180Y-56448D01*
X92089Y-56539D01*
X92055Y-56590D01*
X92044Y-56650D01*
X92044Y-57082D01*
X91961Y-57138D01*
X91961Y-56338D01*
X91961Y-56241D01*
X91930Y-56088D01*
X91843Y-55958D01*
X91713Y-55871D01*
X91560Y-55840D01*
X91406Y-55871D01*
X91276Y-55958D01*
X91189Y-56088D01*
X91158Y-56241D01*
X91158Y-56338D01*
X91180Y-56448D01*
X91089Y-56539D01*
X91055Y-56590D01*
X91044Y-56650D01*
X91044Y-57082D01*
X90961Y-57138D01*
X90961Y-56338D01*
X90961Y-56241D01*
X90930Y-56088D01*
X90843Y-55958D01*
X90713Y-55871D01*
X90560Y-55840D01*
X90406Y-55871D01*
X90276Y-55958D01*
X90189Y-56088D01*
X90158Y-56241D01*
X90158Y-56338D01*
X90180Y-56448D01*
X90089Y-56539D01*
X90055Y-56590D01*
X90044Y-56650D01*
X90044Y-57082D01*
X89961Y-57138D01*
X89961Y-56338D01*
X89961Y-56241D01*
X89930Y-56088D01*
X89843Y-55958D01*
X89713Y-55871D01*
X89560Y-55840D01*
X89406Y-55871D01*
X89276Y-55958D01*
X89189Y-56088D01*
X89158Y-56241D01*
X89158Y-56338D01*
X89180Y-56448D01*
X89089Y-56539D01*
X89055Y-56590D01*
X89044Y-56650D01*
X89044Y-57082D01*
X88961Y-57138D01*
X88961Y-56338D01*
X88961Y-56241D01*
X88930Y-56088D01*
X88843Y-55958D01*
X88713Y-55871D01*
X88560Y-55840D01*
X88406Y-55871D01*
X88276Y-55958D01*
X88189Y-56088D01*
X88158Y-56241D01*
X88158Y-56338D01*
X88180Y-56448D01*
X88089Y-56539D01*
X88055Y-56590D01*
X88044Y-56650D01*
X88044Y-57098D01*
X87961Y-57098D01*
X87961Y-56338D01*
X87961Y-56241D01*
X87930Y-56088D01*
X87843Y-55958D01*
X87713Y-55871D01*
X87560Y-55840D01*
X87406Y-55871D01*
X87276Y-55958D01*
X87189Y-56088D01*
X87158Y-56241D01*
X87158Y-56338D01*
X87189Y-56491D01*
X87276Y-56621D01*
X87406Y-56708D01*
X87560Y-56739D01*
X87713Y-56708D01*
X87843Y-56621D01*
X87930Y-56491D01*
X87961Y-56338D01*
X87961Y-57098D01*
X87883Y-57098D01*
X87844Y-57114D01*
X87814Y-57144D01*
X87798Y-57183D01*
X87798Y-57225D01*
X87798Y-57816D01*
X87814Y-57855D01*
X87844Y-57885D01*
X87883Y-57901D01*
X87925Y-57901D01*
X88516Y-57901D01*
X88555Y-57885D01*
X88585Y-57855D01*
X88601Y-57816D01*
X88601Y-57774D01*
X88601Y-57183D01*
X88585Y-57144D01*
X88555Y-57114D01*
X88516Y-57098D01*
X88474Y-57098D01*
X88355Y-57098D01*
X88355Y-56714D01*
X88379Y-56690D01*
X88406Y-56708D01*
X88560Y-56739D01*
X88713Y-56708D01*
X88843Y-56621D01*
X88930Y-56491D01*
X88961Y-56338D01*
X88961Y-57138D01*
X88916Y-57168D01*
X88829Y-57298D01*
X88798Y-57451D01*
X88798Y-57548D01*
X88829Y-57701D01*
X88916Y-57831D01*
X89046Y-57918D01*
X89200Y-57949D01*
X89353Y-57918D01*
X89483Y-57831D01*
X89570Y-57701D01*
X89601Y-57548D01*
X89601Y-57451D01*
X89570Y-57298D01*
X89483Y-57168D01*
X89355Y-57082D01*
X89355Y-56714D01*
X89379Y-56690D01*
X89406Y-56708D01*
X89560Y-56739D01*
X89713Y-56708D01*
X89843Y-56621D01*
X89930Y-56491D01*
X89961Y-56338D01*
X89961Y-57138D01*
X89916Y-57168D01*
X89829Y-57298D01*
X89798Y-57451D01*
X89798Y-57548D01*
X89829Y-57701D01*
X89916Y-57831D01*
X90046Y-57918D01*
X90200Y-57949D01*
X90353Y-57918D01*
X90483Y-57831D01*
X90570Y-57701D01*
X90601Y-57548D01*
X90601Y-57451D01*
X90570Y-57298D01*
X90483Y-57168D01*
X90355Y-57082D01*
X90355Y-56714D01*
X90379Y-56690D01*
X90406Y-56708D01*
X90560Y-56739D01*
X90713Y-56708D01*
X90843Y-56621D01*
X90930Y-56491D01*
X90961Y-56338D01*
X90961Y-57138D01*
X90916Y-57168D01*
X90829Y-57298D01*
X90798Y-57451D01*
X90798Y-57548D01*
X90829Y-57701D01*
X90916Y-57831D01*
X91046Y-57918D01*
X91200Y-57949D01*
X91353Y-57918D01*
X91483Y-57831D01*
X91570Y-57701D01*
X91601Y-57548D01*
X91601Y-57451D01*
X91570Y-57298D01*
X91483Y-57168D01*
X91355Y-57082D01*
X91355Y-56714D01*
X91379Y-56690D01*
X91406Y-56708D01*
X91560Y-56739D01*
X91713Y-56708D01*
X91843Y-56621D01*
X91930Y-56491D01*
X91961Y-56338D01*
X91961Y-57138D01*
X91916Y-57168D01*
X91829Y-57298D01*
X91798Y-57451D01*
X91798Y-57548D01*
X91829Y-57701D01*
X91916Y-57831D01*
X92046Y-57918D01*
X92200Y-57949D01*
X92353Y-57918D01*
X92483Y-57831D01*
X92570Y-57701D01*
X92601Y-57548D01*
X92601Y-57451D01*
X92570Y-57298D01*
X92483Y-57168D01*
X92355Y-57082D01*
X92355Y-56714D01*
X92379Y-56690D01*
X92406Y-56708D01*
X92560Y-56739D01*
X92713Y-56708D01*
X92843Y-56621D01*
X92930Y-56491D01*
X92961Y-56338D01*
X92961Y-57023D01*
X92952Y-57027D01*
X92805Y-57154D01*
X92718Y-57328D01*
X92755Y-57405D01*
X93105Y-57405D01*
X93105Y-57594D01*
X92755Y-57594D01*
X92718Y-57671D01*
X92805Y-57845D01*
X92952Y-57972D01*
X93030Y-58010D01*
X93105Y-57979D01*
X93105Y-58135D01*
X86961Y-58135D01*
X86961Y-56338D01*
X86961Y-56241D01*
X86930Y-56088D01*
X86843Y-55958D01*
X86713Y-55871D01*
X86560Y-55840D01*
X86465Y-55859D01*
X86465Y-50769D01*
X86465Y-50384D01*
X86465Y-50195D01*
X86465Y-49810D01*
X86390Y-49779D01*
X86312Y-49817D01*
X86165Y-49944D01*
X86078Y-50118D01*
X86115Y-50195D01*
X86465Y-50195D01*
X86465Y-50384D01*
X86115Y-50384D01*
X86078Y-50461D01*
X86165Y-50635D01*
X86312Y-50762D01*
X86390Y-50800D01*
X86465Y-50769D01*
X86465Y-55859D01*
X86406Y-55871D01*
X86276Y-55958D01*
X86189Y-56088D01*
X86158Y-56241D01*
X86158Y-56338D01*
X86189Y-56491D01*
X86276Y-56621D01*
X86406Y-56708D01*
X86560Y-56739D01*
X86713Y-56708D01*
X86843Y-56621D01*
X86930Y-56491D01*
X86961Y-56338D01*
X86961Y-58135D01*
X85961Y-58135D01*
X85961Y-56338D01*
X85961Y-56241D01*
X85961Y-50338D01*
X85961Y-50241D01*
X85930Y-50088D01*
X85843Y-49958D01*
X85713Y-49871D01*
X85560Y-49840D01*
X85406Y-49871D01*
X85276Y-49958D01*
X85189Y-50088D01*
X85158Y-50241D01*
X85158Y-50338D01*
X85189Y-50491D01*
X85276Y-50621D01*
X85406Y-50708D01*
X85560Y-50739D01*
X85713Y-50708D01*
X85843Y-50621D01*
X85930Y-50491D01*
X85961Y-50338D01*
X85961Y-56241D01*
X85930Y-56088D01*
X85843Y-55958D01*
X85713Y-55871D01*
X85560Y-55840D01*
X85406Y-55871D01*
X85276Y-55958D01*
X85189Y-56088D01*
X85158Y-56241D01*
X85158Y-56338D01*
X85189Y-56491D01*
X85276Y-56621D01*
X85406Y-56708D01*
X85560Y-56739D01*
X85713Y-56708D01*
X85843Y-56621D01*
X85930Y-56491D01*
X85961Y-56338D01*
X85961Y-58135D01*
X84961Y-58135D01*
X84961Y-56338D01*
X84961Y-56241D01*
X84961Y-50338D01*
X84961Y-50241D01*
X84930Y-50088D01*
X84843Y-49958D01*
X84713Y-49871D01*
X84560Y-49840D01*
X84406Y-49871D01*
X84276Y-49958D01*
X84189Y-50088D01*
X84158Y-50241D01*
X84158Y-50338D01*
X84189Y-50491D01*
X84276Y-50621D01*
X84406Y-50708D01*
X84560Y-50739D01*
X84713Y-50708D01*
X84843Y-50621D01*
X84930Y-50491D01*
X84961Y-50338D01*
X84961Y-56241D01*
X84930Y-56088D01*
X84843Y-55958D01*
X84713Y-55871D01*
X84560Y-55840D01*
X84406Y-55871D01*
X84276Y-55958D01*
X84189Y-56088D01*
X84158Y-56241D01*
X84158Y-56338D01*
X84189Y-56491D01*
X84276Y-56621D01*
X84406Y-56708D01*
X84560Y-56739D01*
X84713Y-56708D01*
X84843Y-56621D01*
X84930Y-56491D01*
X84961Y-56338D01*
X84961Y-58135D01*
X83961Y-58135D01*
X83961Y-56338D01*
X83961Y-56241D01*
X83961Y-50338D01*
X83961Y-50241D01*
X83930Y-50088D01*
X83843Y-49958D01*
X83713Y-49871D01*
X83560Y-49840D01*
X83406Y-49871D01*
X83276Y-49958D01*
X83189Y-50088D01*
X83158Y-50241D01*
X83158Y-50338D01*
X83189Y-50491D01*
X83276Y-50621D01*
X83406Y-50708D01*
X83560Y-50739D01*
X83713Y-50708D01*
X83843Y-50621D01*
X83930Y-50491D01*
X83961Y-50338D01*
X83961Y-56241D01*
X83930Y-56088D01*
X83843Y-55958D01*
X83713Y-55871D01*
X83560Y-55840D01*
X83406Y-55871D01*
X83276Y-55958D01*
X83189Y-56088D01*
X83158Y-56241D01*
X83158Y-56338D01*
X83189Y-56491D01*
X83276Y-56621D01*
X83406Y-56708D01*
X83560Y-56739D01*
X83713Y-56708D01*
X83843Y-56621D01*
X83930Y-56491D01*
X83961Y-56338D01*
X83961Y-58135D01*
X83070Y-58135D01*
X83070Y-53959D01*
X83070Y-53620D01*
X83032Y-53542D01*
X83009Y-53515D01*
X83009Y-52790D01*
X83009Y-51790D01*
X83009Y-50790D01*
X82978Y-50636D01*
X82891Y-50506D01*
X82761Y-50419D01*
X82608Y-50388D01*
X82511Y-50388D01*
X82358Y-50419D01*
X82228Y-50506D01*
X82141Y-50636D01*
X82110Y-50790D01*
X82141Y-50943D01*
X82228Y-51073D01*
X82358Y-51160D01*
X82511Y-51191D01*
X82608Y-51191D01*
X82761Y-51160D01*
X82891Y-51073D01*
X82978Y-50943D01*
X83009Y-50790D01*
X83009Y-51790D01*
X82978Y-51636D01*
X82891Y-51506D01*
X82761Y-51419D01*
X82608Y-51388D01*
X82511Y-51388D01*
X82358Y-51419D01*
X82228Y-51506D01*
X82141Y-51636D01*
X82110Y-51790D01*
X82141Y-51943D01*
X82228Y-52073D01*
X82358Y-52160D01*
X82511Y-52191D01*
X82608Y-52191D01*
X82761Y-52160D01*
X82891Y-52073D01*
X82978Y-51943D01*
X83009Y-51790D01*
X83009Y-52790D01*
X82978Y-52636D01*
X82891Y-52506D01*
X82761Y-52419D01*
X82608Y-52388D01*
X82511Y-52388D01*
X82358Y-52419D01*
X82228Y-52506D01*
X82141Y-52636D01*
X82110Y-52790D01*
X82141Y-52943D01*
X82228Y-53073D01*
X82358Y-53160D01*
X82511Y-53191D01*
X82608Y-53191D01*
X82761Y-53160D01*
X82891Y-53073D01*
X82978Y-52943D01*
X83009Y-52790D01*
X83009Y-53515D01*
X82905Y-53395D01*
X82731Y-53308D01*
X82654Y-53345D01*
X82654Y-53695D01*
X83039Y-53695D01*
X83070Y-53620D01*
X83070Y-53959D01*
X83039Y-53884D01*
X82654Y-53884D01*
X82654Y-54234D01*
X82731Y-54271D01*
X82905Y-54184D01*
X83032Y-54037D01*
X83070Y-53959D01*
X83070Y-58135D01*
X83009Y-58135D01*
X83009Y-55790D01*
X83009Y-54790D01*
X82978Y-54636D01*
X82891Y-54506D01*
X82761Y-54419D01*
X82608Y-54388D01*
X82511Y-54388D01*
X82465Y-54397D01*
X82465Y-54234D01*
X82465Y-53884D01*
X82465Y-53695D01*
X82465Y-53345D01*
X82388Y-53308D01*
X82214Y-53395D01*
X82087Y-53542D01*
X82049Y-53620D01*
X82080Y-53695D01*
X82465Y-53695D01*
X82465Y-53884D01*
X82080Y-53884D01*
X82049Y-53959D01*
X82087Y-54037D01*
X82214Y-54184D01*
X82388Y-54271D01*
X82465Y-54234D01*
X82465Y-54397D01*
X82358Y-54419D01*
X82228Y-54506D01*
X82141Y-54636D01*
X82110Y-54790D01*
X82141Y-54943D01*
X82228Y-55073D01*
X82358Y-55160D01*
X82511Y-55191D01*
X82608Y-55191D01*
X82761Y-55160D01*
X82891Y-55073D01*
X82978Y-54943D01*
X83009Y-54790D01*
X83009Y-55790D01*
X82978Y-55636D01*
X82891Y-55506D01*
X82761Y-55419D01*
X82608Y-55388D01*
X82511Y-55388D01*
X82358Y-55419D01*
X82228Y-55506D01*
X82141Y-55636D01*
X82110Y-55790D01*
X82141Y-55943D01*
X82228Y-56073D01*
X82358Y-56160D01*
X82511Y-56191D01*
X82608Y-56191D01*
X82761Y-56160D01*
X82891Y-56073D01*
X82978Y-55943D01*
X83009Y-55790D01*
X83009Y-58135D01*
X81949Y-58135D01*
X81949Y-53400D01*
X81918Y-53246D01*
X81831Y-53116D01*
X81701Y-53029D01*
X81548Y-52998D01*
X81451Y-52998D01*
X81298Y-53029D01*
X81168Y-53116D01*
X81081Y-53246D01*
X81050Y-53400D01*
X81081Y-53553D01*
X81168Y-53683D01*
X81298Y-53770D01*
X81451Y-53801D01*
X81548Y-53801D01*
X81701Y-53770D01*
X81831Y-53683D01*
X81918Y-53553D01*
X81949Y-53400D01*
X81949Y-58135D01*
X80864Y-58135D01*
X80864Y-49664D01*
X97826Y-49664D01*
X97815Y-49672D01*
X97789Y-49689D01*
X97414Y-50064D01*
X97380Y-50115D01*
X97369Y-50175D01*
X97369Y-51299D01*
X97248Y-51299D01*
X97209Y-51315D01*
X97179Y-51344D01*
X97163Y-51383D01*
X97163Y-51425D01*
X97163Y-52015D01*
X97179Y-52054D01*
X97208Y-52084D01*
X97247Y-52100D01*
X97289Y-52100D01*
X97480Y-52100D01*
X97744Y-52364D01*
X97744Y-53502D01*
X97721Y-53511D01*
X97692Y-53541D01*
X97676Y-53580D01*
X97675Y-53622D01*
X97675Y-53819D01*
X97692Y-53858D01*
X97721Y-53888D01*
X97744Y-53897D01*
X97744Y-54035D01*
X97589Y-54189D01*
X97555Y-54240D01*
X97544Y-54300D01*
X97544Y-55329D01*
X97534Y-55329D01*
X97534Y-53787D01*
X97534Y-53550D01*
X97518Y-53511D01*
X97488Y-53482D01*
X97449Y-53466D01*
X97407Y-53465D01*
X97210Y-53465D01*
X97171Y-53482D01*
X97141Y-53511D01*
X97132Y-53534D01*
X97054Y-53534D01*
X96910Y-53389D01*
X96859Y-53355D01*
X96800Y-53344D01*
X96795Y-53344D01*
X96795Y-53184D01*
X96779Y-53145D01*
X96749Y-53115D01*
X96710Y-53099D01*
X96668Y-53099D01*
X96200Y-53099D01*
X96195Y-53088D01*
X96157Y-53050D01*
X96195Y-53011D01*
X96200Y-53000D01*
X96710Y-53000D01*
X96744Y-52987D01*
X96744Y-53000D01*
X96755Y-53059D01*
X96789Y-53110D01*
X96889Y-53210D01*
X96940Y-53244D01*
X96940Y-53244D01*
X97000Y-53255D01*
X97132Y-53255D01*
X97141Y-53278D01*
X97171Y-53307D01*
X97210Y-53323D01*
X97252Y-53324D01*
X97449Y-53324D01*
X97488Y-53307D01*
X97518Y-53278D01*
X97534Y-53239D01*
X97534Y-53197D01*
X97534Y-52960D01*
X97534Y-52607D01*
X97534Y-52370D01*
X97518Y-52331D01*
X97488Y-52302D01*
X97449Y-52286D01*
X97407Y-52285D01*
X97210Y-52285D01*
X97171Y-52302D01*
X97141Y-52331D01*
X97125Y-52370D01*
X97125Y-52412D01*
X97125Y-52649D01*
X97141Y-52688D01*
X97171Y-52717D01*
X97210Y-52733D01*
X97252Y-52734D01*
X97449Y-52734D01*
X97488Y-52717D01*
X97518Y-52688D01*
X97534Y-52649D01*
X97534Y-52607D01*
X97534Y-52960D01*
X97518Y-52921D01*
X97488Y-52892D01*
X97449Y-52876D01*
X97407Y-52875D01*
X97210Y-52875D01*
X97171Y-52892D01*
X97141Y-52921D01*
X97132Y-52944D01*
X97064Y-52944D01*
X97055Y-52935D01*
X97055Y-52800D01*
X97044Y-52740D01*
X97010Y-52689D01*
X97010Y-52689D01*
X96810Y-52489D01*
X96795Y-52479D01*
X96795Y-52284D01*
X96779Y-52245D01*
X96749Y-52215D01*
X96710Y-52199D01*
X96668Y-52199D01*
X96589Y-52199D01*
X96589Y-52134D01*
X96589Y-52133D01*
X96578Y-52074D01*
X96544Y-52023D01*
X96544Y-52023D01*
X96310Y-51789D01*
X96259Y-51755D01*
X96200Y-51744D01*
X94961Y-51744D01*
X94961Y-50338D01*
X94961Y-50241D01*
X94930Y-50088D01*
X94843Y-49958D01*
X94713Y-49871D01*
X94560Y-49840D01*
X94406Y-49871D01*
X94276Y-49958D01*
X94189Y-50088D01*
X94158Y-50241D01*
X94158Y-50338D01*
X94189Y-50491D01*
X94276Y-50621D01*
X94406Y-50708D01*
X94560Y-50739D01*
X94713Y-50708D01*
X94843Y-50621D01*
X94930Y-50491D01*
X94961Y-50338D01*
X94961Y-51744D01*
X94800Y-51744D01*
X94700Y-51744D01*
X93961Y-51744D01*
X93961Y-50338D01*
X93961Y-50241D01*
X93930Y-50088D01*
X93843Y-49958D01*
X93713Y-49871D01*
X93560Y-49840D01*
X93406Y-49871D01*
X93276Y-49958D01*
X93189Y-50088D01*
X93158Y-50241D01*
X93158Y-50338D01*
X93189Y-50491D01*
X93276Y-50621D01*
X93406Y-50708D01*
X93560Y-50739D01*
X93713Y-50708D01*
X93843Y-50621D01*
X93930Y-50491D01*
X93961Y-50338D01*
X93961Y-51744D01*
X92961Y-51744D01*
X92961Y-50338D01*
X92961Y-50241D01*
X92930Y-50088D01*
X92843Y-49958D01*
X92713Y-49871D01*
X92560Y-49840D01*
X92406Y-49871D01*
X92276Y-49958D01*
X92189Y-50088D01*
X92158Y-50241D01*
X92158Y-50338D01*
X92189Y-50491D01*
X92276Y-50621D01*
X92406Y-50708D01*
X92560Y-50739D01*
X92713Y-50708D01*
X92843Y-50621D01*
X92930Y-50491D01*
X92961Y-50338D01*
X92961Y-51744D01*
X92461Y-51744D01*
X92461Y-51338D01*
X92461Y-51241D01*
X92430Y-51088D01*
X92343Y-50958D01*
X92213Y-50871D01*
X92060Y-50840D01*
X91961Y-50860D01*
X91961Y-50338D01*
X91961Y-50241D01*
X91930Y-50088D01*
X91843Y-49958D01*
X91713Y-49871D01*
X91560Y-49840D01*
X91406Y-49871D01*
X91276Y-49958D01*
X91189Y-50088D01*
X91158Y-50241D01*
X91158Y-50338D01*
X91189Y-50491D01*
X91276Y-50621D01*
X91406Y-50708D01*
X91560Y-50739D01*
X91713Y-50708D01*
X91843Y-50621D01*
X91930Y-50491D01*
X91961Y-50338D01*
X91961Y-50860D01*
X91906Y-50871D01*
X91776Y-50958D01*
X91689Y-51088D01*
X91658Y-51241D01*
X91658Y-51338D01*
X91689Y-51491D01*
X91776Y-51621D01*
X91906Y-51708D01*
X92060Y-51739D01*
X92213Y-51708D01*
X92343Y-51621D01*
X92430Y-51491D01*
X92461Y-51338D01*
X92461Y-51744D01*
X91461Y-51744D01*
X91461Y-51338D01*
X91461Y-51241D01*
X91430Y-51088D01*
X91343Y-50958D01*
X91213Y-50871D01*
X91060Y-50840D01*
X90961Y-50860D01*
X90961Y-50338D01*
X90961Y-50241D01*
X90930Y-50088D01*
X90843Y-49958D01*
X90713Y-49871D01*
X90560Y-49840D01*
X90406Y-49871D01*
X90276Y-49958D01*
X90189Y-50088D01*
X90158Y-50241D01*
X90158Y-50338D01*
X90189Y-50491D01*
X90276Y-50621D01*
X90406Y-50708D01*
X90560Y-50739D01*
X90713Y-50708D01*
X90843Y-50621D01*
X90930Y-50491D01*
X90961Y-50338D01*
X90961Y-50860D01*
X90906Y-50871D01*
X90776Y-50958D01*
X90689Y-51088D01*
X90658Y-51241D01*
X90658Y-51338D01*
X90689Y-51491D01*
X90776Y-51621D01*
X90906Y-51708D01*
X91060Y-51739D01*
X91213Y-51708D01*
X91343Y-51621D01*
X91430Y-51491D01*
X91461Y-51338D01*
X91461Y-51744D01*
X89961Y-51744D01*
X89961Y-50338D01*
X89961Y-50241D01*
X89930Y-50088D01*
X89843Y-49958D01*
X89713Y-49871D01*
X89560Y-49840D01*
X89406Y-49871D01*
X89276Y-49958D01*
X89189Y-50088D01*
X89158Y-50241D01*
X89158Y-50338D01*
X89189Y-50491D01*
X89276Y-50621D01*
X89406Y-50708D01*
X89560Y-50739D01*
X89713Y-50708D01*
X89843Y-50621D01*
X89930Y-50491D01*
X89961Y-50338D01*
X89961Y-51744D01*
X89764Y-51744D01*
X88722Y-50702D01*
X88843Y-50621D01*
X88930Y-50491D01*
X88961Y-50338D01*
X88961Y-50241D01*
X88930Y-50088D01*
X88843Y-49958D01*
X88713Y-49871D01*
X88560Y-49840D01*
X88406Y-49871D01*
X88276Y-49958D01*
X88189Y-50088D01*
X88158Y-50241D01*
X88158Y-50338D01*
X88189Y-50491D01*
X88276Y-50621D01*
X88309Y-50644D01*
X87810Y-50644D01*
X87843Y-50621D01*
X87930Y-50491D01*
X87961Y-50338D01*
X87961Y-50241D01*
X87930Y-50088D01*
X87843Y-49958D01*
X87713Y-49871D01*
X87560Y-49840D01*
X87406Y-49871D01*
X87276Y-49958D01*
X87189Y-50088D01*
X87158Y-50241D01*
X87158Y-50338D01*
X87189Y-50491D01*
X87276Y-50621D01*
X87333Y-50660D01*
X87289Y-50689D01*
X87125Y-50853D01*
X87060Y-50840D01*
X87041Y-50844D01*
X87041Y-50461D01*
X87041Y-50118D01*
X86954Y-49944D01*
X86807Y-49817D01*
X86729Y-49779D01*
X86654Y-49810D01*
X86654Y-50195D01*
X87004Y-50195D01*
X87041Y-50118D01*
X87041Y-50461D01*
X87004Y-50384D01*
X86654Y-50384D01*
X86654Y-50769D01*
X86729Y-50800D01*
X86807Y-50762D01*
X86954Y-50635D01*
X87041Y-50461D01*
X87041Y-50844D01*
X86906Y-50871D01*
X86776Y-50958D01*
X86689Y-51088D01*
X86658Y-51241D01*
X86658Y-51338D01*
X86689Y-51491D01*
X86776Y-51621D01*
X86906Y-51708D01*
X87060Y-51739D01*
X87213Y-51708D01*
X87343Y-51621D01*
X87430Y-51491D01*
X87461Y-51338D01*
X87461Y-51241D01*
X87430Y-51088D01*
X87391Y-51029D01*
X87464Y-50955D01*
X87779Y-50955D01*
X87776Y-50958D01*
X87689Y-51088D01*
X87658Y-51241D01*
X87658Y-51338D01*
X87689Y-51491D01*
X87776Y-51621D01*
X87906Y-51708D01*
X88060Y-51739D01*
X88213Y-51708D01*
X88343Y-51621D01*
X88430Y-51491D01*
X88439Y-51445D01*
X88525Y-51445D01*
X91289Y-54210D01*
X91289Y-54210D01*
X91340Y-54244D01*
X91399Y-54255D01*
X91400Y-54255D01*
X96300Y-54255D01*
X96359Y-54244D01*
X96359Y-54244D01*
X96410Y-54210D01*
X96544Y-54076D01*
X96544Y-54076D01*
X96578Y-54025D01*
X96589Y-53966D01*
X96589Y-53966D01*
X96589Y-53900D01*
X96710Y-53900D01*
X96749Y-53884D01*
X96779Y-53855D01*
X96795Y-53816D01*
X96795Y-53774D01*
X96795Y-53715D01*
X96879Y-53800D01*
X96879Y-53800D01*
X96930Y-53834D01*
X96990Y-53845D01*
X97132Y-53845D01*
X97141Y-53868D01*
X97171Y-53897D01*
X97210Y-53913D01*
X97252Y-53914D01*
X97449Y-53914D01*
X97488Y-53897D01*
X97518Y-53868D01*
X97534Y-53829D01*
X97534Y-53787D01*
X97534Y-55329D01*
X97149Y-55329D01*
X97110Y-55345D01*
X97080Y-55374D01*
X97064Y-55413D01*
X97064Y-55455D01*
X97064Y-55594D01*
X96850Y-55594D01*
X96790Y-55605D01*
X96739Y-55639D01*
X95307Y-57072D01*
X95200Y-57050D01*
X95046Y-57081D01*
X94961Y-57138D01*
X94961Y-56338D01*
X94961Y-56241D01*
X94930Y-56088D01*
X94843Y-55958D01*
X94713Y-55871D01*
X94560Y-55840D01*
X94406Y-55871D01*
X94276Y-55958D01*
X94189Y-56088D01*
X94158Y-56241D01*
X94158Y-56338D01*
X94189Y-56491D01*
X94276Y-56621D01*
X94406Y-56708D01*
X94560Y-56739D01*
X94713Y-56708D01*
X94843Y-56621D01*
X94930Y-56491D01*
X94961Y-56338D01*
X94961Y-57138D01*
X94916Y-57168D01*
X94829Y-57298D01*
X94798Y-57451D01*
X94798Y-57548D01*
X94829Y-57701D01*
X94916Y-57831D01*
X95046Y-57918D01*
X95200Y-57949D01*
X95353Y-57918D01*
X95483Y-57831D01*
X95570Y-57701D01*
X95601Y-57548D01*
X95601Y-57451D01*
X95570Y-57298D01*
X95551Y-57269D01*
X96914Y-55905D01*
X97064Y-55905D01*
X97064Y-56085D01*
X97080Y-56124D01*
X97109Y-56154D01*
X97148Y-56170D01*
X97190Y-56170D01*
X98250Y-56170D01*
X98289Y-56154D01*
X98319Y-56125D01*
X98335Y-56086D01*
X98335Y-56044D01*
X98335Y-55905D01*
X98525Y-55905D01*
X98525Y-56084D01*
X98541Y-56123D01*
X98571Y-56153D01*
X98610Y-56169D01*
X98652Y-56169D01*
X99045Y-56169D01*
X99084Y-56153D01*
X99114Y-56123D01*
X99130Y-56084D01*
X99130Y-56042D01*
X99130Y-55767D01*
X99114Y-55728D01*
X99084Y-55698D01*
X99045Y-55682D01*
X99003Y-55682D01*
X98983Y-55682D01*
X98983Y-55500D01*
X99182Y-55500D01*
X99155Y-55540D01*
X99144Y-55600D01*
X99144Y-56900D01*
X99155Y-56959D01*
X99189Y-57010D01*
X99306Y-57127D01*
G54D10*
G36*
X102535Y-58135D02*
X101220Y-58135D01*
X101220Y-56006D01*
X101220Y-55855D01*
X101168Y-55804D01*
X100794Y-55804D01*
X100794Y-56119D01*
X100845Y-56171D01*
X100973Y-56171D01*
X101055Y-56171D01*
X101131Y-56139D01*
X101189Y-56081D01*
X101220Y-56006D01*
X101220Y-58135D01*
X100585Y-58135D01*
X100810Y-57910D01*
X100810Y-57910D01*
X100844Y-57859D01*
X100855Y-57800D01*
X100855Y-57800D01*
X100855Y-57500D01*
X100855Y-57251D01*
X101035Y-57251D01*
X101074Y-57235D01*
X101104Y-57205D01*
X101120Y-57166D01*
X101120Y-57124D01*
X101120Y-56613D01*
X101104Y-56574D01*
X101074Y-56544D01*
X101035Y-56528D01*
X100993Y-56528D01*
X100605Y-56528D01*
X100605Y-56119D01*
X100605Y-55804D01*
X100231Y-55804D01*
X100179Y-55855D01*
X100179Y-56006D01*
X100210Y-56081D01*
X100268Y-56139D01*
X100344Y-56171D01*
X100426Y-56171D01*
X100554Y-56171D01*
X100605Y-56119D01*
X100605Y-56528D01*
X100364Y-56528D01*
X100325Y-56544D01*
X100295Y-56574D01*
X100279Y-56613D01*
X100279Y-56655D01*
X100279Y-57166D01*
X100295Y-57205D01*
X100325Y-57235D01*
X100364Y-57251D01*
X100406Y-57251D01*
X100544Y-57251D01*
X100544Y-57500D01*
X100544Y-57735D01*
X100335Y-57944D01*
X100174Y-57944D01*
X100174Y-56852D01*
X100174Y-56495D01*
X100170Y-56487D01*
X100174Y-56478D01*
X100174Y-56420D01*
X100122Y-56368D01*
X100091Y-56368D01*
X100085Y-56362D01*
X100009Y-56330D01*
X99927Y-56330D01*
X99917Y-56330D01*
X99879Y-56368D01*
X99866Y-56368D01*
X99866Y-56382D01*
X99866Y-56591D01*
X99866Y-56605D01*
X99879Y-56605D01*
X99917Y-56643D01*
X99927Y-56643D01*
X100009Y-56643D01*
X100085Y-56611D01*
X100091Y-56605D01*
X100122Y-56605D01*
X100174Y-56553D01*
X100174Y-56495D01*
X100174Y-56852D01*
X100174Y-56794D01*
X100122Y-56742D01*
X99866Y-56742D01*
X99866Y-56965D01*
X99917Y-57017D01*
X99927Y-57017D01*
X100009Y-57017D01*
X100085Y-56985D01*
X100143Y-56927D01*
X100174Y-56852D01*
X100174Y-57944D01*
X100100Y-57944D01*
X98664Y-57944D01*
X98555Y-57835D01*
X98555Y-57164D01*
X98803Y-56917D01*
X98810Y-56917D01*
X98810Y-57099D01*
X98689Y-57099D01*
X98650Y-57115D01*
X98620Y-57144D01*
X98604Y-57183D01*
X98604Y-57225D01*
X98604Y-57815D01*
X98620Y-57854D01*
X98650Y-57884D01*
X98689Y-57900D01*
X98731Y-57900D01*
X99242Y-57900D01*
X99281Y-57884D01*
X99300Y-57866D01*
X99318Y-57884D01*
X99357Y-57900D01*
X99399Y-57900D01*
X99910Y-57900D01*
X99949Y-57884D01*
X99979Y-57855D01*
X99995Y-57816D01*
X99995Y-57774D01*
X99995Y-57184D01*
X99979Y-57145D01*
X99949Y-57115D01*
X99910Y-57099D01*
X99868Y-57099D01*
X99719Y-57099D01*
X99632Y-57011D01*
X99677Y-56965D01*
X99677Y-56742D01*
X99670Y-56742D01*
X99670Y-56605D01*
X99677Y-56605D01*
X99677Y-56591D01*
X99677Y-56382D01*
X99677Y-56368D01*
X99670Y-56368D01*
X99670Y-56231D01*
X99677Y-56231D01*
X99677Y-56198D01*
X99866Y-56198D01*
X99866Y-56231D01*
X100122Y-56231D01*
X100174Y-56179D01*
X100174Y-56121D01*
X100143Y-56046D01*
X100085Y-55988D01*
X100074Y-55983D01*
X100074Y-55767D01*
X100058Y-55728D01*
X100028Y-55698D01*
X99989Y-55682D01*
X99947Y-55682D01*
X99554Y-55682D01*
X99515Y-55698D01*
X99485Y-55728D01*
X99469Y-55767D01*
X99469Y-55809D01*
X99469Y-55983D01*
X99458Y-55988D01*
X99455Y-55990D01*
X99455Y-55664D01*
X99619Y-55500D01*
X99951Y-55500D01*
X99990Y-55484D01*
X100020Y-55455D01*
X100036Y-55416D01*
X100036Y-55374D01*
X100036Y-55255D01*
X100326Y-55255D01*
X100268Y-55280D01*
X100210Y-55338D01*
X100179Y-55413D01*
X100179Y-55564D01*
X100231Y-55615D01*
X100605Y-55615D01*
X100605Y-55608D01*
X100794Y-55608D01*
X100794Y-55615D01*
X101168Y-55615D01*
X101220Y-55564D01*
X101220Y-55413D01*
X101189Y-55338D01*
X101131Y-55280D01*
X101073Y-55255D01*
X101600Y-55255D01*
X101659Y-55244D01*
X101659Y-55244D01*
X101710Y-55210D01*
X102010Y-54910D01*
X102010Y-54910D01*
X102044Y-54859D01*
X102055Y-54800D01*
X102055Y-54800D01*
X102055Y-53779D01*
X102101Y-53770D01*
X102231Y-53683D01*
X102318Y-53553D01*
X102349Y-53400D01*
X102318Y-53246D01*
X102231Y-53116D01*
X102101Y-53029D01*
X101948Y-52998D01*
X101851Y-52998D01*
X101698Y-53029D01*
X101568Y-53116D01*
X101481Y-53246D01*
X101450Y-53400D01*
X101481Y-53553D01*
X101568Y-53683D01*
X101698Y-53770D01*
X101744Y-53779D01*
X101744Y-54735D01*
X101535Y-54944D01*
X101280Y-54944D01*
X101280Y-50324D01*
X101223Y-50184D01*
X101116Y-50077D01*
X100976Y-50019D01*
X100824Y-50019D01*
X100684Y-50076D01*
X100577Y-50183D01*
X100519Y-50323D01*
X100519Y-50475D01*
X100576Y-50615D01*
X100683Y-50722D01*
X100823Y-50780D01*
X100975Y-50780D01*
X101115Y-50723D01*
X101222Y-50616D01*
X101280Y-50476D01*
X101280Y-50324D01*
X101280Y-54944D01*
X100280Y-54944D01*
X100280Y-50324D01*
X100223Y-50184D01*
X100116Y-50077D01*
X99976Y-50019D01*
X99824Y-50019D01*
X99684Y-50076D01*
X99577Y-50183D01*
X99519Y-50323D01*
X99519Y-50475D01*
X99576Y-50615D01*
X99683Y-50722D01*
X99823Y-50780D01*
X99975Y-50780D01*
X100115Y-50723D01*
X100222Y-50616D01*
X100280Y-50476D01*
X100280Y-50324D01*
X100280Y-54944D01*
X100036Y-54944D01*
X100036Y-54784D01*
X100020Y-54745D01*
X99991Y-54715D01*
X99952Y-54699D01*
X99910Y-54699D01*
X99398Y-54699D01*
X99380Y-54706D01*
X99380Y-50634D01*
X99380Y-50545D01*
X99329Y-50494D01*
X98994Y-50494D01*
X98994Y-50829D01*
X99045Y-50880D01*
X99215Y-50880D01*
X99291Y-50849D01*
X99349Y-50791D01*
X99380Y-50716D01*
X99380Y-50634D01*
X99380Y-54706D01*
X99359Y-54715D01*
X99329Y-54744D01*
X99313Y-54783D01*
X99313Y-54825D01*
X99313Y-55366D01*
X99286Y-55392D01*
X99286Y-55374D01*
X99286Y-54784D01*
X99270Y-54745D01*
X99241Y-54715D01*
X99202Y-54699D01*
X99160Y-54699D01*
X98805Y-54699D01*
X98805Y-50829D01*
X98805Y-50494D01*
X98470Y-50494D01*
X98419Y-50545D01*
X98419Y-50634D01*
X98419Y-50716D01*
X98450Y-50791D01*
X98508Y-50849D01*
X98584Y-50880D01*
X98754Y-50880D01*
X98805Y-50829D01*
X98805Y-54699D01*
X98774Y-54699D01*
X98774Y-53258D01*
X98774Y-52941D01*
X98743Y-52865D01*
X98685Y-52807D01*
X98679Y-52805D01*
X98685Y-52802D01*
X98743Y-52744D01*
X98774Y-52668D01*
X98774Y-52351D01*
X98743Y-52275D01*
X98685Y-52217D01*
X98609Y-52186D01*
X98607Y-52186D01*
X98647Y-52169D01*
X98705Y-52111D01*
X98736Y-52036D01*
X98736Y-51954D01*
X98736Y-51445D01*
X98736Y-51363D01*
X98705Y-51288D01*
X98647Y-51230D01*
X98571Y-51199D01*
X98420Y-51199D01*
X98369Y-51250D01*
X98369Y-51605D01*
X98685Y-51605D01*
X98736Y-51554D01*
X98736Y-51445D01*
X98736Y-51954D01*
X98736Y-51845D01*
X98685Y-51794D01*
X98369Y-51794D01*
X98369Y-52149D01*
X98405Y-52185D01*
X98405Y-52185D01*
X98375Y-52185D01*
X98375Y-52192D01*
X98369Y-52185D01*
X98330Y-52186D01*
X98254Y-52217D01*
X98196Y-52275D01*
X98165Y-52351D01*
X98165Y-52399D01*
X98217Y-52450D01*
X98420Y-52450D01*
X98420Y-52408D01*
X98519Y-52408D01*
X98519Y-52450D01*
X98722Y-52450D01*
X98774Y-52399D01*
X98774Y-52351D01*
X98774Y-52668D01*
X98774Y-52620D01*
X98722Y-52569D01*
X98519Y-52569D01*
X98519Y-52782D01*
X98541Y-52805D01*
X98519Y-52827D01*
X98519Y-53040D01*
X98722Y-53040D01*
X98774Y-52989D01*
X98774Y-52941D01*
X98774Y-53258D01*
X98774Y-53210D01*
X98722Y-53159D01*
X98519Y-53159D01*
X98519Y-53372D01*
X98570Y-53424D01*
X98609Y-53423D01*
X98685Y-53392D01*
X98743Y-53334D01*
X98774Y-53258D01*
X98774Y-54699D01*
X98674Y-54699D01*
X98674Y-53787D01*
X98674Y-53550D01*
X98658Y-53511D01*
X98628Y-53482D01*
X98589Y-53466D01*
X98547Y-53465D01*
X98420Y-53465D01*
X98420Y-53372D01*
X98420Y-53159D01*
X98420Y-53040D01*
X98420Y-52827D01*
X98398Y-52805D01*
X98420Y-52782D01*
X98420Y-52569D01*
X98217Y-52569D01*
X98165Y-52620D01*
X98165Y-52668D01*
X98196Y-52744D01*
X98254Y-52802D01*
X98260Y-52805D01*
X98254Y-52807D01*
X98196Y-52865D01*
X98165Y-52941D01*
X98165Y-52989D01*
X98217Y-53040D01*
X98420Y-53040D01*
X98420Y-53159D01*
X98217Y-53159D01*
X98165Y-53210D01*
X98165Y-53258D01*
X98196Y-53334D01*
X98254Y-53392D01*
X98330Y-53423D01*
X98369Y-53424D01*
X98420Y-53372D01*
X98420Y-53465D01*
X98350Y-53465D01*
X98311Y-53482D01*
X98281Y-53511D01*
X98265Y-53550D01*
X98265Y-53592D01*
X98265Y-53829D01*
X98281Y-53868D01*
X98311Y-53897D01*
X98350Y-53913D01*
X98392Y-53914D01*
X98589Y-53914D01*
X98628Y-53897D01*
X98658Y-53868D01*
X98674Y-53829D01*
X98674Y-53787D01*
X98674Y-54699D01*
X98648Y-54699D01*
X98609Y-54715D01*
X98579Y-54744D01*
X98563Y-54783D01*
X98563Y-54825D01*
X98563Y-55415D01*
X98579Y-55454D01*
X98608Y-55484D01*
X98647Y-55500D01*
X98672Y-55500D01*
X98672Y-55598D01*
X98652Y-55594D01*
X98335Y-55594D01*
X98335Y-55414D01*
X98319Y-55375D01*
X98290Y-55345D01*
X98251Y-55329D01*
X98209Y-55329D01*
X97855Y-55329D01*
X97855Y-54364D01*
X98010Y-54210D01*
X98010Y-54210D01*
X98044Y-54159D01*
X98055Y-54100D01*
X98055Y-54100D01*
X98055Y-53897D01*
X98078Y-53888D01*
X98107Y-53858D01*
X98123Y-53819D01*
X98124Y-53777D01*
X98124Y-53580D01*
X98107Y-53541D01*
X98078Y-53511D01*
X98055Y-53502D01*
X98055Y-52300D01*
X98044Y-52240D01*
X98044Y-52240D01*
X98027Y-52215D01*
X98017Y-52200D01*
X98129Y-52200D01*
X98180Y-52149D01*
X98180Y-51794D01*
X98173Y-51794D01*
X98173Y-51605D01*
X98180Y-51605D01*
X98180Y-51250D01*
X98129Y-51199D01*
X97978Y-51199D01*
X97902Y-51230D01*
X97844Y-51288D01*
X97834Y-51312D01*
X97802Y-51299D01*
X97760Y-51299D01*
X97680Y-51299D01*
X97680Y-50239D01*
X97964Y-49955D01*
X98502Y-49955D01*
X98450Y-50008D01*
X98419Y-50083D01*
X98419Y-50165D01*
X98419Y-50254D01*
X98470Y-50305D01*
X98805Y-50305D01*
X98805Y-50298D01*
X98994Y-50298D01*
X98994Y-50305D01*
X99329Y-50305D01*
X99380Y-50254D01*
X99380Y-50165D01*
X99380Y-50083D01*
X99349Y-50008D01*
X99297Y-49955D01*
X101435Y-49955D01*
X101620Y-50140D01*
X101577Y-50183D01*
X101519Y-50323D01*
X101519Y-50475D01*
X101576Y-50615D01*
X101683Y-50722D01*
X101823Y-50780D01*
X101975Y-50780D01*
X102115Y-50723D01*
X102222Y-50616D01*
X102280Y-50476D01*
X102280Y-50324D01*
X102223Y-50184D01*
X102116Y-50077D01*
X101976Y-50019D01*
X101939Y-50019D01*
X101610Y-49689D01*
X101573Y-49664D01*
X102535Y-49664D01*
X102535Y-58135D01*
X102535Y-58135D01*
G37*
G54D25*
X102535Y-58135D02*
X101220Y-58135D01*
X101220Y-56006D01*
X101220Y-55855D01*
X101168Y-55804D01*
X100794Y-55804D01*
X100794Y-56119D01*
X100845Y-56171D01*
X100973Y-56171D01*
X101055Y-56171D01*
X101131Y-56139D01*
X101189Y-56081D01*
X101220Y-56006D01*
X101220Y-58135D01*
X100585Y-58135D01*
X100810Y-57910D01*
X100810Y-57910D01*
X100844Y-57859D01*
X100855Y-57800D01*
X100855Y-57800D01*
X100855Y-57500D01*
X100855Y-57251D01*
X101035Y-57251D01*
X101074Y-57235D01*
X101104Y-57205D01*
X101120Y-57166D01*
X101120Y-57124D01*
X101120Y-56613D01*
X101104Y-56574D01*
X101074Y-56544D01*
X101035Y-56528D01*
X100993Y-56528D01*
X100605Y-56528D01*
X100605Y-56119D01*
X100605Y-55804D01*
X100231Y-55804D01*
X100179Y-55855D01*
X100179Y-56006D01*
X100210Y-56081D01*
X100268Y-56139D01*
X100344Y-56171D01*
X100426Y-56171D01*
X100554Y-56171D01*
X100605Y-56119D01*
X100605Y-56528D01*
X100364Y-56528D01*
X100325Y-56544D01*
X100295Y-56574D01*
X100279Y-56613D01*
X100279Y-56655D01*
X100279Y-57166D01*
X100295Y-57205D01*
X100325Y-57235D01*
X100364Y-57251D01*
X100406Y-57251D01*
X100544Y-57251D01*
X100544Y-57500D01*
X100544Y-57735D01*
X100335Y-57944D01*
X100174Y-57944D01*
X100174Y-56852D01*
X100174Y-56495D01*
X100170Y-56487D01*
X100174Y-56478D01*
X100174Y-56420D01*
X100122Y-56368D01*
X100091Y-56368D01*
X100085Y-56362D01*
X100009Y-56330D01*
X99927Y-56330D01*
X99917Y-56330D01*
X99879Y-56368D01*
X99866Y-56368D01*
X99866Y-56382D01*
X99866Y-56591D01*
X99866Y-56605D01*
X99879Y-56605D01*
X99917Y-56643D01*
X99927Y-56643D01*
X100009Y-56643D01*
X100085Y-56611D01*
X100091Y-56605D01*
X100122Y-56605D01*
X100174Y-56553D01*
X100174Y-56495D01*
X100174Y-56852D01*
X100174Y-56794D01*
X100122Y-56742D01*
X99866Y-56742D01*
X99866Y-56965D01*
X99917Y-57017D01*
X99927Y-57017D01*
X100009Y-57017D01*
X100085Y-56985D01*
X100143Y-56927D01*
X100174Y-56852D01*
X100174Y-57944D01*
X100100Y-57944D01*
X98664Y-57944D01*
X98555Y-57835D01*
X98555Y-57164D01*
X98803Y-56917D01*
X98810Y-56917D01*
X98810Y-57099D01*
X98689Y-57099D01*
X98650Y-57115D01*
X98620Y-57144D01*
X98604Y-57183D01*
X98604Y-57225D01*
X98604Y-57815D01*
X98620Y-57854D01*
X98650Y-57884D01*
X98689Y-57900D01*
X98731Y-57900D01*
X99242Y-57900D01*
X99281Y-57884D01*
X99300Y-57866D01*
X99318Y-57884D01*
X99357Y-57900D01*
X99399Y-57900D01*
X99910Y-57900D01*
X99949Y-57884D01*
X99979Y-57855D01*
X99995Y-57816D01*
X99995Y-57774D01*
X99995Y-57184D01*
X99979Y-57145D01*
X99949Y-57115D01*
X99910Y-57099D01*
X99868Y-57099D01*
X99719Y-57099D01*
X99632Y-57011D01*
X99677Y-56965D01*
X99677Y-56742D01*
X99670Y-56742D01*
X99670Y-56605D01*
X99677Y-56605D01*
X99677Y-56591D01*
X99677Y-56382D01*
X99677Y-56368D01*
X99670Y-56368D01*
X99670Y-56231D01*
X99677Y-56231D01*
X99677Y-56198D01*
X99866Y-56198D01*
X99866Y-56231D01*
X100122Y-56231D01*
X100174Y-56179D01*
X100174Y-56121D01*
X100143Y-56046D01*
X100085Y-55988D01*
X100074Y-55983D01*
X100074Y-55767D01*
X100058Y-55728D01*
X100028Y-55698D01*
X99989Y-55682D01*
X99947Y-55682D01*
X99554Y-55682D01*
X99515Y-55698D01*
X99485Y-55728D01*
X99469Y-55767D01*
X99469Y-55809D01*
X99469Y-55983D01*
X99458Y-55988D01*
X99455Y-55990D01*
X99455Y-55664D01*
X99619Y-55500D01*
X99951Y-55500D01*
X99990Y-55484D01*
X100020Y-55455D01*
X100036Y-55416D01*
X100036Y-55374D01*
X100036Y-55255D01*
X100326Y-55255D01*
X100268Y-55280D01*
X100210Y-55338D01*
X100179Y-55413D01*
X100179Y-55564D01*
X100231Y-55615D01*
X100605Y-55615D01*
X100605Y-55608D01*
X100794Y-55608D01*
X100794Y-55615D01*
X101168Y-55615D01*
X101220Y-55564D01*
X101220Y-55413D01*
X101189Y-55338D01*
X101131Y-55280D01*
X101073Y-55255D01*
X101600Y-55255D01*
X101659Y-55244D01*
X101659Y-55244D01*
X101710Y-55210D01*
X102010Y-54910D01*
X102010Y-54910D01*
X102044Y-54859D01*
X102055Y-54800D01*
X102055Y-54800D01*
X102055Y-53779D01*
X102101Y-53770D01*
X102231Y-53683D01*
X102318Y-53553D01*
X102349Y-53400D01*
X102318Y-53246D01*
X102231Y-53116D01*
X102101Y-53029D01*
X101948Y-52998D01*
X101851Y-52998D01*
X101698Y-53029D01*
X101568Y-53116D01*
X101481Y-53246D01*
X101450Y-53400D01*
X101481Y-53553D01*
X101568Y-53683D01*
X101698Y-53770D01*
X101744Y-53779D01*
X101744Y-54735D01*
X101535Y-54944D01*
X101280Y-54944D01*
X101280Y-50324D01*
X101223Y-50184D01*
X101116Y-50077D01*
X100976Y-50019D01*
X100824Y-50019D01*
X100684Y-50076D01*
X100577Y-50183D01*
X100519Y-50323D01*
X100519Y-50475D01*
X100576Y-50615D01*
X100683Y-50722D01*
X100823Y-50780D01*
X100975Y-50780D01*
X101115Y-50723D01*
X101222Y-50616D01*
X101280Y-50476D01*
X101280Y-50324D01*
X101280Y-54944D01*
X100280Y-54944D01*
X100280Y-50324D01*
X100223Y-50184D01*
X100116Y-50077D01*
X99976Y-50019D01*
X99824Y-50019D01*
X99684Y-50076D01*
X99577Y-50183D01*
X99519Y-50323D01*
X99519Y-50475D01*
X99576Y-50615D01*
X99683Y-50722D01*
X99823Y-50780D01*
X99975Y-50780D01*
X100115Y-50723D01*
X100222Y-50616D01*
X100280Y-50476D01*
X100280Y-50324D01*
X100280Y-54944D01*
X100036Y-54944D01*
X100036Y-54784D01*
X100020Y-54745D01*
X99991Y-54715D01*
X99952Y-54699D01*
X99910Y-54699D01*
X99398Y-54699D01*
X99380Y-54706D01*
X99380Y-50634D01*
X99380Y-50545D01*
X99329Y-50494D01*
X98994Y-50494D01*
X98994Y-50829D01*
X99045Y-50880D01*
X99215Y-50880D01*
X99291Y-50849D01*
X99349Y-50791D01*
X99380Y-50716D01*
X99380Y-50634D01*
X99380Y-54706D01*
X99359Y-54715D01*
X99329Y-54744D01*
X99313Y-54783D01*
X99313Y-54825D01*
X99313Y-55366D01*
X99286Y-55392D01*
X99286Y-55374D01*
X99286Y-54784D01*
X99270Y-54745D01*
X99241Y-54715D01*
X99202Y-54699D01*
X99160Y-54699D01*
X98805Y-54699D01*
X98805Y-50829D01*
X98805Y-50494D01*
X98470Y-50494D01*
X98419Y-50545D01*
X98419Y-50634D01*
X98419Y-50716D01*
X98450Y-50791D01*
X98508Y-50849D01*
X98584Y-50880D01*
X98754Y-50880D01*
X98805Y-50829D01*
X98805Y-54699D01*
X98774Y-54699D01*
X98774Y-53258D01*
X98774Y-52941D01*
X98743Y-52865D01*
X98685Y-52807D01*
X98679Y-52805D01*
X98685Y-52802D01*
X98743Y-52744D01*
X98774Y-52668D01*
X98774Y-52351D01*
X98743Y-52275D01*
X98685Y-52217D01*
X98609Y-52186D01*
X98607Y-52186D01*
X98647Y-52169D01*
X98705Y-52111D01*
X98736Y-52036D01*
X98736Y-51954D01*
X98736Y-51445D01*
X98736Y-51363D01*
X98705Y-51288D01*
X98647Y-51230D01*
X98571Y-51199D01*
X98420Y-51199D01*
X98369Y-51250D01*
X98369Y-51605D01*
X98685Y-51605D01*
X98736Y-51554D01*
X98736Y-51445D01*
X98736Y-51954D01*
X98736Y-51845D01*
X98685Y-51794D01*
X98369Y-51794D01*
X98369Y-52149D01*
X98405Y-52185D01*
X98405Y-52185D01*
X98375Y-52185D01*
X98375Y-52192D01*
X98369Y-52185D01*
X98330Y-52186D01*
X98254Y-52217D01*
X98196Y-52275D01*
X98165Y-52351D01*
X98165Y-52399D01*
X98217Y-52450D01*
X98420Y-52450D01*
X98420Y-52408D01*
X98519Y-52408D01*
X98519Y-52450D01*
X98722Y-52450D01*
X98774Y-52399D01*
X98774Y-52351D01*
X98774Y-52668D01*
X98774Y-52620D01*
X98722Y-52569D01*
X98519Y-52569D01*
X98519Y-52782D01*
X98541Y-52805D01*
X98519Y-52827D01*
X98519Y-53040D01*
X98722Y-53040D01*
X98774Y-52989D01*
X98774Y-52941D01*
X98774Y-53258D01*
X98774Y-53210D01*
X98722Y-53159D01*
X98519Y-53159D01*
X98519Y-53372D01*
X98570Y-53424D01*
X98609Y-53423D01*
X98685Y-53392D01*
X98743Y-53334D01*
X98774Y-53258D01*
X98774Y-54699D01*
X98674Y-54699D01*
X98674Y-53787D01*
X98674Y-53550D01*
X98658Y-53511D01*
X98628Y-53482D01*
X98589Y-53466D01*
X98547Y-53465D01*
X98420Y-53465D01*
X98420Y-53372D01*
X98420Y-53159D01*
X98420Y-53040D01*
X98420Y-52827D01*
X98398Y-52805D01*
X98420Y-52782D01*
X98420Y-52569D01*
X98217Y-52569D01*
X98165Y-52620D01*
X98165Y-52668D01*
X98196Y-52744D01*
X98254Y-52802D01*
X98260Y-52805D01*
X98254Y-52807D01*
X98196Y-52865D01*
X98165Y-52941D01*
X98165Y-52989D01*
X98217Y-53040D01*
X98420Y-53040D01*
X98420Y-53159D01*
X98217Y-53159D01*
X98165Y-53210D01*
X98165Y-53258D01*
X98196Y-53334D01*
X98254Y-53392D01*
X98330Y-53423D01*
X98369Y-53424D01*
X98420Y-53372D01*
X98420Y-53465D01*
X98350Y-53465D01*
X98311Y-53482D01*
X98281Y-53511D01*
X98265Y-53550D01*
X98265Y-53592D01*
X98265Y-53829D01*
X98281Y-53868D01*
X98311Y-53897D01*
X98350Y-53913D01*
X98392Y-53914D01*
X98589Y-53914D01*
X98628Y-53897D01*
X98658Y-53868D01*
X98674Y-53829D01*
X98674Y-53787D01*
X98674Y-54699D01*
X98648Y-54699D01*
X98609Y-54715D01*
X98579Y-54744D01*
X98563Y-54783D01*
X98563Y-54825D01*
X98563Y-55415D01*
X98579Y-55454D01*
X98608Y-55484D01*
X98647Y-55500D01*
X98672Y-55500D01*
X98672Y-55598D01*
X98652Y-55594D01*
X98335Y-55594D01*
X98335Y-55414D01*
X98319Y-55375D01*
X98290Y-55345D01*
X98251Y-55329D01*
X98209Y-55329D01*
X97855Y-55329D01*
X97855Y-54364D01*
X98010Y-54210D01*
X98010Y-54210D01*
X98044Y-54159D01*
X98055Y-54100D01*
X98055Y-54100D01*
X98055Y-53897D01*
X98078Y-53888D01*
X98107Y-53858D01*
X98123Y-53819D01*
X98124Y-53777D01*
X98124Y-53580D01*
X98107Y-53541D01*
X98078Y-53511D01*
X98055Y-53502D01*
X98055Y-52300D01*
X98044Y-52240D01*
X98044Y-52240D01*
X98027Y-52215D01*
X98017Y-52200D01*
X98129Y-52200D01*
X98180Y-52149D01*
X98180Y-51794D01*
X98173Y-51794D01*
X98173Y-51605D01*
X98180Y-51605D01*
X98180Y-51250D01*
X98129Y-51199D01*
X97978Y-51199D01*
X97902Y-51230D01*
X97844Y-51288D01*
X97834Y-51312D01*
X97802Y-51299D01*
X97760Y-51299D01*
X97680Y-51299D01*
X97680Y-50239D01*
X97964Y-49955D01*
X98502Y-49955D01*
X98450Y-50008D01*
X98419Y-50083D01*
X98419Y-50165D01*
X98419Y-50254D01*
X98470Y-50305D01*
X98805Y-50305D01*
X98805Y-50298D01*
X98994Y-50298D01*
X98994Y-50305D01*
X99329Y-50305D01*
X99380Y-50254D01*
X99380Y-50165D01*
X99380Y-50083D01*
X99349Y-50008D01*
X99297Y-49955D01*
X101435Y-49955D01*
X101620Y-50140D01*
X101577Y-50183D01*
X101519Y-50323D01*
X101519Y-50475D01*
X101576Y-50615D01*
X101683Y-50722D01*
X101823Y-50780D01*
X101975Y-50780D01*
X102115Y-50723D01*
X102222Y-50616D01*
X102280Y-50476D01*
X102280Y-50324D01*
X102223Y-50184D01*
X102116Y-50077D01*
X101976Y-50019D01*
X101939Y-50019D01*
X101610Y-49689D01*
X101573Y-49664D01*
X102535Y-49664D01*
X102535Y-58135D01*
M02*
